<svg width="758" height="246" viewBox="0 0 758 246" fill="none" xmlns="http://www.w3.org/2000/svg">
<path d="M195.969 123.417C192.188 123.417 188.632 122.583 185.299 120.914C182.031 119.246 179.404 116.872 177.417 113.791L181.55 108.979C183.409 111.674 185.556 113.727 187.991 115.139C190.426 116.551 193.117 117.257 196.065 117.257C204.396 117.257 208.562 112.316 208.562 102.433V61.6203H183.954V55.4599H215.579V102.144C215.579 109.267 213.913 114.594 210.58 118.123C207.312 121.652 202.442 123.417 195.969 123.417Z" fill="#525171"/>
<path d="M256.045 123.321C251.175 123.321 246.785 122.23 242.876 120.048C239.031 117.802 235.987 114.754 233.744 110.904C231.501 106.989 230.38 102.529 230.38 97.5241C230.38 92.4545 231.501 87.9947 233.744 84.1444C235.987 80.2941 239.031 77.2781 242.876 75.0963C246.721 72.9144 251.111 71.8235 256.045 71.8235C261.044 71.8235 265.466 72.9144 269.311 75.0963C273.22 77.2781 276.264 80.2941 278.443 84.1444C280.686 87.9947 281.807 92.4545 281.807 97.5241C281.807 102.529 280.686 106.989 278.443 110.904C276.264 114.754 273.22 117.802 269.311 120.048C265.402 122.23 260.98 123.321 256.045 123.321ZM256.045 117.257C259.698 117.257 262.934 116.455 265.754 114.85C268.574 113.182 270.785 110.872 272.387 107.92C274.053 104.904 274.886 101.439 274.886 97.5241C274.886 93.5455 274.053 90.0802 272.387 87.1283C270.785 84.1765 268.574 81.8984 265.754 80.2941C262.934 78.6257 259.73 77.7914 256.142 77.7914C252.553 77.7914 249.349 78.6257 246.529 80.2941C243.709 81.8984 241.466 84.1765 239.8 87.1283C238.134 90.0802 237.301 93.5455 237.301 97.5241C237.301 101.439 238.134 104.904 239.8 107.92C241.466 110.872 243.709 113.182 246.529 114.85C249.349 116.455 252.521 117.257 256.045 117.257Z" fill="#525171"/>
<path d="M327.084 122.84V111.674L326.796 109.845V91.1711C326.796 86.8717 325.579 83.5668 323.143 81.2567C320.772 78.9465 317.216 77.7914 312.473 77.7914C309.205 77.7914 306.097 78.3369 303.149 79.4278C300.201 80.5187 297.702 81.9626 295.651 83.7594L292.575 78.6578C295.139 76.4759 298.215 74.8075 301.803 73.6524C305.392 72.4332 309.173 71.8235 313.146 71.8235C319.683 71.8235 324.713 73.4599 328.238 76.7326C331.827 79.9412 333.621 84.8503 333.621 91.4599V122.84H327.084ZM309.686 123.321C305.905 123.321 302.605 122.711 299.785 121.492C297.029 120.209 294.914 118.476 293.441 116.294C291.967 114.048 291.23 111.481 291.23 108.594C291.23 105.963 291.838 103.588 293.056 101.471C294.338 99.2888 296.388 97.5562 299.208 96.2727C302.092 94.9251 305.937 94.2513 310.743 94.2513H328.142V99.3529H310.935C306.065 99.3529 302.669 100.219 300.746 101.952C298.888 103.684 297.958 105.834 297.958 108.401C297.958 111.289 299.08 113.599 301.323 115.332C303.566 117.064 306.706 117.93 310.743 117.93C314.588 117.93 317.888 117.064 320.644 115.332C323.464 113.535 325.514 110.968 326.796 107.631L328.334 112.348C327.052 115.684 324.81 118.348 321.605 120.337C318.465 122.326 314.492 123.321 309.686 123.321ZM319.875 63.8342C318.401 63.8342 317.087 63.5134 315.934 62.8717C314.78 62.23 313.723 61.492 312.762 60.6578C311.865 59.7594 310.967 58.9893 310.07 58.3476C309.173 57.6417 308.244 57.2888 307.283 57.2888C305.809 57.2888 304.623 57.8342 303.726 58.9251C302.893 60.016 302.412 61.5241 302.284 63.4492H298.151C298.279 60.2406 299.112 57.6738 300.65 55.7487C302.252 53.8235 304.303 52.861 306.802 52.861C308.276 52.861 309.59 53.2139 310.743 53.9198C311.961 54.5615 313.018 55.3316 313.915 56.2299C314.877 57.0642 315.774 57.8021 316.607 58.4439C317.504 59.0856 318.433 59.4064 319.394 59.4064C320.868 59.4064 322.054 58.8931 322.951 57.8663C323.848 56.7754 324.329 55.2995 324.393 53.4385H328.526C328.462 56.5187 327.629 59.0214 326.027 60.9465C324.425 62.8717 322.374 63.8342 319.875 63.8342Z" fill="#525171"/>
<path d="M372.729 123.321C367.859 123.321 363.469 122.23 359.56 120.048C355.715 117.802 352.671 114.754 350.428 110.904C348.185 106.989 347.064 102.529 347.064 97.5241C347.064 92.4545 348.185 87.9947 350.428 84.1444C352.671 80.2941 355.715 77.2781 359.56 75.0963C363.405 72.9144 367.795 71.8235 372.729 71.8235C377.728 71.8235 382.149 72.9144 385.994 75.0963C389.904 77.2781 392.948 80.2941 395.126 84.1444C397.369 87.9947 398.491 92.4545 398.491 97.5241C398.491 102.529 397.369 106.989 395.126 110.904C392.948 114.754 389.904 117.802 385.994 120.048C382.085 122.23 377.664 123.321 372.729 123.321ZM372.729 117.257C376.382 117.257 379.618 116.455 382.438 114.85C385.257 113.182 387.468 110.872 389.07 107.92C390.737 104.904 391.57 101.439 391.57 97.5241C391.57 93.5455 390.737 90.0802 389.07 87.1283C387.468 84.1765 385.257 81.8984 382.438 80.2941C379.618 78.6257 376.414 77.7914 372.825 77.7914C369.237 77.7914 366.032 78.6257 363.213 80.2941C360.393 81.8984 358.15 84.1765 356.484 87.1283C354.818 90.0802 353.985 93.5455 353.985 97.5241C353.985 101.439 354.818 104.904 356.484 107.92C358.15 110.872 360.393 113.182 363.213 114.85C366.032 116.455 369.205 117.257 372.729 117.257Z" fill="#525171"/>
<path d="M468.246 123.417C463.184 123.417 458.506 122.583 454.212 120.914C449.918 119.182 446.202 116.775 443.062 113.695C439.921 110.615 437.454 106.989 435.66 102.818C433.93 98.6471 433.064 94.0909 433.064 89.1497C433.064 84.2086 433.93 79.6524 435.66 75.4813C437.454 71.3102 439.921 67.6845 443.062 64.6043C446.266 61.5241 450.015 59.1497 454.308 57.4813C458.602 55.7487 463.28 54.8824 468.343 54.8824C473.213 54.8824 477.795 55.7166 482.089 57.385C486.382 58.9893 490.003 61.4278 492.951 64.7005L488.433 69.2246C485.677 66.4011 482.633 64.3797 479.301 63.1604C475.969 61.877 472.38 61.2353 468.535 61.2353C464.498 61.2353 460.749 61.9412 457.288 63.3529C453.828 64.7005 450.816 66.6578 448.252 69.2246C445.689 71.7273 443.67 74.6791 442.196 78.0802C440.787 81.4171 440.082 85.107 440.082 89.1497C440.082 93.1925 440.787 96.9144 442.196 100.316C443.67 103.652 445.689 106.604 448.252 109.171C450.816 111.674 453.828 113.631 457.288 115.043C460.749 116.39 464.498 117.064 468.535 117.064C472.38 117.064 475.969 116.422 479.301 115.139C482.633 113.856 485.677 111.802 488.433 108.979L492.951 113.503C490.003 116.775 486.382 119.246 482.089 120.914C477.795 122.583 473.181 123.417 468.246 123.417Z" fill="#525171"/>
<path d="M524.991 123.321C520.12 123.321 515.73 122.23 511.821 120.048C507.976 117.802 504.932 114.754 502.689 110.904C500.446 106.989 499.325 102.529 499.325 97.5241C499.325 92.4545 500.446 87.9947 502.689 84.1444C504.932 80.2941 507.976 77.2781 511.821 75.0963C515.666 72.9144 520.056 71.8235 524.991 71.8235C529.989 71.8235 534.411 72.9144 538.256 75.0963C542.165 77.2781 545.209 80.2941 547.388 84.1444C549.631 87.9947 550.752 92.4545 550.752 97.5241C550.752 102.529 549.631 106.989 547.388 110.904C545.209 114.754 542.165 117.802 538.256 120.048C534.347 122.23 529.925 123.321 524.991 123.321ZM524.991 117.257C528.643 117.257 531.88 116.455 534.699 114.85C537.519 113.182 539.73 110.872 541.332 107.92C542.998 104.904 543.831 101.439 543.831 97.5241C543.831 93.5455 542.998 90.0802 541.332 87.1283C539.73 84.1765 537.519 81.8984 534.699 80.2941C531.88 78.6257 528.675 77.7914 525.087 77.7914C521.498 77.7914 518.294 78.6257 515.474 80.2941C512.654 81.8984 510.412 84.1765 508.745 87.1283C507.079 90.0802 506.246 93.5455 506.246 97.5241C506.246 101.439 507.079 104.904 508.745 107.92C510.412 110.872 512.654 113.182 515.474 114.85C518.294 116.455 521.466 117.257 524.991 117.257Z" fill="#525171"/>
<path d="M564.686 122.84V51.4171H571.511V122.84H564.686Z" fill="#525171"/>
<path d="M611.36 123.321C607.067 123.321 603.318 122.519 600.113 120.914C596.909 119.31 594.41 116.904 592.616 113.695C590.885 110.487 590.02 106.476 590.02 101.663V72.3048H596.845V100.893C596.845 106.283 598.159 110.358 600.786 113.118C603.478 115.813 607.227 117.16 612.033 117.16C615.558 117.16 618.602 116.455 621.165 115.043C623.792 113.567 625.779 111.449 627.125 108.69C628.535 105.93 629.24 102.626 629.24 98.7754V72.3048H636.064V122.84H629.528V108.979L630.585 111.481C628.983 115.203 626.484 118.123 623.087 120.241C619.755 122.294 615.846 123.321 611.36 123.321Z" fill="#525171"/>
<path d="M668.639 123.321C664.474 123.321 660.532 122.743 656.816 121.588C653.099 120.369 650.183 118.861 648.068 117.064L651.144 111.674C653.195 113.214 655.822 114.561 659.026 115.717C662.231 116.807 665.595 117.353 669.12 117.353C673.926 117.353 677.386 116.615 679.501 115.139C681.616 113.599 682.673 111.578 682.673 109.075C682.673 107.214 682.064 105.77 680.847 104.743C679.693 103.652 678.155 102.85 676.233 102.337C674.31 101.759 672.164 101.278 669.792 100.893C667.421 100.508 665.05 100.059 662.679 99.5455C660.372 99.0321 658.257 98.2941 656.335 97.3316C654.412 96.3048 652.842 94.9251 651.625 93.1925C650.471 91.4599 649.894 89.1497 649.894 86.262C649.894 83.5027 650.663 81.0321 652.202 78.8503C653.74 76.6685 655.982 74.9679 658.93 73.7487C661.942 72.4652 665.595 71.8235 669.889 71.8235C673.157 71.8235 676.425 72.2727 679.693 73.1711C682.962 74.0053 685.653 75.1283 687.768 76.5401L684.788 82.0267C682.545 80.4866 680.142 79.3957 677.579 78.754C675.015 78.0481 672.452 77.6952 669.889 77.6952C665.339 77.6952 661.974 78.4973 659.795 80.1016C657.681 81.6417 656.623 83.631 656.623 86.0695C656.623 87.9947 657.2 89.5027 658.354 90.5936C659.571 91.6845 661.141 92.5508 663.064 93.1925C665.05 93.7701 667.197 94.2513 669.504 94.6364C671.875 95.0214 674.214 95.5027 676.521 96.0802C678.892 96.5936 681.039 97.3316 682.962 98.2941C684.948 99.1925 686.518 100.508 687.672 102.241C688.889 103.909 689.498 106.123 689.498 108.882C689.498 111.834 688.665 114.401 686.999 116.583C685.397 118.701 683.026 120.369 679.886 121.588C676.81 122.743 673.061 123.321 668.639 123.321Z" fill="#525171"/>
<path d="M715.575 123.321C711.41 123.321 707.469 122.743 703.752 121.588C700.035 120.369 697.119 118.861 695.004 117.064L698.08 111.674C700.131 113.214 702.759 114.561 705.963 115.717C709.167 116.807 712.531 117.353 716.056 117.353C720.862 117.353 724.323 116.615 726.437 115.139C728.552 113.599 729.61 111.578 729.61 109.075C729.61 107.214 729.001 105.77 727.783 104.743C726.63 103.652 725.092 102.85 723.169 102.337C721.247 101.759 719.1 101.278 716.729 100.893C714.358 100.508 711.987 100.059 709.615 99.5455C707.308 99.0321 705.194 98.2941 703.271 97.3316C701.349 96.3048 699.779 94.9251 698.561 93.1925C697.408 91.4599 696.831 89.1497 696.831 86.262C696.831 83.5027 697.6 81.0321 699.138 78.8503C700.676 76.6685 702.919 74.9679 705.867 73.7487C708.878 72.4652 712.531 71.8235 716.825 71.8235C720.093 71.8235 723.361 72.2727 726.63 73.1711C729.898 74.0053 732.589 75.1283 734.704 76.5401L731.724 82.0267C729.481 80.4866 727.078 79.3957 724.515 78.754C721.952 78.0481 719.388 77.6952 716.825 77.6952C712.275 77.6952 708.911 78.4973 706.732 80.1016C704.617 81.6417 703.56 83.631 703.56 86.0695C703.56 87.9947 704.136 89.5027 705.29 90.5936C706.507 91.6845 708.077 92.5508 710 93.1925C711.987 93.7701 714.133 94.2513 716.44 94.6364C718.812 95.0214 721.151 95.5027 723.458 96.0802C725.829 96.5936 727.975 97.3316 729.898 98.2941C731.885 99.1925 733.455 100.508 734.608 102.241C735.826 103.909 736.435 106.123 736.435 108.882C736.435 111.834 735.601 114.401 733.935 116.583C732.333 118.701 729.962 120.369 726.822 121.588C723.746 122.743 719.997 123.321 715.575 123.321Z" fill="#525171"/>
<path d="M748.958 122.84V72.3048H755.783V122.84H748.958ZM752.418 61.139C751.009 61.139 749.823 60.6578 748.862 59.6952C747.901 58.7326 747.42 57.5775 747.42 56.2299C747.42 54.8824 747.901 53.7594 748.862 52.861C749.823 51.8984 751.009 51.4171 752.418 51.4171C753.828 51.4171 755.014 51.8663 755.975 52.7647C756.936 53.6631 757.417 54.7861 757.417 56.1337C757.417 57.5455 756.936 58.7326 755.975 59.6952C755.078 60.6578 753.892 61.139 752.418 61.139Z" fill="#525171"/>
<path d="M284.417 173.147L298.499 141.687H301.712L315.794 173.147H312.362L299.423 143.619H300.744L287.806 173.147H284.417ZM289.962 164.743L290.93 162.046H308.841L309.809 164.743H289.962Z" fill="#525171"/>
<path d="M320.89 173.147V141.687H333.432C336.718 141.687 339.593 142.361 342.058 143.709C344.552 145.028 346.488 146.87 347.867 149.237C349.246 151.604 349.935 154.331 349.935 157.417C349.935 160.503 349.246 163.23 347.867 165.597C346.488 167.964 344.552 169.822 342.058 171.17C339.593 172.488 336.718 173.147 333.432 173.147H320.89ZM324.147 170.271H333.256C335.985 170.271 338.346 169.732 340.341 168.653C342.366 167.544 343.935 166.031 345.05 164.114C346.165 162.166 346.723 159.934 346.723 157.417C346.723 154.87 346.165 152.638 345.05 150.72C343.935 148.803 342.366 147.305 340.341 146.226C338.346 145.117 335.985 144.563 333.256 144.563H324.147V170.271Z" fill="#525171"/>
<path d="M365.103 173.147L351.461 141.687H354.981L367.743 171.305H365.807L378.657 141.687H381.958L368.315 173.147H365.103Z" fill="#525171"/>
<path d="M399.637 173.417C397.319 173.417 395.163 173.028 393.168 172.249C391.202 171.44 389.486 170.316 388.019 168.878C386.581 167.41 385.452 165.717 384.63 163.799C383.838 161.852 383.442 159.724 383.442 157.417C383.442 155.11 383.838 152.998 384.63 151.08C385.452 149.132 386.581 147.44 388.019 146.001C389.486 144.533 391.202 143.41 393.168 142.631C395.134 141.822 397.29 141.417 399.637 141.417C401.955 141.417 404.096 141.822 406.062 142.631C408.028 143.41 409.729 144.518 411.167 145.956C412.634 147.395 413.763 149.088 414.556 151.035C415.377 152.983 415.788 155.11 415.788 157.417C415.788 159.724 415.377 161.852 414.556 163.799C413.763 165.747 412.634 167.44 411.167 168.878C409.729 170.316 408.028 171.44 406.062 172.249C404.096 173.028 401.955 173.417 399.637 173.417ZM399.637 170.451C401.485 170.451 403.187 170.136 404.742 169.507C406.326 168.848 407.69 167.934 408.835 166.765C410.008 165.567 410.918 164.189 411.563 162.631C412.208 161.043 412.531 159.305 412.531 157.417C412.531 155.529 412.208 153.807 411.563 152.249C410.918 150.661 410.008 149.282 408.835 148.114C407.69 146.915 406.326 146.001 404.742 145.372C403.187 144.713 401.485 144.383 399.637 144.383C397.789 144.383 396.072 144.713 394.488 145.372C392.904 146.001 391.525 146.915 390.351 148.114C389.207 149.282 388.298 150.661 387.623 152.249C386.978 153.807 386.655 155.529 386.655 157.417C386.655 159.275 386.978 160.998 387.623 162.586C388.298 164.174 389.207 165.567 390.351 166.765C391.525 167.934 392.904 168.848 394.488 169.507C396.072 170.136 397.789 170.451 399.637 170.451Z" fill="#525171"/>
<path d="M436.465 173.417C434.148 173.417 432.006 173.028 430.04 172.249C428.075 171.44 426.373 170.316 424.935 168.878C423.498 167.44 422.368 165.747 421.547 163.799C420.755 161.852 420.359 159.724 420.359 157.417C420.359 155.11 420.755 152.983 421.547 151.035C422.368 149.088 423.498 147.395 424.935 145.956C426.402 144.518 428.119 143.41 430.084 142.631C432.05 141.822 434.192 141.417 436.509 141.417C438.739 141.417 440.837 141.807 442.802 142.586C444.768 143.335 446.426 144.473 447.775 146.001L445.707 148.114C444.445 146.795 443.052 145.852 441.526 145.282C440.001 144.683 438.358 144.383 436.597 144.383C434.749 144.383 433.033 144.713 431.449 145.372C429.864 146.001 428.485 146.915 427.312 148.114C426.138 149.282 425.214 150.661 424.539 152.249C423.894 153.807 423.571 155.529 423.571 157.417C423.571 159.305 423.894 161.043 424.539 162.631C425.214 164.189 426.138 165.567 427.312 166.765C428.485 167.934 429.864 168.848 431.449 169.507C433.033 170.136 434.749 170.451 436.597 170.451C438.358 170.451 440.001 170.151 441.526 169.552C443.052 168.953 444.445 167.994 445.707 166.676L447.775 168.788C446.426 170.316 444.768 171.47 442.802 172.249C440.837 173.028 438.724 173.417 436.465 173.417Z" fill="#525171"/>
<path d="M449.015 173.147L463.097 141.687H466.31L480.392 173.147H476.96L464.022 143.619H465.342L452.404 173.147H449.015ZM454.56 164.743L455.528 162.046H473.439L474.407 164.743H454.56Z" fill="#525171"/>
<path d="M498.437 173.417C496.119 173.417 493.977 173.028 492.012 172.249C490.046 171.44 488.344 170.316 486.907 168.878C485.469 167.44 484.34 165.747 483.518 163.799C482.726 161.852 482.33 159.724 482.33 157.417C482.33 155.11 482.726 152.983 483.518 151.035C484.34 149.088 485.469 147.395 486.907 145.956C488.374 144.518 490.09 143.41 492.056 142.631C494.021 141.822 496.163 141.417 498.481 141.417C500.711 141.417 502.808 141.807 504.774 142.586C506.74 143.335 508.397 144.473 509.747 146.001L507.678 148.114C506.417 146.795 505.023 145.852 503.498 145.282C501.972 144.683 500.329 144.383 498.569 144.383C496.721 144.383 495.004 144.713 493.42 145.372C491.836 146.001 490.457 146.915 489.283 148.114C488.11 149.282 487.186 150.661 486.511 152.249C485.865 153.807 485.543 155.529 485.543 157.417C485.543 159.305 485.865 161.043 486.511 162.631C487.186 164.189 488.11 165.567 489.283 166.765C490.457 167.934 491.836 168.848 493.42 169.507C495.004 170.136 496.721 170.451 498.569 170.451C500.329 170.451 501.972 170.151 503.498 169.552C505.023 168.953 506.417 167.994 507.678 166.676L509.747 168.788C508.397 170.316 506.74 171.47 504.774 172.249C502.808 173.028 500.696 173.417 498.437 173.417Z" fill="#525171"/>
<path d="M516.689 173.147V141.687H519.945V173.147H516.689Z" fill="#525171"/>
<path d="M525.04 173.147L539.122 141.687H542.335L556.417 173.147H552.984L540.046 143.619H541.366L528.428 173.147H525.04ZM530.585 164.743L531.553 162.046H549.464L550.432 164.743H530.585Z" fill="#525171"/>
<path d="M65.7987 99.9127C66.3653 102.502 67.3959 104.422 68.9263 105.617C70.4347 106.796 72.4775 107.304 75.0915 107.093C74.2139 104.747 73.0135 102.95 71.4658 101.746C69.9491 100.567 68.0687 99.9413 65.7987 99.9127ZM67.7663 107.104C65.6393 105.441 64.3176 102.762 63.7364 99.1484L63.5719 98.1295L64.6051 98.0625C67.8469 97.8528 70.5054 98.611 72.6257 100.26C74.7166 101.886 76.2462 104.361 77.261 107.613L77.5886 108.663L76.4971 108.826C72.7954 109.378 69.9049 108.775 67.7663 107.104Z" fill="#525171"/>
<path d="M66.2262 85.1863C66.7928 87.7758 67.8234 89.6954 69.3538 90.8911C70.8622 92.07 72.905 92.5776 75.519 92.3667C74.6414 90.0211 73.441 88.2239 71.8933 87.0202C70.3765 85.8402 68.4962 85.2151 66.2262 85.1863ZM68.1938 92.3772C66.0667 90.7151 64.7454 88.0354 64.1638 84.4226L63.9994 83.4031L65.0326 83.3363C68.2744 83.1265 70.9329 83.8847 73.0531 85.534C75.1441 87.16 76.6739 89.6357 77.6885 92.8865L78.0161 93.9371L76.9246 94.0996C73.2229 94.6518 70.3323 94.0489 68.1938 92.3772Z" fill="#525171"/>
<path d="M66.6541 70.4603C67.2202 73.0496 68.2513 74.9692 69.7813 76.1655C71.2897 77.3439 73.3325 77.8515 75.9468 77.6407C75.0692 75.2951 73.8685 73.4979 72.3207 72.2942C70.8039 71.1142 68.9241 70.489 66.6541 70.4603ZM68.6213 77.6516C66.4942 75.989 65.1729 73.3094 64.5913 69.6964L64.4272 68.6771L65.4601 68.6102C68.7018 68.4004 71.3604 69.1587 73.4806 70.808C75.5716 72.434 77.1014 74.9095 78.116 78.1603L78.4436 79.2111L77.3521 79.3735C73.6503 79.9257 70.7598 79.323 68.6213 77.6516Z" fill="#525171"/>
<path d="M101.248 99.5152C100.448 103.084 98.9641 105.677 96.7379 107.208C94.5013 108.746 91.5786 109.171 87.917 108.394L86.4997 108.093L87.3458 106.918C87.8932 106.157 88.3762 105.38 88.8486 104.619C91.2188 100.8 93.3833 97.3138 100.465 98.3754L101.469 98.5262L101.248 99.5152ZM95.6733 105.651C97.277 104.548 98.4248 102.687 99.1478 100.123C94.101 99.7338 92.353 102.548 90.4512 105.612C90.2097 106.001 89.9662 106.394 89.7149 106.784C92.1779 107.088 94.1544 106.695 95.6733 105.651Z" fill="#525171"/>
<path d="M101.675 84.7891C100.875 88.3578 99.3913 90.9516 97.1654 92.482C94.9291 94.0199 92.006 94.4451 88.3444 93.6676L87.266 93.439L87.6576 92.411C88.8702 89.2259 90.5482 86.8475 92.7354 85.3511C94.951 83.8348 97.6499 83.2414 100.87 83.6478L101.902 83.7784L101.675 84.7891ZM96.1007 90.9244C97.6987 89.8258 98.8435 87.9734 99.5674 85.4238C97.3003 85.3144 95.3852 85.8237 93.8002 86.9087C92.1824 88.0158 90.8755 89.735 89.8566 92.0198C92.4527 92.3908 94.5235 92.0091 96.1007 90.9244Z" fill="#525171"/>
<path d="M102.103 70.0631C101.303 73.6317 99.8187 76.2256 97.5928 77.7559C95.3566 79.2941 92.4335 79.719 88.7719 78.9415L87.6935 78.7132L88.0851 77.6848C89.2976 74.4999 90.9756 72.1214 93.1628 70.6251C95.3784 69.1091 98.0774 68.5153 101.297 68.922L102.329 69.0524L102.103 70.0631ZM96.5282 76.1984C98.1262 75.0996 99.271 73.2477 99.9947 70.6976C97.7278 70.5884 95.8127 71.0979 94.2277 72.1827C92.6099 73.2896 91.303 75.0089 90.284 77.294C92.8802 77.6648 94.951 77.2833 96.5282 76.1984Z" fill="#525171"/>
<path d="M3.31712 54.0752C18.6526 35.6407 42.8382 31.5482 64.5017 27.8828C73.9103 26.2908 82.8247 24.7824 90.1782 22.2108C92.2883 15.8692 94.8852 10.7532 98.1424 7.20452C100.915 4.18438 104.469 2.03763 107.066 1.54029C108.277 1.30816 109.382 1.39816 110.281 1.86109C111.367 2.42043 112.054 3.39786 112.189 4.8484C112.357 6.64706 111.481 9.41524 109.007 13.321C105.468 18.9072 99.9403 22.5373 93.1508 25.1441C87.5635 43.3267 85.6633 71.7869 83.6385 102.114C83.0645 110.715 82.4801 119.466 81.7975 128.18C106.098 112.832 138.346 100.3 176.935 84.2208C137.238 100.762 105.877 117.195 81.4203 132.868C80.3991 145.193 79.1484 157.38 77.4182 168.904C70.6222 214.162 56.4059 249.351 19.8102 243.856C14.3507 243.036 9.73473 240.527 6.47646 236.567C2.3878 231.6 0.49765 224.407 1.84992 215.492C3.15872 206.867 7.52831 196.556 15.9374 185.041C27.6743 168.968 47.3875 150.432 77.809 130.731C78.5902 121.094 79.2383 111.387 79.8741 101.863C81.8149 72.7877 83.645 45.4012 88.8414 26.6205C61.2671 35.0612 23.6687 29.6104 3.31712 54.0752ZM94.8123 20.3373C99.5178 18.1335 103.316 15.2637 105.818 11.3133C107.806 8.17479 108.535 6.22458 108.439 5.18792C108.438 5.18525 108.441 5.18385 108.445 5.18385C108.304 5.16598 108.074 5.18791 107.774 5.24578C105.882 5.60831 103.161 7.31549 100.918 9.75896C98.5335 12.3566 96.5245 15.9405 94.8123 20.3373ZM108.462 5.18604C108.51 5.19804 108.611 5.24268 108.553 5.21282C108.53 5.20082 108.499 5.19164 108.462 5.18604ZM77.4132 135.469C48.826 154.273 30.1782 171.918 18.9783 187.256C10.9627 198.233 6.81086 207.972 5.58486 216.053C3.58126 254.599 69.6323 225.738 77.4132 135.469Z" fill="#525171"/>
<path d="M65.7987 99.9127L65.8166 98.4955L64.0329 98.4729L64.4142 100.216L65.7987 99.9127ZM68.9263 105.617L69.7991 104.501L69.799 104.501L68.9263 105.617ZM75.0915 107.093L75.2055 108.506L77.0768 108.355L76.419 106.596L75.0915 107.093ZM71.4658 101.746L70.5955 102.865L70.5956 102.865L71.4658 101.746ZM67.7663 107.104L68.6392 105.987L68.6391 105.987L67.7663 107.104ZM63.7364 99.1484L65.1357 98.9233L65.1356 98.9226L63.7364 99.1484ZM63.5719 98.1295L63.4803 96.7151L61.9243 96.8159L62.1727 98.3553L63.5719 98.1295ZM64.6051 98.0625L64.5136 96.6482L64.5135 96.6482L64.6051 98.0625ZM72.6257 100.26L71.7554 101.379L71.7557 101.379L72.6257 100.26ZM77.261 107.613L78.6141 107.191L78.614 107.19L77.261 107.613ZM77.5886 108.663L77.7979 110.065L79.4343 109.82L78.9417 108.241L77.5886 108.663ZM76.4971 108.826L76.7063 110.228L76.7064 110.228L76.4971 108.826ZM66.2262 85.1863L66.2442 83.7691L64.4604 83.7464L64.8416 85.4892L66.2262 85.1863ZM69.3538 90.8911L70.2266 89.7744L70.2264 89.7742L69.3538 90.8911ZM75.519 92.3667L75.633 93.7795L77.5044 93.6284L76.8465 91.87L75.519 92.3667ZM71.8933 87.0202L71.023 88.1388L71.0232 88.139L71.8933 87.0202ZM68.1938 92.3772L69.0667 91.2606L69.0665 91.2604L68.1938 92.3772ZM64.1638 84.4226L65.5631 84.1973L65.5631 84.197L64.1638 84.4226ZM63.9994 83.4031L63.908 81.9887L62.3519 82.0893L62.6002 83.6287L63.9994 83.4031ZM65.0326 83.3363L65.1241 84.7507L65.1241 84.7507L65.0326 83.3363ZM73.0531 85.534L72.1829 86.6527L72.1831 86.6529L73.0531 85.534ZM77.6885 92.8865L79.0416 92.4646L79.0414 92.4642L77.6885 92.8865ZM78.0161 93.9371L78.2248 95.339L79.8618 95.0952L79.3691 93.5152L78.0161 93.9371ZM76.9246 94.0996L76.7159 92.6977L76.7155 92.6978L76.9246 94.0996ZM66.6541 70.4603L66.672 69.0431L64.8885 69.0206L65.2695 70.763L66.6541 70.4603ZM69.7813 76.1655L68.9083 77.2821L68.9087 77.2824L69.7813 76.1655ZM75.9468 77.6407L76.0607 79.0534L77.9322 78.9025L77.2742 77.144L75.9468 77.6407ZM72.3207 72.2942L71.4505 73.4128L71.4506 73.413L72.3207 72.2942ZM68.6213 77.6516L67.7484 78.7683L67.7485 78.7684L68.6213 77.6516ZM64.5913 69.6964L65.9906 69.4712L65.9906 69.4711L64.5913 69.6964ZM64.4272 68.6771L64.3355 67.2627L62.78 67.3635L63.0278 68.9024L64.4272 68.6771ZM65.4601 68.6102L65.3686 67.1958L65.3684 67.1958L65.4601 68.6102ZM73.4806 70.808L72.6104 71.9268L72.6106 71.9269L73.4806 70.808ZM78.116 78.1603L79.4691 77.7384L79.4689 77.738L78.116 78.1603ZM78.4436 79.2111L78.6521 80.613L80.2893 80.3694L79.7967 78.7892L78.4436 79.2111ZM77.3521 79.3735L77.1435 77.9716L77.1429 77.9716L77.3521 79.3735ZM101.248 99.5152L102.631 99.8253L102.631 99.8244L101.248 99.5152ZM96.7379 107.208L97.541 108.376L97.541 108.376L96.7379 107.208ZM87.917 108.394L88.2113 107.007L88.2109 107.007L87.917 108.394ZM86.4997 108.093L85.3495 107.265L84.0792 109.029L86.2058 109.48L86.4997 108.093ZM87.3458 106.918L88.496 107.747L88.4964 107.746L87.3458 106.918ZM88.8486 104.619L87.6444 103.871L87.6444 103.871L88.8486 104.619ZM100.465 98.3754L100.675 96.9738L100.675 96.9737L100.465 98.3754ZM101.469 98.5262L102.852 98.8354L103.184 97.3505L101.68 97.1246L101.469 98.5262ZM95.6733 105.651L96.4762 106.819L96.4764 106.818L95.6733 105.651ZM99.1478 100.123L100.512 100.508L100.981 98.843L99.2568 98.71L99.1478 100.123ZM90.4512 105.612L89.247 104.864L89.2467 104.865L90.4512 105.612ZM89.7149 106.784L88.5231 106.017L87.3014 107.915L89.5415 108.191L89.7149 106.784ZM101.675 84.7891L103.058 85.099L103.058 85.0989L101.675 84.7891ZM97.1654 92.482L96.3624 91.3141L96.3623 91.3142L97.1654 92.482ZM88.3444 93.6676L88.6388 92.2812L88.6384 92.2811L88.3444 93.6676ZM87.266 93.439L85.9415 92.9345L85.352 94.482L86.9721 94.8255L87.266 93.439ZM87.6576 92.411L88.9821 92.9155L88.9822 92.9152L87.6576 92.411ZM92.7354 85.3511L93.5357 86.5209L93.5358 86.5208L92.7354 85.3511ZM100.87 83.6478L101.048 82.2417L101.047 82.2416L100.87 83.6478ZM101.902 83.7784L103.285 84.0883L103.625 82.568L102.08 82.3723L101.902 83.7784ZM96.1007 90.9244L95.2977 89.7565L95.2976 89.7566L96.1007 90.9244ZM99.5674 85.4238L100.931 85.8109L101.418 84.0941L99.6357 84.0081L99.5674 85.4238ZM93.8002 86.9087L94.6006 88.0784L94.6008 88.0783L93.8002 86.9087ZM89.8566 92.0198L88.5621 91.4425L87.7974 93.1572L89.656 93.4228L89.8566 92.0198ZM102.103 70.0631L103.486 70.373L103.486 70.3729L102.103 70.0631ZM97.5928 77.7559L96.7899 76.5879L96.7896 76.5881L97.5928 77.7559ZM88.7719 78.9415L89.0663 77.5551L89.0654 77.5549L88.7719 78.9415ZM87.6935 78.7132L86.369 78.2088L85.7795 79.7568L87.4 80.0998L87.6935 78.7132ZM88.0851 77.6848L89.4097 78.1892L89.4097 78.1891L88.0851 77.6848ZM93.1628 70.6251L93.9631 71.7949L93.9632 71.7948L93.1628 70.6251ZM101.297 68.922L101.475 67.5159L101.475 67.5158L101.297 68.922ZM102.329 69.0524L103.712 69.3622L104.053 67.8417L102.507 67.6463L102.329 69.0524ZM96.5282 76.1984L95.7251 75.0305L95.7249 75.0307L96.5282 76.1984ZM99.9947 70.6976L101.358 71.0846L101.845 69.3678L100.063 69.2819L99.9947 70.6976ZM94.2277 72.1827L95.028 73.3524L95.0281 73.3523L94.2277 72.1827ZM90.284 77.294L88.9896 76.7168L88.2249 78.4316L90.0836 78.6971L90.284 77.294ZM3.31712 54.0752L2.22751 53.1688C1.72691 53.7706 1.80893 54.6642 2.4107 55.1648C3.01247 55.6654 3.90612 55.5834 4.40672 54.9816L3.31712 54.0752ZM64.5017 27.8828L64.7381 29.2803L64.7381 29.2803L64.5017 27.8828ZM90.1782 22.2108L90.646 23.5487C91.0605 23.4037 91.3844 23.0749 91.523 22.6583L90.1782 22.2108ZM98.1424 7.20452L97.0983 6.24607L97.0983 6.24611L98.1424 7.20452ZM107.066 1.54029L107.332 2.93233L107.332 2.9323L107.066 1.54029ZM110.281 1.86109L109.632 3.121L109.632 3.12119L110.281 1.86109ZM112.189 4.8484L110.777 4.97968L110.778 4.98031L112.189 4.8484ZM109.007 13.321L110.204 14.0794L110.205 14.0793L109.007 13.321ZM93.1508 25.1441L92.6428 23.821C92.2362 23.9771 91.924 24.3115 91.796 24.7278L93.1508 25.1441ZM83.6385 102.114L82.2243 102.019V102.019L83.6385 102.114ZM81.7975 128.18L80.3845 128.07C80.3426 128.604 80.6062 129.117 81.0654 129.394C81.5247 129.671 82.1009 129.665 82.5544 129.379L81.7975 128.18ZM177.48 85.5291C178.203 85.228 178.544 84.3982 178.243 83.6756C177.942 82.9531 177.112 82.6114 176.39 82.9125L176.935 84.2208L177.48 85.5291ZM81.4203 132.868L80.6556 131.675C80.2838 131.913 80.0443 132.311 80.0078 132.751L81.4203 132.868ZM77.4182 168.904L78.8198 169.115V169.115L77.4182 168.904ZM19.8102 243.856L20.0206 242.454H20.0206L19.8102 243.856ZM6.47646 236.567L7.57084 235.667L7.57081 235.667L6.47646 236.567ZM1.84992 215.492L0.448624 215.279L0.448612 215.28L1.84992 215.492ZM15.9374 185.041L17.082 185.877L17.082 185.877L15.9374 185.041ZM77.809 130.731L78.5794 131.92C78.9488 131.681 79.1861 131.284 79.2217 130.845L77.809 130.731ZM79.8741 101.863L78.4599 101.768V101.768L79.8741 101.863ZM88.8414 26.6205L90.2074 26.9984C90.3454 26.4998 90.2007 25.9656 89.8299 25.6047C89.4592 25.2439 88.9212 25.1138 88.4265 25.2652L88.8414 26.6205ZM94.8123 20.3373L93.4916 19.823C93.2813 20.363 93.4209 20.9765 93.8441 21.3724C94.2673 21.7682 94.8887 21.8666 95.4135 21.6209L94.8123 20.3373ZM105.818 11.3133L107.015 12.0718L107.015 12.0716L105.818 11.3133ZM108.439 5.18792L109.85 5.05614C109.847 5.0299 109.844 5.00373 109.84 4.97767L108.439 5.18792ZM108.445 5.18385V6.60118C109.194 6.60118 109.813 6.01947 109.86 5.27265C109.907 4.52583 109.365 3.87123 108.623 3.77764L108.445 5.18385ZM107.774 5.24578L108.041 6.6378L108.043 6.63741L107.774 5.24578ZM100.918 9.75896L99.8735 8.80049L99.8735 8.80058L100.918 9.75896ZM108.462 5.18604L108.671 3.78428C107.923 3.67242 107.219 4.16818 107.071 4.91044C106.924 5.65269 107.386 6.37963 108.121 6.56173L108.462 5.18604ZM108.553 5.21282L109.204 3.95335C109.199 3.95105 109.195 3.94878 109.19 3.94653L108.553 5.21282ZM77.4132 135.469L78.8253 135.59C78.872 135.049 78.6054 134.529 78.1389 134.251C77.6724 133.973 77.0881 133.986 76.6343 134.284L77.4132 135.469ZM18.9783 187.256L20.123 188.091L20.123 188.091L18.9783 187.256ZM5.58486 216.053L4.18356 215.84C4.17657 215.886 4.17186 215.933 4.16944 215.979L5.58486 216.053ZM65.7987 99.9127L64.4142 100.216C65.0223 102.995 66.1732 105.265 68.0537 106.734L68.9263 105.617L69.799 104.501C68.6187 103.578 67.7082 102.009 67.1833 99.6097L65.7987 99.9127ZM68.9263 105.617L68.0536 106.734C69.9229 108.195 72.3547 108.736 75.2055 108.506L75.0915 107.093L74.9775 105.68C72.6004 105.872 70.9465 105.397 69.7991 104.501L68.9263 105.617ZM75.0915 107.093L76.419 106.596C75.4787 104.083 74.148 102.037 72.336 100.628L71.4658 101.746L70.5956 102.865C71.8791 103.863 72.9492 105.411 73.7641 107.59L75.0915 107.093ZM71.4658 101.746L72.3361 100.628C70.5421 99.2321 68.3506 98.5275 65.8166 98.4955L65.7987 99.9127L65.7808 101.33C67.7869 101.355 69.3562 101.901 70.5955 102.865L71.4658 101.746ZM67.7663 107.104L68.6391 105.987C66.892 104.622 65.6836 102.33 65.1357 98.9233L63.7364 99.1484L62.337 99.3735C62.9515 103.193 64.3866 106.261 66.8936 108.22L67.7663 107.104ZM63.7364 99.1484L65.1356 98.9226L64.9712 97.9037L63.5719 98.1295L62.1727 98.3553L62.3371 99.3742L63.7364 99.1484ZM63.5719 98.1295L63.6636 99.5438L64.6968 99.4769L64.6051 98.0625L64.5135 96.6482L63.4803 96.7151L63.5719 98.1295ZM64.6051 98.0625L64.6966 99.4769C67.6515 99.2858 69.9521 99.9762 71.7554 101.379L72.6257 100.26L73.496 99.1417C71.0587 97.2457 68.0423 96.4199 64.5136 96.6482L64.6051 98.0625ZM72.6257 100.26L71.7557 101.379C73.5518 102.776 74.9503 104.967 75.9081 108.035L77.261 107.613L78.614 107.19C77.5421 103.756 75.8814 100.997 73.4957 99.1415L72.6257 100.26ZM77.261 107.613L75.908 108.035L76.2356 109.085L77.5886 108.663L78.9417 108.241L78.6141 107.191L77.261 107.613ZM77.5886 108.663L77.3793 107.261L76.2878 107.424L76.4971 108.826L76.7064 110.228L77.7979 110.065L77.5886 108.663ZM76.4971 108.826L76.288 107.424C72.8398 107.939 70.3808 107.348 68.6392 105.987L67.7663 107.104L66.8935 108.22C69.429 110.202 72.751 110.818 76.7063 110.228L76.4971 108.826ZM66.2262 85.1863L64.8416 85.4892C65.4498 88.2689 66.6006 90.5386 68.4812 92.0079L69.3538 90.8911L70.2264 89.7742C69.0462 88.8521 68.1357 87.2826 67.6108 84.8834L66.2262 85.1863ZM69.3538 90.8911L68.481 92.0078C70.3504 93.4688 72.7821 94.0095 75.633 93.7795L75.519 92.3667L75.405 90.954C73.0279 91.1458 71.3741 90.6712 70.2266 89.7744L69.3538 90.8911ZM75.519 92.3667L76.8465 91.87C75.9062 89.357 74.5755 87.3107 72.7634 85.9014L71.8933 87.0202L71.0232 88.139C72.3065 89.1371 73.3766 90.6852 74.1916 92.8634L75.519 92.3667ZM71.8933 87.0202L72.7636 85.9015C70.9694 84.5057 68.778 83.8012 66.2442 83.7691L66.2262 85.1863L66.2082 86.6035C68.2144 86.629 69.7836 87.1746 71.023 88.1388L71.8933 87.0202ZM68.1938 92.3772L69.0665 91.2604C67.3195 89.8953 66.1115 87.6036 65.5631 84.1973L64.1638 84.4226L62.7645 84.6479C63.3793 88.4672 64.8139 91.5349 67.3211 93.494L68.1938 92.3772ZM64.1638 84.4226L65.5631 84.197L65.3987 83.1775L63.9994 83.4031L62.6002 83.6287L62.7645 84.6482L64.1638 84.4226ZM63.9994 83.4031L64.0909 84.8175L65.1241 84.7507L65.0326 83.3363L64.9412 81.9219L63.908 81.9887L63.9994 83.4031ZM65.0326 83.3363L65.1241 84.7507C68.0789 84.5595 70.3796 85.25 72.1829 86.6527L73.0531 85.534L73.9234 84.4153C71.4861 82.5194 68.4698 81.6936 64.9411 81.9219L65.0326 83.3363ZM73.0531 85.534L72.1831 86.6529C73.9792 88.0497 75.378 90.2408 76.3355 93.3087L77.6885 92.8865L79.0414 92.4642C77.9698 89.0305 76.3089 86.2704 73.9232 84.4152L73.0531 85.534ZM77.6885 92.8865L76.3354 93.3083L76.663 94.359L78.0161 93.9371L79.3691 93.5152L79.0416 92.4646L77.6885 92.8865ZM78.0161 93.9371L77.8073 92.5352L76.7159 92.6977L76.9246 94.0996L77.1334 95.5015L78.2248 95.339L78.0161 93.9371ZM76.9246 94.0996L76.7155 92.6978C73.2673 93.2121 70.8082 92.622 69.0667 91.2606L68.1938 92.3772L67.3209 93.4939C69.8564 95.4759 73.1785 96.0914 77.1337 95.5014L76.9246 94.0996ZM66.6541 70.4603L65.2695 70.763C65.8773 73.543 67.0286 75.8124 68.9083 77.2821L69.7813 76.1655L70.6543 75.0489C69.474 74.1261 68.5632 72.5563 68.0387 70.1576L66.6541 70.4603ZM69.7813 76.1655L68.9087 77.2824C70.778 78.7427 73.2096 79.2833 76.0607 79.0534L75.9468 77.6407L75.8329 76.2279C73.4554 76.4196 71.8014 75.9451 70.6538 75.0486L69.7813 76.1655ZM75.9468 77.6407L77.2742 77.144C76.3339 74.6308 75.0029 72.5846 73.1909 71.1754L72.3207 72.2942L71.4506 73.413C72.7341 74.4111 73.8044 75.9593 74.6193 78.1373L75.9468 77.6407ZM72.3207 72.2942L73.191 71.1755C71.3969 69.7798 69.206 69.0751 66.672 69.0431L66.6541 70.4603L66.6362 71.8775C68.6422 71.9028 70.211 72.4486 71.4505 73.4128L72.3207 72.2942ZM68.6213 77.6516L69.4941 76.535C67.747 75.1693 66.539 72.8775 65.9906 69.4712L64.5913 69.6964L63.192 69.9217C63.8068 73.7412 65.2415 76.8087 67.7484 78.7683L68.6213 77.6516ZM64.5913 69.6964L65.9906 69.4711L65.8265 68.4518L64.4272 68.6771L63.0278 68.9024L63.192 69.9218L64.5913 69.6964ZM64.4272 68.6771L64.5188 70.0915L65.5517 70.0245L65.4601 68.6102L65.3684 67.1958L64.3355 67.2627L64.4272 68.6771ZM65.4601 68.6102L65.5516 70.0245C68.5063 69.8334 70.8071 70.524 72.6104 71.9268L73.4806 70.808L74.3509 69.6893C71.9136 67.7934 68.8973 66.9675 65.3686 67.1958L65.4601 68.6102ZM73.4806 70.808L72.6106 71.9269C74.4068 73.3237 75.8055 75.5147 76.763 78.5825L78.116 78.1603L79.4689 77.738C78.3973 74.3043 76.7364 71.5444 74.3507 69.6892L73.4806 70.808ZM78.116 78.1603L76.7629 78.5821L77.0904 79.6329L78.4436 79.2111L79.7967 78.7892L79.4691 77.7384L78.116 78.1603ZM78.4436 79.2111L78.235 77.8092L77.1435 77.9716L77.3521 79.3735L77.5607 80.7754L78.6521 80.613L78.4436 79.2111ZM77.3521 79.3735L77.1429 77.9716C73.6947 78.4861 71.2356 77.896 69.4941 76.5349L68.6213 77.6516L67.7485 78.7684C70.284 80.7499 73.606 81.3654 77.5612 80.7753L77.3521 79.3735ZM101.248 99.5152L99.8651 99.2052C99.111 102.569 97.7642 104.782 95.9349 106.04L96.7379 107.208L97.541 108.376C100.164 106.572 101.785 103.6 102.631 99.8253L101.248 99.5152ZM96.7379 107.208L95.9349 106.04C94.1136 107.293 91.6224 107.731 88.2113 107.007L87.917 108.394L87.6228 109.78C91.5348 110.61 94.889 110.199 97.541 108.376L96.7379 107.208ZM87.917 108.394L88.2109 107.007L86.7935 106.707L86.4997 108.093L86.2058 109.48L87.6231 109.78L87.917 108.394ZM86.4997 108.093L87.6498 108.922L88.496 107.747L87.3458 106.918L86.1957 106.09L85.3495 107.265L86.4997 108.093ZM87.3458 106.918L88.4964 107.746C89.0763 106.94 89.5837 106.122 90.0529 105.366L88.8486 104.619L87.6444 103.871C87.1687 104.638 86.71 105.375 86.1952 106.091L87.3458 106.918ZM88.8486 104.619L90.0528 105.366C91.2699 103.405 92.2613 101.846 93.7074 100.825C95.0636 99.8674 96.9832 99.2866 100.255 99.7771L100.465 98.3754L100.675 96.9737C96.865 96.4026 94.1616 97.0342 92.0725 98.5092C90.0734 99.9207 88.7975 102.014 87.6444 103.871L88.8486 104.619ZM100.465 98.3754L100.255 99.777L101.259 99.9278L101.469 98.5262L101.68 97.1246L100.675 96.9738L100.465 98.3754ZM101.469 98.5262L100.086 98.217L99.8649 99.2061L101.248 99.5152L102.631 99.8244L102.852 98.8354L101.469 98.5262ZM95.6733 105.651L96.4764 106.818C98.4474 105.463 99.7361 103.259 100.512 100.508L99.1478 100.123L97.7837 99.7384C97.1134 102.115 96.1066 103.632 94.8702 104.483L95.6733 105.651ZM99.1478 100.123L99.2568 98.71C96.4186 98.491 94.3552 99.1775 92.7382 100.463C91.2055 101.681 90.1697 103.378 89.247 104.864L90.4512 105.612L91.6554 106.359C92.6345 104.782 93.4236 103.539 94.5021 102.682C95.4962 101.892 96.8303 101.366 99.0388 101.536L99.1478 100.123ZM90.4512 105.612L89.2467 104.865C89.0041 105.256 88.7669 105.638 88.5231 106.017L89.7149 106.784L90.9066 107.551C91.1655 107.149 91.4153 106.746 91.6556 106.359L90.4512 105.612ZM89.7149 106.784L89.5415 108.191C92.2418 108.524 94.5945 108.112 96.4762 106.819L95.6733 105.651L94.8703 104.483C93.7142 105.277 92.114 105.652 89.8883 105.377L89.7149 106.784ZM101.675 84.7891L100.292 84.4792C99.5383 87.8426 98.1913 90.0566 96.3624 91.3141L97.1654 92.482L97.9684 93.65C100.591 91.8467 102.212 88.8729 103.058 85.099L101.675 84.7891ZM97.1654 92.482L96.3623 91.3142C94.5413 92.5665 92.0498 93.0055 88.6388 92.2812L88.3444 93.6676L88.05 95.0541C91.9622 95.8847 95.3169 95.4734 97.9685 93.6499L97.1654 92.482ZM88.3444 93.6676L88.6384 92.2811L87.56 92.0525L87.266 93.439L86.9721 94.8255L88.0505 95.0542L88.3444 93.6676ZM87.266 93.439L88.5905 93.9435L88.9821 92.9155L87.6576 92.411L86.3331 91.9064L85.9415 92.9345L87.266 93.439ZM87.6576 92.411L88.9822 92.9152C90.1267 89.9089 91.6567 87.8064 93.5357 86.5209L92.7354 85.3511L91.9351 84.1814C89.4397 85.8886 87.6136 88.5429 86.333 91.9067L87.6576 92.411ZM92.7354 85.3511L93.5358 86.5208C95.4198 85.2315 97.7573 84.6835 100.692 85.054L100.87 83.6478L101.047 82.2416C97.5425 81.7992 94.4822 82.4382 91.9349 84.1815L92.7354 85.3511ZM100.87 83.6478L100.692 85.0539L101.723 85.1845L101.902 83.7784L102.08 82.3723L101.048 82.2417L100.87 83.6478ZM101.902 83.7784L100.518 83.4686L100.292 84.4793L101.675 84.7891L103.058 85.0989L103.285 84.0883L101.902 83.7784ZM96.1007 90.9244L96.9037 92.0924C98.868 90.7418 100.154 88.5471 100.931 85.8109L99.5674 85.4238L98.2039 85.0367C97.5331 87.3996 96.5294 88.9097 95.2977 89.7565L96.1007 90.9244ZM99.5674 85.4238L99.6357 84.0081C97.1053 83.8861 94.8748 84.4555 92.9995 85.7392L93.8002 86.9087L94.6008 88.0783C95.8957 87.1918 97.4954 86.7428 99.4991 86.8395L99.5674 85.4238ZM93.8002 86.9087L92.9997 85.7391C91.1059 87.0351 89.6538 88.9945 88.5621 91.4425L89.8566 92.0198L91.151 92.597C92.0972 90.4754 93.2589 88.9965 94.6006 88.0784L93.8002 86.9087ZM89.8566 92.0198L89.656 93.4228C92.4875 93.8275 94.9489 93.4367 96.9038 92.0923L96.1007 90.9244L95.2976 89.7566C94.0981 90.5815 92.4179 90.9541 90.0571 90.6167L89.8566 92.0198ZM102.103 70.0631L100.72 69.7531C99.9658 73.1166 98.6188 75.3306 96.7899 76.5879L97.5928 77.7559L98.3958 78.9238C101.019 77.1206 102.64 74.1469 103.486 70.373L102.103 70.0631ZM97.5928 77.7559L96.7896 76.5881C94.9688 77.8406 92.4775 78.2794 89.0663 77.5551L88.7719 78.9415L88.4775 80.3279C92.3896 81.1586 95.7444 80.7477 98.3961 78.9236L97.5928 77.7559ZM88.7719 78.9415L89.0654 77.5549L87.987 77.3266L87.6935 78.7132L87.4 80.0998L88.4784 80.3281L88.7719 78.9415ZM87.6935 78.7132L89.0181 79.2176L89.4097 78.1892L88.0851 77.6848L86.7606 77.1804L86.369 78.2088L87.6935 78.7132ZM88.0851 77.6848L89.4097 78.1891C90.5542 75.1828 92.0842 73.0803 93.9631 71.7949L93.1628 70.6251L92.3626 69.4553C89.8671 71.1624 88.0411 73.817 86.7605 77.1805L88.0851 77.6848ZM93.1628 70.6251L93.9632 71.7948C95.8473 70.5057 98.1849 69.9575 101.12 70.3282L101.297 68.922L101.475 67.5158C97.9699 67.0732 94.9096 67.7125 92.3625 69.4554L93.1628 70.6251ZM101.297 68.922L101.119 70.3281L102.151 70.4585L102.329 69.0524L102.507 67.6463L101.475 67.5159L101.297 68.922ZM102.329 69.0524L100.946 68.7426L100.72 69.7533L102.103 70.0631L103.486 70.3729L103.712 69.3622L102.329 69.0524ZM96.5282 76.1984L97.3312 77.3663C99.2955 76.0156 100.581 73.8215 101.358 71.0846L99.9947 70.6976L98.6312 70.3106C97.9605 72.6739 96.9569 74.1836 95.7251 75.0305L96.5282 76.1984ZM99.9947 70.6976L100.063 69.2819C97.5325 69.16 95.3022 69.7297 93.4272 71.013L94.2277 72.1827L95.0281 73.3523C96.3232 72.466 97.923 72.0168 99.9265 72.1133L99.9947 70.6976ZM94.2277 72.1827L93.4273 71.0129C91.5334 72.3089 90.0813 74.2686 88.9896 76.7168L90.284 77.294L91.5785 77.8712C92.5247 75.7493 93.6865 74.2703 95.028 73.3524L94.2277 72.1827ZM90.284 77.294L90.0836 78.6971C92.9149 79.1015 95.3764 78.711 97.3315 77.3661L96.5282 76.1984L95.7249 75.0307C94.5256 75.8557 92.8455 76.2281 90.4845 75.8909L90.284 77.294ZM3.31712 54.0752L4.40672 54.9816C19.3502 37.0183 42.9622 32.9647 64.7381 29.2803L64.5017 27.8828L64.2652 26.4853C42.7142 30.1317 17.9549 34.2631 2.22752 53.1688L3.31712 54.0752ZM64.5017 27.8828L64.7381 29.2803C74.1122 27.6941 83.1562 26.1679 90.646 23.5487L90.1782 22.2108L89.7103 20.8729C82.4932 23.3968 73.7085 24.8875 64.2652 26.4854L64.5017 27.8828ZM90.1782 22.2108L91.523 22.6583C93.6031 16.4071 96.1208 11.5031 99.1866 8.16292L98.1424 7.20452L97.0983 6.24611C93.6497 10.0033 90.9736 15.3313 88.8333 21.7633L90.1782 22.2108ZM98.1424 7.20452L99.1866 8.16296C101.826 5.28719 105.126 3.35489 107.332 2.93233L107.066 1.54029L106.799 0.148256C103.812 0.72036 100.003 3.08158 97.0983 6.24607L98.1424 7.20452ZM107.066 1.54029L107.332 2.9323C108.334 2.74036 109.095 2.84458 109.632 3.121L110.281 1.86109L110.93 0.601189C109.67 -0.0482572 108.22 -0.124042 106.799 0.148288L107.066 1.54029ZM110.281 1.86109L109.632 3.12119C110.261 3.44491 110.684 3.97933 110.777 4.97968L112.189 4.8484L113.6 4.71712C113.423 2.8164 112.473 1.39594 110.93 0.600998L110.281 1.86109ZM112.189 4.8484L110.778 4.98031C110.899 6.2827 110.253 8.7051 107.81 12.5626L109.007 13.321L110.205 14.0793C112.709 10.1254 113.814 7.01143 113.6 4.71649L112.189 4.8484ZM109.007 13.321L107.81 12.5625C104.493 17.7988 99.2706 21.2762 92.6428 23.821L93.1508 25.1441L93.6589 26.4673C100.61 23.7984 106.444 20.0157 110.204 14.0794L109.007 13.321ZM93.1508 25.1441L91.796 24.7278C86.1483 43.107 84.2439 71.7701 82.2243 102.019L83.6385 102.114L85.0527 102.208C87.0826 71.8038 88.9787 43.5463 94.5056 25.5605L93.1508 25.1441ZM83.6385 102.114L82.2243 102.019C81.6502 110.622 81.0663 119.364 80.3845 128.07L81.7975 128.18L83.2105 128.291C83.8938 119.567 84.4787 110.808 85.0527 102.208L83.6385 102.114ZM81.7975 128.18L82.5544 129.379C106.724 114.113 138.817 101.639 177.48 85.5291L176.935 84.2208L176.39 82.9125C137.875 98.9613 105.471 111.552 81.0406 126.982L81.7975 128.18ZM176.935 84.2208L176.39 82.9125C136.632 99.479 105.195 115.949 80.6556 131.675L81.4203 132.868L82.1851 134.062C106.56 118.441 137.844 102.045 177.48 85.5291L176.935 84.2208ZM81.4203 132.868L80.0078 132.751C78.9879 145.06 77.7403 157.213 76.0165 168.694L77.4182 168.904L78.8198 169.115C80.5565 157.548 81.8103 145.326 82.8328 132.985L81.4203 132.868ZM77.4182 168.904L76.0165 168.694C72.6242 191.285 67.4045 211.139 58.6019 224.638C54.2153 231.365 48.9724 236.46 42.6699 239.555C36.378 242.644 28.9251 243.791 20.0206 242.454L19.8102 243.856L19.5997 245.257C28.9931 246.668 37.0407 245.477 43.9192 242.099C50.7872 238.727 56.3848 233.227 60.9763 226.186C70.1297 212.15 75.4161 191.781 78.8198 169.115L77.4182 168.904ZM19.8102 243.856L20.0206 242.454C14.875 241.682 10.5864 239.331 7.57084 235.667L6.47646 236.567L5.38209 237.468C8.88306 241.722 13.8264 244.391 19.5997 245.257L19.8102 243.856ZM6.47646 236.567L7.57081 235.667C3.79102 231.074 1.94549 224.313 3.25122 215.705L1.84992 215.492L0.448612 215.28C-0.950195 224.501 0.984568 232.125 5.38212 237.468L6.47646 236.567ZM1.84992 215.492L3.25121 215.705C4.51645 207.366 8.76497 197.266 17.082 185.877L15.9374 185.041L14.7927 184.205C6.29165 195.846 1.80098 206.367 0.448624 215.279L1.84992 215.492ZM15.9374 185.041L17.082 185.877C28.687 169.984 48.2537 151.56 78.5794 131.92L77.809 130.731L77.0386 129.541C46.5213 149.305 26.6616 167.952 14.7927 184.205L15.9374 185.041ZM77.809 130.731L79.2217 130.845C80.0038 121.197 80.6526 111.48 81.2882 101.957L79.8741 101.863L78.4599 101.768C77.824 111.294 77.1766 120.991 76.3963 130.616L77.809 130.731ZM79.8741 101.863L81.2882 101.957C83.2332 72.8204 85.0588 45.6066 90.2074 26.9984L88.8414 26.6205L87.4754 26.2425C82.2312 45.1959 80.3966 72.7551 78.4599 101.768L79.8741 101.863ZM88.8414 26.6205L88.4265 25.2652C81.6479 27.3402 74.2224 28.5702 66.5148 29.6267C58.8448 30.678 50.8539 31.5617 43.1214 32.9436C27.6392 35.7105 12.7323 40.5409 2.22751 53.1688L3.31712 54.0752L4.40673 54.9816C14.2535 43.1447 28.3217 38.4681 43.6201 35.7341C51.2779 34.3655 59.1288 33.5002 66.8997 32.4351C74.6331 31.3751 82.2477 30.1211 89.2562 27.9757L88.8414 26.6205ZM94.8123 20.3373L95.4135 21.6209C100.277 19.3431 104.324 16.3198 107.015 12.0718L105.818 11.3133L104.621 10.5549C102.307 14.2076 98.7588 16.9239 94.2112 19.0538L94.8123 20.3373ZM105.818 11.3133L107.015 12.0716C108.034 10.4638 108.758 9.11658 109.219 8.00557C109.663 6.93443 109.931 5.92566 109.85 5.05614L108.439 5.18792L107.027 5.31969C107.043 5.48684 106.994 5.9715 106.601 6.91926C106.224 7.82716 105.59 9.02428 104.62 10.555L105.818 11.3133ZM108.439 5.18792L109.84 4.97767C109.885 5.27919 109.834 5.60655 109.664 5.8988C109.505 6.17142 109.292 6.33228 109.134 6.42096C108.841 6.58497 108.571 6.60118 108.445 6.60118V5.18385V3.76651C108.315 3.76651 108.042 3.78343 107.747 3.9488C107.588 4.03816 107.373 4.19988 107.214 4.47351C107.043 4.76677 106.992 5.09531 107.037 5.39816L108.439 5.18792ZM108.445 5.18385L108.623 3.77764C108.24 3.72939 107.818 3.79383 107.505 3.85414L107.774 5.24578L108.043 6.63741C108.162 6.61433 108.247 6.60262 108.3 6.59765C108.326 6.59523 108.338 6.59511 108.336 6.59512C108.336 6.59512 108.329 6.59517 108.319 6.59465C108.309 6.59415 108.291 6.59297 108.268 6.59005L108.445 5.18385ZM107.774 5.24578L107.507 3.85376C105.198 4.29619 102.223 6.24143 99.8735 8.80049L100.918 9.75896L101.962 10.7174C104.099 8.38956 106.565 6.92043 108.041 6.6378L107.774 5.24578ZM100.918 9.75896L99.8735 8.80058C97.3274 11.5746 95.2395 15.3344 93.4916 19.823L94.8123 20.3373L96.1331 20.8516C97.8094 16.5466 99.7396 13.1385 101.962 10.7173L100.918 9.75896ZM108.462 5.18604L108.121 6.56173C108.047 6.54355 107.987 6.51921 108.056 6.5445C108.061 6.54634 108.08 6.55327 108.1 6.56029C108.109 6.56351 108.133 6.57158 108.162 6.58043C108.177 6.58481 108.204 6.59274 108.239 6.60104C108.26 6.60615 108.345 6.62657 108.455 6.63557C108.504 6.63955 108.634 6.6485 108.798 6.62193C108.896 6.60599 109.404 6.52099 109.745 6.01704C110.159 5.40506 109.942 4.80138 109.845 4.60284C109.745 4.39531 109.617 4.26478 109.578 4.22552C109.482 4.12857 109.393 4.06793 109.376 4.05598C109.343 4.03299 109.315 4.01608 109.301 4.00742C109.253 3.97852 109.21 3.95649 109.204 3.95335L108.553 5.21282L107.903 6.47229C107.902 6.4717 107.897 6.46883 107.889 6.46442C107.883 6.46142 107.862 6.45022 107.836 6.43405C107.823 6.42619 107.796 6.40998 107.764 6.38756C107.747 6.37618 107.659 6.316 107.563 6.21942C107.525 6.18033 107.397 6.04995 107.296 5.84255C107.2 5.64413 106.983 5.04055 107.397 4.42865C107.738 3.92477 108.246 3.83982 108.344 3.82391C108.507 3.79737 108.637 3.80632 108.686 3.81028C108.795 3.81923 108.879 3.83951 108.9 3.84441C108.933 3.85247 108.959 3.8601 108.973 3.86409C109 3.87216 109.02 3.87913 109.025 3.88098C109.038 3.88527 109.046 3.88839 109.039 3.88577C109.035 3.88435 109.004 3.87262 108.974 3.86217C108.951 3.85425 108.883 3.83037 108.803 3.81036L108.462 5.18604ZM108.553 5.21282L109.19 3.94653C108.998 3.8499 108.814 3.80567 108.671 3.78428L108.462 5.18604L108.252 6.58781C108.184 6.57762 108.061 6.55174 107.917 6.4791L108.553 5.21282ZM77.4132 135.469L76.6343 134.284C47.9533 153.15 29.1626 170.905 17.8337 186.42L18.9783 187.256L20.123 188.091C31.1937 172.93 49.6988 155.395 78.1921 136.653L77.4132 135.469ZM18.9783 187.256L17.8337 186.42C9.72878 197.519 5.45363 207.468 4.18356 215.84L5.58486 216.053L6.98616 216.266C8.16809 208.475 12.1966 198.946 20.123 188.091L18.9783 187.256ZM5.58486 216.053L4.16944 215.979C3.90956 220.979 4.74279 225.049 6.56059 228.087C8.399 231.16 11.1841 233.071 14.569 233.803C21.2204 235.241 29.9697 232.115 38.711 225.177C56.3085 211.208 74.9082 181.034 78.8253 135.59L77.4132 135.469L76.0012 135.347C72.1373 180.172 53.821 209.563 36.9487 222.956C28.4551 229.698 20.581 232.203 15.1681 231.032C12.521 230.46 10.4137 229.006 8.9931 226.632C7.55184 224.223 6.75927 220.763 7.00028 216.126L5.58486 216.053Z" fill="#525171"/>
</svg>
