<?xml version="1.0" encoding="UTF-8" standalone="no"?>
<svg
   xmlns:dc="http://purl.org/dc/elements/1.1/"
   xmlns:cc="http://creativecommons.org/ns#"
   xmlns:rdf="http://www.w3.org/1999/02/22-rdf-syntax-ns#"
   xmlns:svg="http://www.w3.org/2000/svg"
   xmlns="http://www.w3.org/2000/svg"
   viewBox="0 0 793.70081 1122.5197"
   height="1122.5197"
   width="793.70081"
   xml:space="preserve"
   id="svg2"
   version="1.1"><metadata
     id="metadata8"><rdf:RDF><cc:Work
         rdf:about=""><dc:format>image/svg+xml</dc:format><dc:type
           rdf:resource="http://purl.org/dc/dcmitype/StillImage" /></cc:Work></rdf:RDF></metadata><defs
     id="defs6" /><g
     transform="matrix(1.3333333,0,0,-1.3333333,0,1122.5197)"
     id="g10"><path
       id="path12"
       style="fill:#525171;fill-opacity:1;fill-rule:evenodd;stroke:none"
       d="m 1.6608,842.4876 h 591.954 V 1.3952 H 1.6608 Z" /><path
       id="path14"
       style="fill:#525171;fill-opacity:1;fill-rule:evenodd;stroke:none"
       d="m 259.5932,63.8765 c 7.3151,0 13.2451,-5.9301 13.2451,-13.2452 0,-7.3151 -5.93,-13.2452 -13.2451,-13.2452 -7.3151,0 -13.2452,5.9301 -13.2452,13.2452 0,7.3151 5.9301,13.2452 13.2452,13.2452" /><path
       id="path16"
       style="fill:#e7dbc0;fill-opacity:1;fill-rule:evenodd;stroke:none"
       d="m 297.6378,63.8765 c 7.3151,0 13.2452,-5.9301 13.2452,-13.2452 0,-7.3151 -5.9301,-13.2452 -13.2452,-13.2452 -7.3151,0 -13.2452,5.9301 -13.2452,13.2452 0,7.3151 5.9301,13.2452 13.2452,13.2452" /><path
       id="path18"
       style="fill:#a49267;fill-opacity:1;fill-rule:evenodd;stroke:none"
       d="m 335.6824,63.8765 c 7.3151,0 13.2452,-5.9301 13.2452,-13.2452 0,-7.3151 -5.9301,-13.2452 -13.2452,-13.2452 -7.3151,0 -13.2451,5.9301 -13.2451,13.2452 0,7.3151 5.93,13.2452 13.2451,13.2452" /><path
       id="path20"
       style="fill:#e7dbc0;fill-opacity:1;fill-rule:evenodd;stroke:none"
       d="m 568.1957,33.0718 v -1.9891 h 5.3143 v 0.5619 h -1.6778 v 1.4272 c 0,1.3516 -0.6834,2.1713 -1.8144,2.1713 -1.139,0 -1.8221,-0.8197 -1.8221,-2.1713 z m 3.143,-0.015 v -1.4122 h -2.6572 v 1.4122 c 0,1.0627 0.4859,1.6245 1.3363,1.6245 0.8351,0 1.3209,-0.5618 1.3209,-1.6245" /><path
       id="path22"
       style="fill:#e7dbc0;fill-opacity:1;fill-rule:evenodd;stroke:none"
       d="m 573.5557,44.8245 c 0,1.5942 -1.1466,2.7862 -2.7028,2.7862 -1.5566,0 -2.7029,-1.192 -2.7029,-2.7862 0,-1.6095 1.154,-2.7938 2.7029,-2.7938 1.5488,0 2.7028,1.1843 2.7028,2.7938 z m -0.5012,0 c 0,-1.2829 -0.9337,-2.2396 -2.2016,-2.2396 -1.268,0 -2.2017,0.9567 -2.2017,2.2396 0,1.2753 0.9337,2.2244 2.2017,2.2244 1.2679,0 2.2016,-0.9491 2.2016,-2.2244" /><path
       id="path24"
       style="fill:#e7dbc0;fill-opacity:1;fill-rule:evenodd;stroke:none"
       d="m 573.51,59.0822 -1.8221,-1.2982 c -0.2505,0.7744 -0.835,1.2146 -1.6701,1.2146 -1.139,0 -1.8221,-0.8198 -1.8221,-2.1713 V 54.8382 H 573.51 V 55.4 h -1.6854 v 1.4273 c 0,0.1519 -0.008,0.2885 -0.0227,0.4252 l 1.7081,1.2149 z m -2.1636,-2.2699 V 55.4 h -2.6649 v 1.4123 c 0,1.0627 0.4859,1.6245 1.3363,1.6245 0.8351,0 1.3286,-0.5618 1.3286,-1.6245 z m 2.1636,13.4603 v 3.5379 h -0.4858 v -2.9761 h -4.8285 v -0.5618 z" /><path
       id="path26"
       style="fill:#e7dbc0;fill-opacity:1;fill-rule:evenodd;stroke:none"
       d="m 573.5557,82.7541 c 0,1.3589 -0.7897,2.179 -2.3156,2.179 h -3.0444 v -0.5468 h 3.0217 c 1.2603,0 1.8371,-0.5922 1.8371,-1.6322 0,-1.0324 -0.5768,-1.6246 -1.8371,-1.6246 h -3.0217 v -0.5618 h 3.0444 c 1.5259,0 2.3156,0.8274 2.3156,2.1864" /><path
       id="path28"
       style="fill:#e7dbc0;fill-opacity:1;fill-rule:evenodd;stroke:none"
       d="m 573.0242,92.8213 -4.4413,3.515 h -0.3872 v -4.2134 h 0.4858 v 3.4696 l 4.4413,-3.5229 h 0.3872 v 4.358 h -0.4858 z" /><path
       id="path30"
       style="fill:#e7dbc0;fill-opacity:1;fill-rule:evenodd;stroke:none"
       d="m 573.51,103.5028 v 0.5619 h -5.3143 v -0.5619 z" /><path
       id="path32"
       style="fill:#e7dbc0;fill-opacity:1;fill-rule:evenodd;stroke:none"
       d="m 573.51,115.7335 v 0.5921 l -5.3143,-2.4295 v -0.5542 l 5.3143,-2.4293 v 0.5845 l -1.4195,0.6378 v 2.9608 z m -1.8751,-3.3937 -2.8547,1.2753 2.8547,1.2756 z m -0.8657,18.1599 c -0.1973,0.4859 -0.5998,0.8121 -1.207,0.8121 -0.8654,0 -1.3665,-0.6831 -1.3665,-1.8674 v -2.293 h 5.3143 v 2.4446 c 0,1.3286 -0.5161,1.9968 -1.4195,1.9968 -0.7215,0 -1.1693,-0.4099 -1.3213,-1.0931 z m -2.1104,-1.0933 c 0,0.8504 0.3263,1.3436 0.9641,1.3436 0.6378,0 0.9643,-0.4932 0.9643,-1.3436 v -1.6931 h -1.9284 z m 4.3881,0.1823 v -1.8754 h -1.9968 v 1.8754 c 0,0.9337 0.3039,1.4422 0.9947,1.4422 0.6985,0 1.0021,-0.5085 1.0021,-1.4422" /><path
       id="path34"
       style="fill:#e7dbc0;fill-opacity:1;fill-rule:evenodd;stroke:none"
       d="m 573.5557,141.1668 c 0,1.5942 -1.1466,2.7861 -2.7028,2.7861 -1.5566,0 -2.7029,-1.1919 -2.7029,-2.7861 0,-1.6095 1.154,-2.7939 2.7029,-2.7939 1.5488,0 2.7028,1.1844 2.7028,2.7939 z m -0.5012,0 c 0,-1.283 -0.9337,-2.2397 -2.2016,-2.2397 -1.268,0 -2.2017,0.9567 -2.2017,2.2397 0,1.2753 0.9337,2.2243 2.2017,2.2243 1.2679,0 2.2016,-0.949 2.2016,-2.2243" /><path
       id="path36"
       style="fill:#e7dbc0;fill-opacity:1;fill-rule:evenodd;stroke:none"
       d="m 573.51,151.1807 v 3.5379 h -0.4858 v -2.976 h -4.8285 v -0.5619 z" /><path
       id="path38"
       style="fill:#e7dbc0;fill-opacity:1;fill-rule:evenodd;stroke:none"
       d="m 573.5557,163.0242 c 0,1.3592 -0.6681,1.9817 -1.4502,1.9817 -1.9361,0 -1.0554,-3.2724 -2.5129,-3.2724 -0.5315,0 -0.9641,0.4329 -0.9641,1.4046 0,0.4708 0.144,1.0021 0.4402,1.4576 l -0.4478,0.1899 c -0.2963,-0.4252 -0.4709,-1.0477 -0.4709,-1.6475 0,-1.3513 0.6758,-1.9587 1.4579,-1.9587 1.9661,0 1.0703,3.2723 2.5279,3.2723 0.5239,0 0.9414,-0.4329 0.9414,-1.4275 0,-0.6985 -0.2733,-1.374 -0.6452,-1.7536 l 0.4326,-0.2202 c 0.4102,0.3949 0.6911,1.1767 0.6911,1.9738" /><path
       id="path40"
       style="fill:#e7dbc0;fill-opacity:1;fill-rule:evenodd;stroke:none"
       d="m 573.51,172.1954 v 0.5618 h -5.3143 v -0.5618 z m 0,12.238 v 2.1637 c 0,1.7008 -1.0933,2.8471 -2.6571,2.8471 -1.5639,0 -2.6572,-1.1463 -2.6572,-2.8471 v -2.1637 z m -0.4858,0.5618 h -4.3427 v 1.5715 c 0,1.4123 0.8958,2.3233 2.1714,2.3233 1.2753,0 2.1713,-0.911 2.1713,-2.3233 z" /><path
       id="path42"
       style="fill:#e7dbc0;fill-opacity:1;fill-rule:evenodd;stroke:none"
       d="m 573.0242,197.2338 h -1.9741 v 2.7485 h -0.4782 v -2.7485 h -1.8904 v 3.0824 h -0.4858 v -3.6442 h 5.3143 v 3.7581 h -0.4858 z" /><path
       id="path44"
       style="fill:#e7dbc0;fill-opacity:1;fill-rule:evenodd;stroke:none"
       d="m 573.5557,209.1832 c 0,1.3593 -0.6681,1.9817 -1.4502,1.9817 -1.9361,0 -1.0554,-3.2723 -2.5129,-3.2723 -0.5315,0 -0.9641,0.4329 -0.9641,1.4046 0,0.4708 0.144,1.002 0.4402,1.4576 l -0.4478,0.1899 c -0.2963,-0.4252 -0.4709,-1.0477 -0.4709,-1.6475 0,-1.3513 0.6758,-1.9587 1.4579,-1.9587 1.9661,0 1.0703,3.2723 2.5279,3.2723 0.5239,0 0.9414,-0.4329 0.9414,-1.4276 0,-0.6984 -0.2733,-1.3739 -0.6452,-1.7535 l 0.4326,-0.2202 c 0.4102,0.3948 0.6911,1.1766 0.6911,1.9737" /><path
       id="path46"
       style="fill:#e7dbc0;fill-opacity:1;fill-rule:evenodd;stroke:none"
       d="m 573.51,218.3545 v 0.5618 h -5.3143 v -0.5618 z" /><path
       id="path48"
       style="fill:#e7dbc0;fill-opacity:1;fill-rule:evenodd;stroke:none"
       d="m 572.6446,230.3575 c 0.296,-0.4099 0.4099,-0.8807 0.4099,-1.3893 0,-1.3059 -0.9414,-2.27 -2.2016,-2.27 -1.268,0 -2.2017,0.9641 -2.2017,2.2777 0,0.6225 0.1822,1.154 0.6225,1.6018 l -0.3569,0.3493 c -0.5085,-0.4709 -0.7668,-1.1693 -0.7668,-1.9741 0,-1.6245 1.1463,-2.8088 2.7029,-2.8088 1.5562,0 2.7028,1.1843 2.7028,2.8014 0,0.7365 -0.2279,1.45 -0.6758,1.9511 h -2.027 v -0.5391 z" /><path
       id="path50"
       style="fill:#e7dbc0;fill-opacity:1;fill-rule:evenodd;stroke:none"
       d="m 568.1957,242.3378 h 4.3123 l -4.3123,-3.4239 v -0.4632 h 5.3143 v 0.5618 h -4.3123 l 4.3123,3.4166 v 0.4629 h -5.3143 z" /><path
       id="path52"
       style="fill:#e7dbc0;fill-opacity:1;fill-rule:evenodd;stroke:none"
       d="m 573.0242,251.1519 h -1.9741 v 2.7484 h -0.4782 v -2.7484 h -1.8904 v 3.0824 h -0.4858 V 250.59 h 5.3143 v 3.7582 h -0.4858 z" /><path
       id="path54"
       style="fill:#e7dbc0;fill-opacity:1;fill-rule:evenodd;stroke:none"
       d="m 573.51,265.8804 -1.8221,-1.2983 c -0.2505,0.7745 -0.835,1.2147 -1.6701,1.2147 -1.139,0 -1.8221,-0.8198 -1.8221,-2.1714 v -1.989 h 5.3143 v 0.5618 h -1.6854 v 1.4272 c 0,0.152 -0.008,0.2886 -0.0227,0.4252 l 1.7081,1.215 z m -2.1636,-2.27 v -1.4122 h -2.6649 v 1.4122 c 0,1.0627 0.4859,1.6246 1.3363,1.6246 0.8351,0 1.3286,-0.5619 1.3286,-1.6246" /><text
       id="text58"
       style="font-variant:normal;font-weight:normal;font-size:49.02799988px;font-family:MarisaRegular;-inkscape-font-specification:MarisaRegular;writing-mode:lr-tb;fill:#e7dbc0;fill-opacity:1;fill-rule:nonzero;stroke:none"
       transform="matrix(1,0,0,-1,152.2689,320.7586)"><tspan
         id="tspan56"
         y="0"
         x="0 13.97298 42.752701 71.287102 102.51794 121.93302 149.53578 180.76662 203.7617 231.80571 256.56485 281.32401">JoÃo Colussi</tspan></text>
<text
       id="text62"
       style="font-variant:normal;font-weight:normal;font-size:22.49600029px;font-family:MarisaRegular;-inkscape-font-specification:MarisaRegular;writing-mode:lr-tb;fill:#e7dbc0;fill-opacity:1;fill-rule:nonzero;stroke:none"
       transform="matrix(1,0,0,-1,206.3789,295.9974)"><tspan
         id="tspan60"
         y="0"
         x="0 23.1259 45.936901 67.915298 91.153397 112.2772 134.278 155.85139 168.31419">ADVOCACIA</tspan></text>
<path
       id="path64"
       style="fill:#e7dbc0;fill-opacity:1;fill-rule:nonzero;stroke:none"
       d="m 279.6681,474.2685 c 0.4249,-1.942 1.1979,-3.3817 2.3457,-4.2786 1.1313,-0.8841 2.6634,-1.2648 4.6239,-1.1066 -0.6582,1.7594 -1.5585,3.107 -2.7193,4.0099 -1.1375,0.8849 -2.5478,1.3538 -4.2503,1.3753 z m 1.4757,-5.3932 c -1.5953,1.2467 -2.5866,3.2565 -3.0225,5.9664 l -0.1233,0.7642 0.7749,0.0502 c 2.4313,0.1573 4.4252,-0.4113 6.0154,-1.6484 1.5682,-1.2194 2.7154,-3.0758 3.4765,-5.5142 l 0.2457,-0.7877 -0.8186,-0.1222 c -2.7763,-0.4142 -4.9442,0.038 -6.5481,1.2917" /><path
       id="path66"
       style="fill:#e7dbc0;fill-opacity:1;fill-rule:nonzero;stroke:none"
       d="m 279.9887,485.3132 c 0.4249,-1.9421 1.1979,-3.3818 2.3457,-4.2786 1.1313,-0.8842 2.6634,-1.2649 4.6239,-1.1067 -0.6582,1.7592 -1.5585,3.1071 -2.7193,4.0099 -1.1376,0.885 -2.5478,1.3538 -4.2503,1.3754 z m 1.4757,-5.3932 c -1.5953,1.2466 -2.5863,3.2564 -3.0225,5.966 l -0.1233,0.7646 0.7749,0.0501 c 2.4313,0.1573 4.4252,-0.4113 6.0154,-1.6483 1.5682,-1.2195 2.7156,-3.0762 3.4765,-5.5143 l 0.2457,-0.788 -0.8186,-0.1219 c -2.7763,-0.4141 -4.9442,0.038 -6.5481,1.2918" /><path
       id="path68"
       style="fill:#e7dbc0;fill-opacity:1;fill-rule:nonzero;stroke:none"
       d="m 280.3096,496.3578 c 0.4246,-1.942 1.1979,-3.3817 2.3454,-4.2789 1.1313,-0.8838 2.6634,-1.2645 4.6241,-1.1064 -0.6582,1.7592 -1.5587,3.1071 -2.7195,4.0099 -1.1376,0.885 -2.5475,1.3539 -4.25,1.3754 z m 1.4754,-5.3935 c -1.5953,1.247 -2.5863,3.2567 -3.0225,5.9664 l -0.1231,0.7645 0.7747,0.0502 c 2.4313,0.1573 4.4252,-0.4114 6.0154,-1.6484 1.5682,-1.2195 2.7156,-3.0761 3.4765,-5.5142 l 0.2457,-0.7881 -0.8186,-0.1218 c -2.7763,-0.4142 -4.9442,0.0379 -6.5481,1.2914" /><path
       id="path70"
       style="fill:#e7dbc0;fill-opacity:1;fill-rule:nonzero;stroke:none"
       d="m 306.2551,474.5665 c -0.6001,-2.6768 -1.713,-4.6216 -3.3826,-5.7697 -1.6775,-1.1534 -3.8695,-1.472 -6.6157,-0.8892 l -1.063,0.2253 0.6346,0.8813 c 0.4105,0.5707 0.7728,1.1537 1.1271,1.7246 1.7776,2.8639 3.401,5.4788 8.7123,4.6826 l 0.7531,-0.1131 z m -4.1811,-4.6015 c 1.2028,0.8271 2.0636,2.2226 2.6059,4.1456 -3.7851,0.292 -5.0961,-1.8184 -6.5225,-4.1164 -0.1811,-0.292 -0.3637,-0.5865 -0.5522,-0.8793 1.8473,-0.2277 3.3296,0.0669 4.4688,0.8501" /><path
       id="path72"
       style="fill:#e7dbc0;fill-opacity:1;fill-rule:nonzero;stroke:none"
       d="m 306.5754,485.6111 c -0.5998,-2.6765 -1.7129,-4.6219 -3.3823,-5.7697 -1.6772,-1.1534 -3.8695,-1.4723 -6.6157,-0.8892 l -0.8088,0.1715 0.2937,0.771 c 0.9094,2.3888 2.1679,4.1726 3.8083,5.2949 1.6617,1.1372 3.6859,1.5823 6.1008,1.2775 l 0.7738,-0.098 z m -4.1808,-4.6015 c 1.1985,0.824 2.0571,2.2133 2.6,4.1255 -1.7003,0.082 -3.1366,-0.2999 -4.3254,-1.1137 -1.2133,-0.8303 -2.1935,-2.1197 -2.9577,-3.8333 1.9471,-0.2783 3.5002,0.008 4.6831,0.8215" /><path
       id="path74"
       style="fill:#e7dbc0;fill-opacity:1;fill-rule:nonzero;stroke:none"
       d="m 306.896,496.6557 c -0.5998,-2.6765 -1.7129,-4.6219 -3.3823,-5.7696 -1.6772,-1.1537 -3.8695,-1.4723 -6.6157,-0.8892 l -0.8088,0.1712 0.2937,0.7713 c 0.9094,2.3887 2.1679,4.1726 3.8083,5.2948 1.6617,1.137 3.6859,1.5823 6.1008,1.2773 l 0.7738,-0.0978 z m -4.1808,-4.6015 c 1.1985,0.8241 2.0571,2.213 2.5999,4.1256 -1.7002,0.0819 -3.1365,-0.3002 -4.3253,-1.1138 -1.2133,-0.8302 -2.1935,-2.1197 -2.9577,-3.8335 1.9471,-0.2781 3.5002,0.008 4.6831,0.8217" /><path
       id="path76"
       style="fill:#e7dbc0;fill-opacity:1;fill-rule:nonzero;stroke:#e7dbc0;stroke-width:2.12599993;stroke-linecap:round;stroke-linejoin:round;stroke-miterlimit:22.92558479;stroke-dasharray:none;stroke-opacity:1"
       d="m 232.8069,508.6466 c 11.5016,13.8259 29.6408,16.8953 45.8884,19.6443 7.0565,1.194 13.7423,2.3253 19.2574,4.254 1.5826,4.7562 3.5303,8.5932 5.9732,11.2547 2.0792,2.2651 4.7446,3.8752 6.6923,4.2482 0.9085,0.1741 1.7376,0.1066 2.4114,-0.2406 0.8147,-0.4195 1.3298,-1.1526 1.431,-2.2405 0.1261,-1.349 -0.531,-3.4251 -2.3862,-6.3544 -2.6541,-4.1897 -6.8001,-6.9123 -11.8922,-8.8674 -4.1905,-13.6369 -5.6157,-34.9821 -7.1343,-57.7273 -0.4305,-6.451 -0.8688,-13.0138 -1.3807,-19.5499 18.2251,11.5112 42.4114,20.91 71.3531,32.9697 v 0 c -29.7726,-12.4058 -53.2933,-24.7306 -71.636,-36.4856 -0.7659,-9.2437 -1.7039,-18.3841 -3.0016,-27.0269 -5.097,-33.9432 -15.7592,-60.3351 -43.206,-56.2138 -4.0946,0.6148 -7.5566,2.497 -10.0003,5.4663 -3.0665,3.7258 -4.4841,9.1202 -3.4699,15.8065 0.9816,6.469 4.2588,14.2019 10.5656,22.8385 8.8027,12.0546 23.5876,25.9563 46.4037,40.7327 0.5859,7.2275 1.072,14.5077 1.5488,21.6508 1.4556,21.8063 2.8282,42.3462 6.7255,56.4318 -20.6807,-6.3306 -48.8795,-2.2425 -64.1432,-20.5911 z m 68.6214,25.3034 c 3.5291,1.6529 6.3774,3.8052 8.2542,6.768 1.4907,2.3539 2.0381,3.8166 1.9655,4.5941 -3e-4,0.002 0.002,0.003 0.005,0.003 -0.1063,0.0134 -0.2786,-0.003 -0.5034,-0.0464 -1.4193,-0.2719 -3.46,-1.5523 -5.1423,-3.3849 -1.7881,-1.9482 -3.2953,-4.6363 -4.5794,-7.9339 z m 10.237,11.3635 c 0.0363,-0.009 0.1123,-0.0425 0.0689,-0.0201 -0.0179,0.009 -0.0408,0.0159 -0.0689,0.0201 z M 288.379,447.6016 c -21.4404,-14.1032 -35.4263,-27.337 -43.8262,-38.8403 -6.0117,-8.2327 -9.1256,-15.537 -10.0451,-21.598 -1.5027,-28.9097 48.0356,-7.2635 53.8713,60.4383 z" /></g></svg>