<svg width="179" height="246" viewBox="0 0 179 246" fill="none" xmlns="http://www.w3.org/2000/svg">
<path d="M65.7987 99.9127C66.3653 102.502 67.3959 104.422 68.9263 105.617C70.4347 106.796 72.4775 107.304 75.0915 107.093C74.2139 104.747 73.0135 102.95 71.4658 101.746C69.9491 100.567 68.0687 99.9413 65.7987 99.9127ZM67.7663 107.104C65.6393 105.441 64.3176 102.762 63.7364 99.1484L63.5719 98.1295L64.6051 98.0625C67.8469 97.8528 70.5054 98.611 72.6257 100.26C74.7166 101.886 76.2462 104.361 77.261 107.613L77.5886 108.663L76.4971 108.826C72.7954 109.378 69.9049 108.775 67.7663 107.104Z" fill="#525171"/>
<path d="M66.2262 85.1863C66.7928 87.7758 67.8234 89.6954 69.3538 90.8911C70.8622 92.07 72.905 92.5776 75.519 92.3667C74.6414 90.0211 73.441 88.2239 71.8933 87.0202C70.3765 85.8402 68.4962 85.2151 66.2262 85.1863ZM68.1938 92.3772C66.0667 90.7151 64.7454 88.0354 64.1638 84.4226L63.9994 83.4031L65.0326 83.3363C68.2744 83.1265 70.9329 83.8847 73.0531 85.534C75.1441 87.16 76.6739 89.6357 77.6885 92.8865L78.0161 93.9371L76.9246 94.0996C73.2229 94.6518 70.3323 94.0489 68.1938 92.3772Z" fill="#525171"/>
<path d="M66.6541 70.4603C67.2202 73.0496 68.2513 74.9692 69.7813 76.1655C71.2897 77.3439 73.3325 77.8515 75.9468 77.6407C75.0692 75.2951 73.8685 73.4979 72.3207 72.2942C70.8039 71.1142 68.9241 70.489 66.6541 70.4603ZM68.6213 77.6516C66.4942 75.989 65.1729 73.3094 64.5913 69.6964L64.4272 68.6771L65.4601 68.6102C68.7018 68.4004 71.3604 69.1587 73.4806 70.808C75.5716 72.434 77.1014 74.9095 78.116 78.1603L78.4436 79.2111L77.3521 79.3735C73.6503 79.9257 70.7598 79.323 68.6213 77.6516Z" fill="#525171"/>
<path d="M101.248 99.5152C100.448 103.084 98.9641 105.677 96.7379 107.208C94.5013 108.746 91.5786 109.171 87.917 108.394L86.4997 108.093L87.3458 106.918C87.8932 106.157 88.3762 105.38 88.8486 104.619C91.2188 100.8 93.3833 97.3138 100.465 98.3754L101.469 98.5262L101.248 99.5152ZM95.6733 105.651C97.277 104.548 98.4248 102.687 99.1478 100.123C94.101 99.7338 92.353 102.548 90.4512 105.612C90.2097 106.001 89.9662 106.394 89.7149 106.784C92.1779 107.088 94.1544 106.695 95.6733 105.651Z" fill="#525171"/>
<path d="M101.675 84.7891C100.875 88.3578 99.3913 90.9516 97.1654 92.482C94.9291 94.0199 92.006 94.4451 88.3444 93.6676L87.266 93.439L87.6576 92.411C88.8702 89.2259 90.5482 86.8475 92.7354 85.3511C94.951 83.8348 97.6499 83.2414 100.87 83.6478L101.902 83.7784L101.675 84.7891ZM96.1007 90.9244C97.6987 89.8258 98.8435 87.9734 99.5674 85.4238C97.3003 85.3144 95.3852 85.8237 93.8002 86.9087C92.1824 88.0158 90.8755 89.735 89.8566 92.0198C92.4527 92.3908 94.5235 92.0091 96.1007 90.9244Z" fill="#525171"/>
<path d="M102.103 70.0631C101.303 73.6317 99.8187 76.2256 97.5928 77.7559C95.3566 79.2941 92.4335 79.719 88.7719 78.9415L87.6935 78.7132L88.0851 77.6848C89.2976 74.4999 90.9756 72.1214 93.1628 70.6251C95.3784 69.1091 98.0774 68.5153 101.297 68.922L102.329 69.0524L102.103 70.0631ZM96.5282 76.1984C98.1262 75.0996 99.271 73.2477 99.9947 70.6976C97.7278 70.5884 95.8127 71.0979 94.2277 72.1827C92.6099 73.2896 91.303 75.0089 90.284 77.294C92.8802 77.6648 94.951 77.2833 96.5282 76.1984Z" fill="#525171"/>
<path d="M3.31712 54.0752C18.6526 35.6407 42.8382 31.5482 64.5017 27.8828C73.9103 26.2908 82.8247 24.7824 90.1782 22.2108C92.2883 15.8692 94.8852 10.7532 98.1424 7.20452C100.915 4.18438 104.469 2.03763 107.066 1.54029C108.277 1.30816 109.382 1.39816 110.281 1.86109C111.367 2.42043 112.054 3.39786 112.189 4.8484C112.357 6.64706 111.481 9.41524 109.007 13.321C105.468 18.9072 99.9403 22.5373 93.1508 25.1441C87.5635 43.3267 85.6633 71.7869 83.6385 102.114C83.0645 110.715 82.4801 119.466 81.7975 128.18C106.098 112.832 138.346 100.3 176.935 84.2208C137.238 100.762 105.877 117.195 81.4203 132.868C80.3991 145.193 79.1484 157.38 77.4182 168.904C70.6222 214.162 56.4059 249.351 19.8102 243.856C14.3507 243.036 9.73473 240.527 6.47646 236.567C2.3878 231.6 0.49765 224.407 1.84992 215.492C3.15872 206.867 7.52831 196.556 15.9374 185.041C27.6743 168.968 47.3875 150.432 77.809 130.731C78.5902 121.094 79.2383 111.387 79.8741 101.863C81.8149 72.7877 83.645 45.4012 88.8414 26.6205C61.2671 35.0612 23.6687 29.6104 3.31712 54.0752ZM94.8123 20.3373C99.5178 18.1335 103.316 15.2637 105.818 11.3133C107.806 8.17479 108.535 6.22458 108.439 5.18792C108.438 5.18525 108.441 5.18385 108.445 5.18385C108.304 5.16598 108.074 5.18791 107.774 5.24578C105.882 5.60831 103.161 7.31549 100.918 9.75896C98.5335 12.3566 96.5245 15.9405 94.8123 20.3373ZM108.462 5.18604C108.51 5.19804 108.611 5.24268 108.553 5.21282C108.53 5.20082 108.499 5.19164 108.462 5.18604ZM77.4132 135.469C48.826 154.273 30.1782 171.918 18.9783 187.256C10.9627 198.233 6.81086 207.972 5.58486 216.053C3.58126 254.599 69.6323 225.738 77.4132 135.469Z" fill="#525171"/>
<path d="M65.7987 99.9127L65.8166 98.4955L64.0329 98.4729L64.4142 100.216L65.7987 99.9127ZM68.9263 105.617L69.7991 104.501L69.799 104.501L68.9263 105.617ZM75.0915 107.093L75.2055 108.506L77.0768 108.355L76.419 106.596L75.0915 107.093ZM71.4658 101.746L70.5955 102.865L70.5956 102.865L71.4658 101.746ZM67.7663 107.104L68.6392 105.987L68.6391 105.987L67.7663 107.104ZM63.7364 99.1484L65.1357 98.9233L65.1356 98.9226L63.7364 99.1484ZM63.5719 98.1295L63.4803 96.7151L61.9243 96.8159L62.1727 98.3553L63.5719 98.1295ZM64.6051 98.0625L64.5136 96.6482L64.5135 96.6482L64.6051 98.0625ZM72.6257 100.26L71.7554 101.379L71.7557 101.379L72.6257 100.26ZM77.261 107.613L78.6141 107.191L78.614 107.19L77.261 107.613ZM77.5886 108.663L77.7979 110.065L79.4343 109.82L78.9417 108.241L77.5886 108.663ZM76.4971 108.826L76.7063 110.228L76.7064 110.228L76.4971 108.826ZM66.2262 85.1863L66.2442 83.7691L64.4604 83.7464L64.8416 85.4892L66.2262 85.1863ZM69.3538 90.8911L70.2266 89.7744L70.2264 89.7742L69.3538 90.8911ZM75.519 92.3667L75.633 93.7795L77.5044 93.6284L76.8465 91.87L75.519 92.3667ZM71.8933 87.0202L71.023 88.1388L71.0232 88.139L71.8933 87.0202ZM68.1938 92.3772L69.0667 91.2606L69.0665 91.2604L68.1938 92.3772ZM64.1638 84.4226L65.5631 84.1973L65.5631 84.197L64.1638 84.4226ZM63.9994 83.4031L63.908 81.9887L62.3519 82.0893L62.6002 83.6287L63.9994 83.4031ZM65.0326 83.3363L65.1241 84.7507L65.1241 84.7507L65.0326 83.3363ZM73.0531 85.534L72.1829 86.6527L72.1831 86.6529L73.0531 85.534ZM77.6885 92.8865L79.0416 92.4646L79.0414 92.4642L77.6885 92.8865ZM78.0161 93.9371L78.2248 95.339L79.8618 95.0952L79.3691 93.5152L78.0161 93.9371ZM76.9246 94.0996L76.7159 92.6977L76.7155 92.6978L76.9246 94.0996ZM66.6541 70.4603L66.672 69.0431L64.8885 69.0206L65.2695 70.763L66.6541 70.4603ZM69.7813 76.1655L68.9083 77.2821L68.9087 77.2824L69.7813 76.1655ZM75.9468 77.6407L76.0607 79.0534L77.9322 78.9025L77.2742 77.144L75.9468 77.6407ZM72.3207 72.2942L71.4505 73.4128L71.4506 73.413L72.3207 72.2942ZM68.6213 77.6516L67.7484 78.7683L67.7485 78.7684L68.6213 77.6516ZM64.5913 69.6964L65.9906 69.4712L65.9906 69.4711L64.5913 69.6964ZM64.4272 68.6771L64.3355 67.2627L62.78 67.3635L63.0278 68.9024L64.4272 68.6771ZM65.4601 68.6102L65.3686 67.1958L65.3684 67.1958L65.4601 68.6102ZM73.4806 70.808L72.6104 71.9268L72.6106 71.9269L73.4806 70.808ZM78.116 78.1603L79.4691 77.7384L79.4689 77.738L78.116 78.1603ZM78.4436 79.2111L78.6521 80.613L80.2893 80.3694L79.7967 78.7892L78.4436 79.2111ZM77.3521 79.3735L77.1435 77.9716L77.1429 77.9716L77.3521 79.3735ZM101.248 99.5152L102.631 99.8253L102.631 99.8244L101.248 99.5152ZM96.7379 107.208L97.541 108.376L97.541 108.376L96.7379 107.208ZM87.917 108.394L88.2113 107.007L88.2109 107.007L87.917 108.394ZM86.4997 108.093L85.3495 107.265L84.0792 109.029L86.2058 109.48L86.4997 108.093ZM87.3458 106.918L88.496 107.747L88.4964 107.746L87.3458 106.918ZM88.8486 104.619L87.6444 103.871L87.6444 103.871L88.8486 104.619ZM100.465 98.3754L100.675 96.9738L100.675 96.9737L100.465 98.3754ZM101.469 98.5262L102.852 98.8354L103.184 97.3505L101.68 97.1246L101.469 98.5262ZM95.6733 105.651L96.4762 106.819L96.4764 106.818L95.6733 105.651ZM99.1478 100.123L100.512 100.508L100.981 98.843L99.2568 98.71L99.1478 100.123ZM90.4512 105.612L89.247 104.864L89.2467 104.865L90.4512 105.612ZM89.7149 106.784L88.5231 106.017L87.3014 107.915L89.5415 108.191L89.7149 106.784ZM101.675 84.7891L103.058 85.099L103.058 85.0989L101.675 84.7891ZM97.1654 92.482L96.3624 91.3141L96.3623 91.3142L97.1654 92.482ZM88.3444 93.6676L88.6388 92.2812L88.6384 92.2811L88.3444 93.6676ZM87.266 93.439L85.9415 92.9345L85.352 94.482L86.9721 94.8255L87.266 93.439ZM87.6576 92.411L88.9821 92.9155L88.9822 92.9152L87.6576 92.411ZM92.7354 85.3511L93.5357 86.5209L93.5358 86.5208L92.7354 85.3511ZM100.87 83.6478L101.048 82.2417L101.047 82.2416L100.87 83.6478ZM101.902 83.7784L103.285 84.0883L103.625 82.568L102.08 82.3723L101.902 83.7784ZM96.1007 90.9244L95.2977 89.7565L95.2976 89.7566L96.1007 90.9244ZM99.5674 85.4238L100.931 85.8109L101.418 84.0941L99.6357 84.0081L99.5674 85.4238ZM93.8002 86.9087L94.6006 88.0784L94.6008 88.0783L93.8002 86.9087ZM89.8566 92.0198L88.5621 91.4425L87.7974 93.1572L89.656 93.4228L89.8566 92.0198ZM102.103 70.0631L103.486 70.373L103.486 70.3729L102.103 70.0631ZM97.5928 77.7559L96.7899 76.5879L96.7896 76.5881L97.5928 77.7559ZM88.7719 78.9415L89.0663 77.5551L89.0654 77.5549L88.7719 78.9415ZM87.6935 78.7132L86.369 78.2088L85.7795 79.7568L87.4 80.0998L87.6935 78.7132ZM88.0851 77.6848L89.4097 78.1892L89.4097 78.1891L88.0851 77.6848ZM93.1628 70.6251L93.9631 71.7949L93.9632 71.7948L93.1628 70.6251ZM101.297 68.922L101.475 67.5159L101.475 67.5158L101.297 68.922ZM102.329 69.0524L103.712 69.3622L104.053 67.8417L102.507 67.6463L102.329 69.0524ZM96.5282 76.1984L95.7251 75.0305L95.7249 75.0307L96.5282 76.1984ZM99.9947 70.6976L101.358 71.0846L101.845 69.3678L100.063 69.2819L99.9947 70.6976ZM94.2277 72.1827L95.028 73.3524L95.0281 73.3523L94.2277 72.1827ZM90.284 77.294L88.9896 76.7168L88.2249 78.4316L90.0836 78.6971L90.284 77.294ZM3.31712 54.0752L2.22751 53.1688C1.72691 53.7706 1.80893 54.6642 2.4107 55.1648C3.01247 55.6654 3.90612 55.5834 4.40672 54.9816L3.31712 54.0752ZM64.5017 27.8828L64.7381 29.2803L64.7381 29.2803L64.5017 27.8828ZM90.1782 22.2108L90.646 23.5487C91.0605 23.4037 91.3844 23.0749 91.523 22.6583L90.1782 22.2108ZM98.1424 7.20452L97.0983 6.24607L97.0983 6.24611L98.1424 7.20452ZM107.066 1.54029L107.332 2.93233L107.332 2.9323L107.066 1.54029ZM110.281 1.86109L109.632 3.121L109.632 3.12119L110.281 1.86109ZM112.189 4.8484L110.777 4.97968L110.778 4.98031L112.189 4.8484ZM109.007 13.321L110.204 14.0794L110.205 14.0793L109.007 13.321ZM93.1508 25.1441L92.6428 23.821C92.2362 23.9771 91.924 24.3115 91.796 24.7278L93.1508 25.1441ZM83.6385 102.114L82.2243 102.019V102.019L83.6385 102.114ZM81.7975 128.18L80.3845 128.07C80.3426 128.604 80.6062 129.117 81.0654 129.394C81.5247 129.671 82.1009 129.665 82.5544 129.379L81.7975 128.18ZM177.48 85.5291C178.203 85.228 178.544 84.3982 178.243 83.6756C177.942 82.9531 177.112 82.6114 176.39 82.9125L176.935 84.2208L177.48 85.5291ZM81.4203 132.868L80.6556 131.675C80.2838 131.913 80.0443 132.311 80.0078 132.751L81.4203 132.868ZM77.4182 168.904L78.8198 169.115V169.115L77.4182 168.904ZM19.8102 243.856L20.0206 242.454H20.0206L19.8102 243.856ZM6.47646 236.567L7.57084 235.667L7.57081 235.667L6.47646 236.567ZM1.84992 215.492L0.448624 215.279L0.448612 215.28L1.84992 215.492ZM15.9374 185.041L17.082 185.877L17.082 185.877L15.9374 185.041ZM77.809 130.731L78.5794 131.92C78.9488 131.681 79.1861 131.284 79.2217 130.845L77.809 130.731ZM79.8741 101.863L78.4599 101.768V101.768L79.8741 101.863ZM88.8414 26.6205L90.2074 26.9984C90.3454 26.4998 90.2007 25.9656 89.8299 25.6047C89.4592 25.2439 88.9212 25.1138 88.4265 25.2652L88.8414 26.6205ZM94.8123 20.3373L93.4916 19.823C93.2813 20.363 93.4209 20.9765 93.8441 21.3724C94.2673 21.7682 94.8887 21.8666 95.4135 21.6209L94.8123 20.3373ZM105.818 11.3133L107.015 12.0718L107.015 12.0716L105.818 11.3133ZM108.439 5.18792L109.85 5.05614C109.847 5.0299 109.844 5.00373 109.84 4.97767L108.439 5.18792ZM108.445 5.18385V6.60118C109.194 6.60118 109.813 6.01947 109.86 5.27265C109.907 4.52583 109.365 3.87123 108.623 3.77764L108.445 5.18385ZM107.774 5.24578L108.041 6.6378L108.043 6.63741L107.774 5.24578ZM100.918 9.75896L99.8735 8.80049L99.8735 8.80058L100.918 9.75896ZM108.462 5.18604L108.671 3.78428C107.923 3.67242 107.219 4.16818 107.071 4.91044C106.924 5.65269 107.386 6.37963 108.121 6.56173L108.462 5.18604ZM108.553 5.21282L109.204 3.95335C109.199 3.95105 109.195 3.94878 109.19 3.94653L108.553 5.21282ZM77.4132 135.469L78.8253 135.59C78.872 135.049 78.6054 134.529 78.1389 134.251C77.6724 133.973 77.0881 133.986 76.6343 134.284L77.4132 135.469ZM18.9783 187.256L20.123 188.091L20.123 188.091L18.9783 187.256ZM5.58486 216.053L4.18356 215.84C4.17657 215.886 4.17186 215.933 4.16944 215.979L5.58486 216.053ZM65.7987 99.9127L64.4142 100.216C65.0223 102.995 66.1732 105.265 68.0537 106.734L68.9263 105.617L69.799 104.501C68.6187 103.578 67.7082 102.009 67.1833 99.6097L65.7987 99.9127ZM68.9263 105.617L68.0536 106.734C69.9229 108.195 72.3547 108.736 75.2055 108.506L75.0915 107.093L74.9775 105.68C72.6004 105.872 70.9465 105.397 69.7991 104.501L68.9263 105.617ZM75.0915 107.093L76.419 106.596C75.4787 104.083 74.148 102.037 72.336 100.628L71.4658 101.746L70.5956 102.865C71.8791 103.863 72.9492 105.411 73.7641 107.59L75.0915 107.093ZM71.4658 101.746L72.3361 100.628C70.5421 99.2321 68.3506 98.5275 65.8166 98.4955L65.7987 99.9127L65.7808 101.33C67.7869 101.355 69.3562 101.901 70.5955 102.865L71.4658 101.746ZM67.7663 107.104L68.6391 105.987C66.892 104.622 65.6836 102.33 65.1357 98.9233L63.7364 99.1484L62.337 99.3735C62.9515 103.193 64.3866 106.261 66.8936 108.22L67.7663 107.104ZM63.7364 99.1484L65.1356 98.9226L64.9712 97.9037L63.5719 98.1295L62.1727 98.3553L62.3371 99.3742L63.7364 99.1484ZM63.5719 98.1295L63.6636 99.5438L64.6968 99.4769L64.6051 98.0625L64.5135 96.6482L63.4803 96.7151L63.5719 98.1295ZM64.6051 98.0625L64.6966 99.4769C67.6515 99.2858 69.9521 99.9762 71.7554 101.379L72.6257 100.26L73.496 99.1417C71.0587 97.2457 68.0423 96.4199 64.5136 96.6482L64.6051 98.0625ZM72.6257 100.26L71.7557 101.379C73.5518 102.776 74.9503 104.967 75.9081 108.035L77.261 107.613L78.614 107.19C77.5421 103.756 75.8814 100.997 73.4957 99.1415L72.6257 100.26ZM77.261 107.613L75.908 108.035L76.2356 109.085L77.5886 108.663L78.9417 108.241L78.6141 107.191L77.261 107.613ZM77.5886 108.663L77.3793 107.261L76.2878 107.424L76.4971 108.826L76.7064 110.228L77.7979 110.065L77.5886 108.663ZM76.4971 108.826L76.288 107.424C72.8398 107.939 70.3808 107.348 68.6392 105.987L67.7663 107.104L66.8935 108.22C69.429 110.202 72.751 110.818 76.7063 110.228L76.4971 108.826ZM66.2262 85.1863L64.8416 85.4892C65.4498 88.2689 66.6006 90.5386 68.4812 92.0079L69.3538 90.8911L70.2264 89.7742C69.0462 88.8521 68.1357 87.2826 67.6108 84.8834L66.2262 85.1863ZM69.3538 90.8911L68.481 92.0078C70.3504 93.4688 72.7821 94.0095 75.633 93.7795L75.519 92.3667L75.405 90.954C73.0279 91.1458 71.3741 90.6712 70.2266 89.7744L69.3538 90.8911ZM75.519 92.3667L76.8465 91.87C75.9062 89.357 74.5755 87.3107 72.7634 85.9014L71.8933 87.0202L71.0232 88.139C72.3065 89.1371 73.3766 90.6852 74.1916 92.8634L75.519 92.3667ZM71.8933 87.0202L72.7636 85.9015C70.9694 84.5057 68.778 83.8012 66.2442 83.7691L66.2262 85.1863L66.2082 86.6035C68.2144 86.629 69.7836 87.1746 71.023 88.1388L71.8933 87.0202ZM68.1938 92.3772L69.0665 91.2604C67.3195 89.8953 66.1115 87.6036 65.5631 84.1973L64.1638 84.4226L62.7645 84.6479C63.3793 88.4672 64.8139 91.5349 67.3211 93.494L68.1938 92.3772ZM64.1638 84.4226L65.5631 84.197L65.3987 83.1775L63.9994 83.4031L62.6002 83.6287L62.7645 84.6482L64.1638 84.4226ZM63.9994 83.4031L64.0909 84.8175L65.1241 84.7507L65.0326 83.3363L64.9412 81.9219L63.908 81.9887L63.9994 83.4031ZM65.0326 83.3363L65.1241 84.7507C68.0789 84.5595 70.3796 85.25 72.1829 86.6527L73.0531 85.534L73.9234 84.4153C71.4861 82.5194 68.4698 81.6936 64.9411 81.9219L65.0326 83.3363ZM73.0531 85.534L72.1831 86.6529C73.9792 88.0497 75.378 90.2408 76.3355 93.3087L77.6885 92.8865L79.0414 92.4642C77.9698 89.0305 76.3089 86.2704 73.9232 84.4152L73.0531 85.534ZM77.6885 92.8865L76.3354 93.3083L76.663 94.359L78.0161 93.9371L79.3691 93.5152L79.0416 92.4646L77.6885 92.8865ZM78.0161 93.9371L77.8073 92.5352L76.7159 92.6977L76.9246 94.0996L77.1334 95.5015L78.2248 95.339L78.0161 93.9371ZM76.9246 94.0996L76.7155 92.6978C73.2673 93.2121 70.8082 92.622 69.0667 91.2606L68.1938 92.3772L67.3209 93.4939C69.8564 95.4759 73.1785 96.0914 77.1337 95.5014L76.9246 94.0996ZM66.6541 70.4603L65.2695 70.763C65.8773 73.543 67.0286 75.8124 68.9083 77.2821L69.7813 76.1655L70.6543 75.0489C69.474 74.1261 68.5632 72.5563 68.0387 70.1576L66.6541 70.4603ZM69.7813 76.1655L68.9087 77.2824C70.778 78.7427 73.2096 79.2833 76.0607 79.0534L75.9468 77.6407L75.8329 76.2279C73.4554 76.4196 71.8014 75.9451 70.6538 75.0486L69.7813 76.1655ZM75.9468 77.6407L77.2742 77.144C76.3339 74.6308 75.0029 72.5846 73.1909 71.1754L72.3207 72.2942L71.4506 73.413C72.7341 74.4111 73.8044 75.9593 74.6193 78.1373L75.9468 77.6407ZM72.3207 72.2942L73.191 71.1755C71.3969 69.7798 69.206 69.0751 66.672 69.0431L66.6541 70.4603L66.6362 71.8775C68.6422 71.9028 70.211 72.4486 71.4505 73.4128L72.3207 72.2942ZM68.6213 77.6516L69.4941 76.535C67.747 75.1693 66.539 72.8775 65.9906 69.4712L64.5913 69.6964L63.192 69.9217C63.8068 73.7412 65.2415 76.8087 67.7484 78.7683L68.6213 77.6516ZM64.5913 69.6964L65.9906 69.4711L65.8265 68.4518L64.4272 68.6771L63.0278 68.9024L63.192 69.9218L64.5913 69.6964ZM64.4272 68.6771L64.5188 70.0915L65.5517 70.0245L65.4601 68.6102L65.3684 67.1958L64.3355 67.2627L64.4272 68.6771ZM65.4601 68.6102L65.5516 70.0245C68.5063 69.8334 70.8071 70.524 72.6104 71.9268L73.4806 70.808L74.3509 69.6893C71.9136 67.7934 68.8973 66.9675 65.3686 67.1958L65.4601 68.6102ZM73.4806 70.808L72.6106 71.9269C74.4068 73.3237 75.8055 75.5147 76.763 78.5825L78.116 78.1603L79.4689 77.738C78.3973 74.3043 76.7364 71.5444 74.3507 69.6892L73.4806 70.808ZM78.116 78.1603L76.7629 78.5821L77.0904 79.6329L78.4436 79.2111L79.7967 78.7892L79.4691 77.7384L78.116 78.1603ZM78.4436 79.2111L78.235 77.8092L77.1435 77.9716L77.3521 79.3735L77.5607 80.7754L78.6521 80.613L78.4436 79.2111ZM77.3521 79.3735L77.1429 77.9716C73.6947 78.4861 71.2356 77.896 69.4941 76.5349L68.6213 77.6516L67.7485 78.7684C70.284 80.7499 73.606 81.3654 77.5612 80.7753L77.3521 79.3735ZM101.248 99.5152L99.8651 99.2052C99.111 102.569 97.7642 104.782 95.9349 106.04L96.7379 107.208L97.541 108.376C100.164 106.572 101.785 103.6 102.631 99.8253L101.248 99.5152ZM96.7379 107.208L95.9349 106.04C94.1136 107.293 91.6224 107.731 88.2113 107.007L87.917 108.394L87.6228 109.78C91.5348 110.61 94.889 110.199 97.541 108.376L96.7379 107.208ZM87.917 108.394L88.2109 107.007L86.7935 106.707L86.4997 108.093L86.2058 109.48L87.6231 109.78L87.917 108.394ZM86.4997 108.093L87.6498 108.922L88.496 107.747L87.3458 106.918L86.1957 106.09L85.3495 107.265L86.4997 108.093ZM87.3458 106.918L88.4964 107.746C89.0763 106.94 89.5837 106.122 90.0529 105.366L88.8486 104.619L87.6444 103.871C87.1687 104.638 86.71 105.375 86.1952 106.091L87.3458 106.918ZM88.8486 104.619L90.0528 105.366C91.2699 103.405 92.2613 101.846 93.7074 100.825C95.0636 99.8674 96.9832 99.2866 100.255 99.7771L100.465 98.3754L100.675 96.9737C96.865 96.4026 94.1616 97.0342 92.0725 98.5092C90.0734 99.9207 88.7975 102.014 87.6444 103.871L88.8486 104.619ZM100.465 98.3754L100.255 99.777L101.259 99.9278L101.469 98.5262L101.68 97.1246L100.675 96.9738L100.465 98.3754ZM101.469 98.5262L100.086 98.217L99.8649 99.2061L101.248 99.5152L102.631 99.8244L102.852 98.8354L101.469 98.5262ZM95.6733 105.651L96.4764 106.818C98.4474 105.463 99.7361 103.259 100.512 100.508L99.1478 100.123L97.7837 99.7384C97.1134 102.115 96.1066 103.632 94.8702 104.483L95.6733 105.651ZM99.1478 100.123L99.2568 98.71C96.4186 98.491 94.3552 99.1775 92.7382 100.463C91.2055 101.681 90.1697 103.378 89.247 104.864L90.4512 105.612L91.6554 106.359C92.6345 104.782 93.4236 103.539 94.5021 102.682C95.4962 101.892 96.8303 101.366 99.0388 101.536L99.1478 100.123ZM90.4512 105.612L89.2467 104.865C89.0041 105.256 88.7669 105.638 88.5231 106.017L89.7149 106.784L90.9066 107.551C91.1655 107.149 91.4153 106.746 91.6556 106.359L90.4512 105.612ZM89.7149 106.784L89.5415 108.191C92.2418 108.524 94.5945 108.112 96.4762 106.819L95.6733 105.651L94.8703 104.483C93.7142 105.277 92.114 105.652 89.8883 105.377L89.7149 106.784ZM101.675 84.7891L100.292 84.4792C99.5383 87.8426 98.1913 90.0566 96.3624 91.3141L97.1654 92.482L97.9684 93.65C100.591 91.8467 102.212 88.8729 103.058 85.099L101.675 84.7891ZM97.1654 92.482L96.3623 91.3142C94.5413 92.5665 92.0498 93.0055 88.6388 92.2812L88.3444 93.6676L88.05 95.0541C91.9622 95.8847 95.3169 95.4734 97.9685 93.6499L97.1654 92.482ZM88.3444 93.6676L88.6384 92.2811L87.56 92.0525L87.266 93.439L86.9721 94.8255L88.0505 95.0542L88.3444 93.6676ZM87.266 93.439L88.5905 93.9435L88.9821 92.9155L87.6576 92.411L86.3331 91.9064L85.9415 92.9345L87.266 93.439ZM87.6576 92.411L88.9822 92.9152C90.1267 89.9089 91.6567 87.8064 93.5357 86.5209L92.7354 85.3511L91.9351 84.1814C89.4397 85.8886 87.6136 88.5429 86.333 91.9067L87.6576 92.411ZM92.7354 85.3511L93.5358 86.5208C95.4198 85.2315 97.7573 84.6835 100.692 85.054L100.87 83.6478L101.047 82.2416C97.5425 81.7992 94.4822 82.4382 91.9349 84.1815L92.7354 85.3511ZM100.87 83.6478L100.692 85.0539L101.723 85.1845L101.902 83.7784L102.08 82.3723L101.048 82.2417L100.87 83.6478ZM101.902 83.7784L100.518 83.4686L100.292 84.4793L101.675 84.7891L103.058 85.0989L103.285 84.0883L101.902 83.7784ZM96.1007 90.9244L96.9037 92.0924C98.868 90.7418 100.154 88.5471 100.931 85.8109L99.5674 85.4238L98.2039 85.0367C97.5331 87.3996 96.5294 88.9097 95.2977 89.7565L96.1007 90.9244ZM99.5674 85.4238L99.6357 84.0081C97.1053 83.8861 94.8748 84.4555 92.9995 85.7392L93.8002 86.9087L94.6008 88.0783C95.8957 87.1918 97.4954 86.7428 99.4991 86.8395L99.5674 85.4238ZM93.8002 86.9087L92.9997 85.7391C91.1059 87.0351 89.6538 88.9945 88.5621 91.4425L89.8566 92.0198L91.151 92.597C92.0972 90.4754 93.2589 88.9965 94.6006 88.0784L93.8002 86.9087ZM89.8566 92.0198L89.656 93.4228C92.4875 93.8275 94.9489 93.4367 96.9038 92.0923L96.1007 90.9244L95.2976 89.7566C94.0981 90.5815 92.4179 90.9541 90.0571 90.6167L89.8566 92.0198ZM102.103 70.0631L100.72 69.7531C99.9658 73.1166 98.6188 75.3306 96.7899 76.5879L97.5928 77.7559L98.3958 78.9238C101.019 77.1206 102.64 74.1469 103.486 70.373L102.103 70.0631ZM97.5928 77.7559L96.7896 76.5881C94.9688 77.8406 92.4775 78.2794 89.0663 77.5551L88.7719 78.9415L88.4775 80.3279C92.3896 81.1586 95.7444 80.7477 98.3961 78.9236L97.5928 77.7559ZM88.7719 78.9415L89.0654 77.5549L87.987 77.3266L87.6935 78.7132L87.4 80.0998L88.4784 80.3281L88.7719 78.9415ZM87.6935 78.7132L89.0181 79.2176L89.4097 78.1892L88.0851 77.6848L86.7606 77.1804L86.369 78.2088L87.6935 78.7132ZM88.0851 77.6848L89.4097 78.1891C90.5542 75.1828 92.0842 73.0803 93.9631 71.7949L93.1628 70.6251L92.3626 69.4553C89.8671 71.1624 88.0411 73.817 86.7605 77.1805L88.0851 77.6848ZM93.1628 70.6251L93.9632 71.7948C95.8473 70.5057 98.1849 69.9575 101.12 70.3282L101.297 68.922L101.475 67.5158C97.9699 67.0732 94.9096 67.7125 92.3625 69.4554L93.1628 70.6251ZM101.297 68.922L101.119 70.3281L102.151 70.4585L102.329 69.0524L102.507 67.6463L101.475 67.5159L101.297 68.922ZM102.329 69.0524L100.946 68.7426L100.72 69.7533L102.103 70.0631L103.486 70.3729L103.712 69.3622L102.329 69.0524ZM96.5282 76.1984L97.3312 77.3663C99.2955 76.0156 100.581 73.8215 101.358 71.0846L99.9947 70.6976L98.6312 70.3106C97.9605 72.6739 96.9569 74.1836 95.7251 75.0305L96.5282 76.1984ZM99.9947 70.6976L100.063 69.2819C97.5325 69.16 95.3022 69.7297 93.4272 71.013L94.2277 72.1827L95.0281 73.3523C96.3232 72.466 97.923 72.0168 99.9265 72.1133L99.9947 70.6976ZM94.2277 72.1827L93.4273 71.0129C91.5334 72.3089 90.0813 74.2686 88.9896 76.7168L90.284 77.294L91.5785 77.8712C92.5247 75.7493 93.6865 74.2703 95.028 73.3524L94.2277 72.1827ZM90.284 77.294L90.0836 78.6971C92.9149 79.1015 95.3764 78.711 97.3315 77.3661L96.5282 76.1984L95.7249 75.0307C94.5256 75.8557 92.8455 76.2281 90.4845 75.8909L90.284 77.294ZM3.31712 54.0752L4.40672 54.9816C19.3502 37.0183 42.9622 32.9647 64.7381 29.2803L64.5017 27.8828L64.2652 26.4853C42.7142 30.1317 17.9549 34.2631 2.22752 53.1688L3.31712 54.0752ZM64.5017 27.8828L64.7381 29.2803C74.1122 27.6941 83.1562 26.1679 90.646 23.5487L90.1782 22.2108L89.7103 20.8729C82.4932 23.3968 73.7085 24.8875 64.2652 26.4854L64.5017 27.8828ZM90.1782 22.2108L91.523 22.6583C93.6031 16.4071 96.1208 11.5031 99.1866 8.16292L98.1424 7.20452L97.0983 6.24611C93.6497 10.0033 90.9736 15.3313 88.8333 21.7633L90.1782 22.2108ZM98.1424 7.20452L99.1866 8.16296C101.826 5.28719 105.126 3.35489 107.332 2.93233L107.066 1.54029L106.799 0.148256C103.812 0.72036 100.003 3.08158 97.0983 6.24607L98.1424 7.20452ZM107.066 1.54029L107.332 2.9323C108.334 2.74036 109.095 2.84458 109.632 3.121L110.281 1.86109L110.93 0.601189C109.67 -0.0482572 108.22 -0.124042 106.799 0.148288L107.066 1.54029ZM110.281 1.86109L109.632 3.12119C110.261 3.44491 110.684 3.97933 110.777 4.97968L112.189 4.8484L113.6 4.71712C113.423 2.8164 112.473 1.39594 110.93 0.600998L110.281 1.86109ZM112.189 4.8484L110.778 4.98031C110.899 6.2827 110.253 8.7051 107.81 12.5626L109.007 13.321L110.205 14.0793C112.709 10.1254 113.814 7.01143 113.6 4.71649L112.189 4.8484ZM109.007 13.321L107.81 12.5625C104.493 17.7988 99.2706 21.2762 92.6428 23.821L93.1508 25.1441L93.6589 26.4673C100.61 23.7984 106.444 20.0157 110.204 14.0794L109.007 13.321ZM93.1508 25.1441L91.796 24.7278C86.1483 43.107 84.2439 71.7701 82.2243 102.019L83.6385 102.114L85.0527 102.208C87.0826 71.8038 88.9787 43.5463 94.5056 25.5605L93.1508 25.1441ZM83.6385 102.114L82.2243 102.019C81.6502 110.622 81.0663 119.364 80.3845 128.07L81.7975 128.18L83.2105 128.291C83.8938 119.567 84.4787 110.808 85.0527 102.208L83.6385 102.114ZM81.7975 128.18L82.5544 129.379C106.724 114.113 138.817 101.639 177.48 85.5291L176.935 84.2208L176.39 82.9125C137.875 98.9613 105.471 111.552 81.0406 126.982L81.7975 128.18ZM176.935 84.2208L176.39 82.9125C136.632 99.479 105.195 115.949 80.6556 131.675L81.4203 132.868L82.1851 134.062C106.56 118.441 137.844 102.045 177.48 85.5291L176.935 84.2208ZM81.4203 132.868L80.0078 132.751C78.9879 145.06 77.7403 157.213 76.0165 168.694L77.4182 168.904L78.8198 169.115C80.5565 157.548 81.8103 145.326 82.8328 132.985L81.4203 132.868ZM77.4182 168.904L76.0165 168.694C72.6242 191.285 67.4045 211.139 58.6019 224.638C54.2153 231.365 48.9724 236.46 42.6699 239.555C36.378 242.644 28.9251 243.791 20.0206 242.454L19.8102 243.856L19.5997 245.257C28.9931 246.668 37.0407 245.477 43.9192 242.099C50.7872 238.727 56.3848 233.227 60.9763 226.186C70.1297 212.15 75.4161 191.781 78.8198 169.115L77.4182 168.904ZM19.8102 243.856L20.0206 242.454C14.875 241.682 10.5864 239.331 7.57084 235.667L6.47646 236.567L5.38209 237.468C8.88306 241.722 13.8264 244.391 19.5997 245.257L19.8102 243.856ZM6.47646 236.567L7.57081 235.667C3.79102 231.074 1.94549 224.313 3.25122 215.705L1.84992 215.492L0.448612 215.28C-0.950195 224.501 0.984568 232.125 5.38212 237.468L6.47646 236.567ZM1.84992 215.492L3.25121 215.705C4.51645 207.366 8.76497 197.266 17.082 185.877L15.9374 185.041L14.7927 184.205C6.29165 195.846 1.80098 206.367 0.448624 215.279L1.84992 215.492ZM15.9374 185.041L17.082 185.877C28.687 169.984 48.2537 151.56 78.5794 131.92L77.809 130.731L77.0386 129.541C46.5213 149.305 26.6616 167.952 14.7927 184.205L15.9374 185.041ZM77.809 130.731L79.2217 130.845C80.0038 121.197 80.6526 111.48 81.2882 101.957L79.8741 101.863L78.4599 101.768C77.824 111.294 77.1766 120.991 76.3963 130.616L77.809 130.731ZM79.8741 101.863L81.2882 101.957C83.2332 72.8204 85.0588 45.6066 90.2074 26.9984L88.8414 26.6205L87.4754 26.2425C82.2312 45.1959 80.3966 72.7551 78.4599 101.768L79.8741 101.863ZM88.8414 26.6205L88.4265 25.2652C81.6479 27.3402 74.2224 28.5702 66.5148 29.6267C58.8448 30.678 50.8539 31.5617 43.1214 32.9436C27.6392 35.7105 12.7323 40.5409 2.22751 53.1688L3.31712 54.0752L4.40673 54.9816C14.2535 43.1447 28.3217 38.4681 43.6201 35.7341C51.2779 34.3655 59.1288 33.5002 66.8997 32.4351C74.6331 31.3751 82.2477 30.1211 89.2562 27.9757L88.8414 26.6205ZM94.8123 20.3373L95.4135 21.6209C100.277 19.3431 104.324 16.3198 107.015 12.0718L105.818 11.3133L104.621 10.5549C102.307 14.2076 98.7588 16.9239 94.2112 19.0538L94.8123 20.3373ZM105.818 11.3133L107.015 12.0716C108.034 10.4638 108.758 9.11658 109.219 8.00557C109.663 6.93443 109.931 5.92566 109.85 5.05614L108.439 5.18792L107.027 5.31969C107.043 5.48684 106.994 5.9715 106.601 6.91926C106.224 7.82716 105.59 9.02428 104.62 10.555L105.818 11.3133ZM108.439 5.18792L109.84 4.97767C109.885 5.27919 109.834 5.60655 109.664 5.8988C109.505 6.17142 109.292 6.33228 109.134 6.42096C108.841 6.58497 108.571 6.60118 108.445 6.60118V5.18385V3.76651C108.315 3.76651 108.042 3.78343 107.747 3.9488C107.588 4.03816 107.373 4.19988 107.214 4.47351C107.043 4.76677 106.992 5.09531 107.037 5.39816L108.439 5.18792ZM108.445 5.18385L108.623 3.77764C108.24 3.72939 107.818 3.79383 107.505 3.85414L107.774 5.24578L108.043 6.63741C108.162 6.61433 108.247 6.60262 108.3 6.59765C108.326 6.59523 108.338 6.59511 108.336 6.59512C108.336 6.59512 108.329 6.59517 108.319 6.59465C108.309 6.59415 108.291 6.59297 108.268 6.59005L108.445 5.18385ZM107.774 5.24578L107.507 3.85376C105.198 4.29619 102.223 6.24143 99.8735 8.80049L100.918 9.75896L101.962 10.7174C104.099 8.38956 106.565 6.92043 108.041 6.6378L107.774 5.24578ZM100.918 9.75896L99.8735 8.80058C97.3274 11.5746 95.2395 15.3344 93.4916 19.823L94.8123 20.3373L96.1331 20.8516C97.8094 16.5466 99.7396 13.1385 101.962 10.7173L100.918 9.75896ZM108.462 5.18604L108.121 6.56173C108.047 6.54355 107.987 6.51921 108.056 6.5445C108.061 6.54634 108.08 6.55327 108.1 6.56029C108.109 6.56351 108.133 6.57158 108.162 6.58043C108.177 6.58481 108.204 6.59274 108.239 6.60104C108.26 6.60615 108.345 6.62657 108.455 6.63557C108.504 6.63955 108.634 6.6485 108.798 6.62193C108.896 6.60599 109.404 6.52099 109.745 6.01704C110.159 5.40506 109.942 4.80138 109.845 4.60284C109.745 4.39531 109.617 4.26478 109.578 4.22552C109.482 4.12857 109.393 4.06793 109.376 4.05598C109.343 4.03299 109.315 4.01608 109.301 4.00742C109.253 3.97852 109.21 3.95649 109.204 3.95335L108.553 5.21282L107.903 6.47229C107.902 6.4717 107.897 6.46883 107.889 6.46442C107.883 6.46142 107.862 6.45022 107.836 6.43405C107.823 6.42619 107.796 6.40998 107.764 6.38756C107.747 6.37618 107.659 6.316 107.563 6.21942C107.525 6.18033 107.397 6.04995 107.296 5.84255C107.2 5.64413 106.983 5.04055 107.397 4.42865C107.738 3.92477 108.246 3.83982 108.344 3.82391C108.507 3.79737 108.637 3.80632 108.686 3.81028C108.795 3.81923 108.879 3.83951 108.9 3.84441C108.933 3.85247 108.959 3.8601 108.973 3.86409C109 3.87216 109.02 3.87913 109.025 3.88098C109.038 3.88527 109.046 3.88839 109.039 3.88577C109.035 3.88435 109.004 3.87262 108.974 3.86217C108.951 3.85425 108.883 3.83037 108.803 3.81036L108.462 5.18604ZM108.553 5.21282L109.19 3.94653C108.998 3.8499 108.814 3.80567 108.671 3.78428L108.462 5.18604L108.252 6.58781C108.184 6.57762 108.061 6.55174 107.917 6.4791L108.553 5.21282ZM77.4132 135.469L76.6343 134.284C47.9533 153.15 29.1626 170.905 17.8337 186.42L18.9783 187.256L20.123 188.091C31.1937 172.93 49.6988 155.395 78.1921 136.653L77.4132 135.469ZM18.9783 187.256L17.8337 186.42C9.72878 197.519 5.45363 207.468 4.18356 215.84L5.58486 216.053L6.98616 216.266C8.16809 208.475 12.1966 198.946 20.123 188.091L18.9783 187.256ZM5.58486 216.053L4.16944 215.979C3.90956 220.979 4.74279 225.049 6.56059 228.087C8.399 231.16 11.1841 233.071 14.569 233.803C21.2204 235.241 29.9697 232.115 38.711 225.177C56.3085 211.208 74.9082 181.034 78.8253 135.59L77.4132 135.469L76.0012 135.347C72.1373 180.172 53.821 209.563 36.9487 222.956C28.4551 229.698 20.581 232.203 15.1681 231.032C12.521 230.46 10.4137 229.006 8.9931 226.632C7.55184 224.223 6.75927 220.763 7.00028 216.126L5.58486 216.053Z" fill="#525171"/>
</svg>
