<svg width="755" height="246" viewBox="0 0 755 246" fill="none" xmlns="http://www.w3.org/2000/svg">
<path d="M195.873 122.417C192.112 122.417 188.574 121.594 185.258 119.949C182.007 118.304 179.393 115.963 177.417 112.925L181.529 108.179C183.378 110.837 185.513 112.862 187.936 114.254C190.359 115.646 193.036 116.342 195.969 116.342C204.257 116.342 208.401 111.47 208.401 101.725V61.4786H183.92V55.4037H215.381V101.44C215.381 108.464 213.724 113.716 210.409 117.197C207.157 120.677 202.312 122.417 195.873 122.417Z" fill="#E7DBC0"/>
<path d="M255.639 122.322C250.794 122.322 246.427 121.246 242.538 119.095C238.712 116.88 235.684 113.874 233.453 110.078C231.222 106.217 230.106 101.82 230.106 96.8837C230.106 91.8846 231.222 87.4866 233.453 83.6898C235.684 79.8931 238.712 76.9189 242.538 74.7674C246.363 72.6159 250.73 71.5401 255.639 71.5401C260.611 71.5401 265.01 72.6159 268.835 74.7674C272.724 76.9189 275.753 79.8931 277.92 83.6898C280.151 87.4866 281.267 91.8846 281.267 96.8837C281.267 101.82 280.151 106.217 277.92 110.078C275.753 113.874 272.724 116.88 268.835 119.095C264.947 121.246 260.548 122.322 255.639 122.322ZM255.639 116.342C259.273 116.342 262.492 115.551 265.297 113.969C268.102 112.324 270.302 110.046 271.896 107.135C273.553 104.161 274.382 100.744 274.382 96.8837C274.382 92.9603 273.553 89.5432 271.896 86.6324C270.302 83.7215 268.102 81.475 265.297 79.893C262.492 78.2478 259.304 77.4251 255.734 77.4251C252.164 77.4251 248.977 78.2478 246.171 79.893C243.366 81.475 241.135 83.7215 239.478 86.6324C237.82 89.5432 236.991 92.9603 236.991 96.8837C236.991 100.744 237.82 104.161 239.478 107.135C241.135 110.046 243.366 112.324 246.171 113.969C248.977 115.551 252.132 116.342 255.639 116.342Z" fill="#E7DBC0"/>
<path d="M326.31 121.848V110.837L326.023 109.033V90.619C326.023 86.3792 324.812 83.1203 322.39 80.8422C320.031 78.5642 316.492 77.4251 311.775 77.4251C308.523 77.4251 305.431 77.963 302.499 79.0388C299.566 80.1145 297.08 81.5383 295.04 83.3102L291.98 78.2794C294.53 76.1279 297.59 74.4826 301.16 73.3436C304.73 72.1413 308.492 71.5401 312.444 71.5401C318.947 71.5401 323.951 73.1537 327.458 76.381C331.028 79.545 332.813 84.3859 332.813 90.9037V121.848H326.31ZM309.002 122.322C305.24 122.322 301.957 121.721 299.152 120.519C296.411 119.253 294.307 117.545 292.84 115.393C291.374 113.178 290.641 110.647 290.641 107.799C290.641 105.205 291.247 102.864 292.458 100.775C293.733 98.6239 295.773 96.9153 298.578 95.6497C301.447 94.3209 305.272 93.6564 310.053 93.6564H327.362V98.6872H310.245C305.4 98.6872 302.021 99.5414 300.108 101.25C298.259 102.959 297.335 105.078 297.335 107.61C297.335 110.457 298.451 112.735 300.682 114.444C302.913 116.152 306.037 117.007 310.053 117.007C313.879 117.007 317.162 116.152 319.903 114.444C322.708 112.672 324.748 110.141 326.023 106.85L327.553 111.501C326.278 114.792 324.047 117.418 320.86 119.38C317.736 121.341 313.783 122.322 309.002 122.322ZM319.138 63.6618C317.672 63.6618 316.365 63.3454 315.217 62.7126C314.07 62.0798 313.018 61.3521 312.062 60.5294C311.169 59.6435 310.277 58.8841 309.384 58.2513C308.492 57.5553 307.567 57.2072 306.611 57.2072C305.145 57.2072 303.965 57.7451 303.073 58.8209C302.244 59.8966 301.766 61.3837 301.638 63.2821H297.526C297.654 60.1181 298.482 57.5869 300.013 55.6885C301.606 53.7901 303.646 52.8409 306.133 52.8409C307.599 52.8409 308.906 53.1889 310.053 53.885C311.265 54.5178 312.317 55.2772 313.209 56.1631C314.166 56.9857 315.058 57.7135 315.887 58.3463C316.779 58.9791 317.704 59.2955 318.66 59.2955C320.126 59.2955 321.306 58.7892 322.198 57.7767C323.091 56.701 323.569 55.2455 323.633 53.4104H327.745C327.681 56.4479 326.852 58.9158 325.258 60.8142C323.665 62.7126 321.625 63.6618 319.138 63.6618Z" fill="#E7DBC0"/>
<path d="M371.719 122.322C366.874 122.322 362.507 121.246 358.618 119.095C354.793 116.88 351.764 113.874 349.533 110.078C347.302 106.217 346.186 101.82 346.186 96.8837C346.186 91.8846 347.302 87.4866 349.533 83.6898C351.764 79.8931 354.793 76.9189 358.618 74.7674C362.443 72.6159 366.81 71.5401 371.719 71.5401C376.692 71.5401 381.09 72.6159 384.916 74.7674C388.804 76.9189 391.833 79.8931 394 83.6898C396.232 87.4866 397.347 91.8846 397.347 96.8837C397.347 101.82 396.232 106.217 394 110.078C391.833 113.874 388.804 116.88 384.916 119.095C381.027 121.246 376.628 122.322 371.719 122.322ZM371.719 116.342C375.353 116.342 378.572 115.551 381.377 113.969C384.182 112.324 386.382 110.046 387.976 107.135C389.633 104.161 390.462 100.744 390.462 96.8837C390.462 92.9603 389.633 89.5432 387.976 86.6324C386.382 83.7215 384.182 81.475 381.377 79.893C378.572 78.2478 375.385 77.4251 371.814 77.4251C368.244 77.4251 365.057 78.2478 362.252 79.893C359.447 81.475 357.215 83.7215 355.558 86.6324C353.9 89.5432 353.071 92.9603 353.071 96.8837C353.071 100.744 353.9 104.161 355.558 107.135C357.215 110.046 359.447 112.324 362.252 113.969C365.057 115.551 368.212 116.342 371.719 116.342Z" fill="#E7DBC0"/>
<path d="M466.742 122.417C461.706 122.417 457.052 121.594 452.78 119.949C448.509 118.241 444.811 115.868 441.687 112.83C438.564 109.793 436.109 106.217 434.324 102.104C432.603 97.9911 431.742 93.4982 431.742 88.6257C431.742 83.7531 432.603 79.2603 434.324 75.1471C436.109 71.0339 438.564 67.4586 441.687 64.4211C444.875 61.3837 448.605 59.0423 452.876 57.3971C457.147 55.6885 461.801 54.8342 466.838 54.8342C471.683 54.8342 476.241 55.6569 480.513 57.3021C484.784 58.8841 488.386 61.2888 491.319 64.516L486.824 68.9773C484.083 66.193 481.054 64.1996 477.739 62.9973C474.424 61.7317 470.854 61.0989 467.029 61.0989C463.013 61.0989 459.283 61.795 455.84 63.1872C452.398 64.516 449.401 66.4461 446.851 68.9773C444.301 71.4452 442.293 74.3561 440.827 77.7099C439.424 81.0004 438.723 84.639 438.723 88.6257C438.723 92.6123 439.424 96.2825 440.827 99.6364C442.293 102.927 444.301 105.838 446.851 108.369C449.401 110.837 452.398 112.767 455.84 114.159C459.283 115.488 463.013 116.152 467.029 116.152C470.854 116.152 474.424 115.52 477.739 114.254C481.054 112.988 484.083 110.963 486.824 108.179L491.319 112.64C488.386 115.868 484.784 118.304 480.513 119.949C476.241 121.594 471.651 122.417 466.742 122.417Z" fill="#E7DBC0"/>
<path d="M523.193 122.322C518.348 122.322 513.981 121.246 510.092 119.095C506.267 116.88 503.238 113.874 501.007 110.078C498.776 106.217 497.66 101.82 497.66 96.8837C497.66 91.8846 498.776 87.4866 501.007 83.6898C503.238 79.8931 506.267 76.9189 510.092 74.7674C513.917 72.6159 518.284 71.5401 523.193 71.5401C528.165 71.5401 532.564 72.6159 536.389 74.7674C540.278 76.9189 543.307 79.8931 545.474 83.6898C547.705 87.4866 548.821 91.8846 548.821 96.8837C548.821 101.82 547.705 106.217 545.474 110.078C543.307 113.874 540.278 116.88 536.389 119.095C532.501 121.246 528.102 122.322 523.193 122.322ZM523.193 116.342C526.827 116.342 530.046 115.551 532.851 113.969C535.656 112.324 537.856 110.046 539.45 107.135C541.107 104.161 541.936 100.744 541.936 96.8837C541.936 92.9603 541.107 89.5432 539.45 86.6324C537.856 83.7215 535.656 81.475 532.851 79.893C530.046 78.2478 526.858 77.4251 523.288 77.4251C519.718 77.4251 516.531 78.2478 513.726 79.893C510.92 81.475 508.689 83.7215 507.032 86.6324C505.374 89.5432 504.545 92.9603 504.545 96.8837C504.545 100.744 505.374 104.161 507.032 107.135C508.689 110.046 510.92 112.324 513.726 113.969C516.531 115.551 519.686 116.342 523.193 116.342Z" fill="#E7DBC0"/>
<path d="M562.683 121.848V51.4171H569.472V121.848H562.683Z" fill="#E7DBC0"/>
<path d="M609.116 122.322C604.844 122.322 601.115 121.531 597.927 119.949C594.739 118.367 592.253 115.994 590.468 112.83C588.747 109.666 587.886 105.711 587.886 100.965V72.0147H594.676V100.206C594.676 105.521 595.983 109.54 598.596 112.261C601.274 114.918 605.004 116.247 609.785 116.247C613.291 116.247 616.32 115.551 618.87 114.159C621.484 112.704 623.46 110.615 624.799 107.894C626.201 105.173 626.902 101.914 626.902 98.1177V72.0147H633.692V121.848H627.189V108.179L628.241 110.647C626.647 114.317 624.161 117.197 620.782 119.285C617.467 121.31 613.578 122.322 609.116 122.322Z" fill="#E7DBC0"/>
<path d="M666.098 122.322C661.954 122.322 658.033 121.753 654.336 120.614C650.638 119.411 647.737 117.924 645.634 116.152L648.694 110.837C650.734 112.356 653.348 113.684 656.535 114.824C659.723 115.899 663.07 116.437 666.576 116.437C671.358 116.437 674.8 115.709 676.904 114.254C679.008 112.735 680.06 110.742 680.06 108.274C680.06 106.439 679.454 105.015 678.243 104.003C677.095 102.927 675.565 102.136 673.653 101.63C671.74 101.06 669.605 100.586 667.246 100.206C664.887 99.8262 662.528 99.3832 660.169 98.877C657.874 98.3708 655.77 97.6431 653.858 96.6939C651.945 95.6814 650.383 94.3209 649.172 92.6123C648.024 90.9037 647.451 88.6257 647.451 85.7781C647.451 83.057 648.216 80.6208 649.746 78.4693C651.276 76.3177 653.507 74.6408 656.44 73.4385C659.436 72.1729 663.07 71.5401 667.341 71.5401C670.593 71.5401 673.844 71.9831 677.095 72.869C680.347 73.6916 683.024 74.799 685.128 76.1912L682.164 81.6016C679.932 80.0829 677.542 79.0071 674.992 78.3743C672.441 77.6783 669.891 77.3302 667.341 77.3302C662.815 77.3302 659.468 78.1212 657.3 79.7032C655.196 81.2219 654.145 83.1836 654.145 85.5882C654.145 87.4866 654.718 88.9737 655.866 90.0495C657.077 91.1252 658.639 91.9795 660.552 92.6123C662.528 93.1818 664.664 93.6564 666.959 94.0361C669.318 94.4158 671.645 94.8904 673.94 95.4599C676.298 95.9661 678.434 96.6939 680.347 97.643C682.323 98.529 683.885 99.8262 685.033 101.535C686.244 103.18 686.849 105.363 686.849 108.084C686.849 110.995 686.021 113.526 684.363 115.678C682.769 117.766 680.411 119.411 677.287 120.614C674.227 121.753 670.497 122.322 666.098 122.322Z" fill="#E7DBC0"/>
<path d="M712.792 122.322C708.648 122.322 704.727 121.753 701.029 120.614C697.332 119.411 694.431 117.924 692.327 116.152L695.387 110.837C697.427 112.356 700.041 113.684 703.229 114.824C706.416 115.899 709.763 116.437 713.27 116.437C718.051 116.437 721.494 115.709 723.598 114.254C725.702 112.735 726.753 110.742 726.753 108.274C726.753 106.439 726.148 105.015 724.936 104.003C723.789 102.927 722.259 102.136 720.346 101.63C718.434 101.06 716.298 100.586 713.939 100.206C711.58 99.8262 709.222 99.3832 706.863 98.877C704.568 98.3708 702.464 97.6431 700.551 96.6939C698.639 95.6814 697.077 94.3209 695.865 92.6123C694.718 90.9037 694.144 88.6257 694.144 85.7781C694.144 83.057 694.909 80.6208 696.439 78.4693C697.969 76.3177 700.201 74.6408 703.133 73.4385C706.13 72.1729 709.763 71.5401 714.035 71.5401C717.286 71.5401 720.538 71.9831 723.789 72.869C727.04 73.6916 729.718 74.799 731.822 76.1912L728.857 81.6016C726.626 80.0829 724.235 79.0071 721.685 78.3743C719.135 77.6783 716.585 77.3302 714.035 77.3302C709.508 77.3302 706.161 78.1212 703.994 79.7032C701.89 81.2219 700.838 83.1836 700.838 85.5882C700.838 87.4866 701.412 88.9737 702.559 90.0495C703.771 91.1252 705.333 91.9795 707.245 92.6123C709.222 93.1818 711.357 93.6564 713.652 94.0361C716.011 94.4158 718.338 94.8904 720.633 95.4599C722.992 95.9661 725.128 96.6939 727.04 97.643C729.017 98.529 730.579 99.8262 731.726 101.535C732.937 103.18 733.543 105.363 733.543 108.084C733.543 110.995 732.714 113.526 731.057 115.678C729.463 117.766 727.104 119.411 723.98 120.614C720.92 121.753 717.191 122.322 712.792 122.322Z" fill="#E7DBC0"/>
<path d="M746.002 121.848V72.0147H752.791V121.848H746.002ZM749.444 61.004C748.042 61.004 746.862 60.5294 745.906 59.5802C744.95 58.631 744.472 57.492 744.472 56.1631C744.472 54.8342 744.95 53.7268 745.906 52.8409C746.862 51.8917 748.042 51.4171 749.444 51.4171C750.847 51.4171 752.026 51.8601 752.983 52.746C753.939 53.6319 754.417 54.7393 754.417 56.0682C754.417 57.4603 753.939 58.631 752.983 59.5802C752.09 60.5294 750.911 61.004 749.444 61.004Z" fill="#E7DBC0"/>
<path d="M283.417 173.147L297.448 141.687H300.648L314.679 173.147H311.259L298.368 143.619H299.684L286.793 173.147H283.417ZM288.941 164.743L289.906 162.046H307.751L308.716 164.743H288.941Z" fill="#E7DBC0"/>
<path d="M319.756 173.147V141.687H332.252C335.526 141.687 338.39 142.361 340.846 143.709C343.33 145.028 345.26 146.87 346.633 149.237C348.007 151.604 348.694 154.331 348.694 157.417C348.694 160.503 348.007 163.23 346.633 165.597C345.26 167.964 343.33 169.822 340.846 171.17C338.39 172.488 335.526 173.147 332.252 173.147H319.756ZM323.001 170.271H332.077C334.795 170.271 337.148 169.732 339.136 168.653C341.153 167.544 342.717 166.031 343.827 164.114C344.938 162.166 345.493 159.934 345.493 157.417C345.493 154.87 344.938 152.638 343.827 150.72C342.717 148.803 341.153 147.305 339.136 146.226C337.148 145.117 334.795 144.563 332.077 144.563H323.001V170.271Z" fill="#E7DBC0"/>
<path d="M363.806 173.147L350.214 141.687H353.722L366.437 171.305H364.508L377.311 141.687H380.599L367.007 173.147H363.806Z" fill="#E7DBC0"/>
<path d="M398.213 173.417C395.904 173.417 393.756 173.028 391.768 172.249C389.81 171.44 388.1 170.316 386.638 168.878C385.206 167.41 384.08 165.717 383.262 163.799C382.473 161.852 382.078 159.724 382.078 157.417C382.078 155.11 382.473 152.998 383.262 151.08C384.08 149.132 385.206 147.44 386.638 146.001C388.1 144.533 389.81 143.41 391.768 142.631C393.727 141.822 395.875 141.417 398.213 141.417C400.523 141.417 402.656 141.822 404.615 142.631C406.573 143.41 408.269 144.518 409.701 145.956C411.162 147.395 412.288 149.088 413.077 151.035C413.896 152.983 414.305 155.11 414.305 157.417C414.305 159.724 413.896 161.852 413.077 163.799C412.288 165.747 411.162 167.44 409.701 168.878C408.269 170.316 406.573 171.44 404.615 172.249C402.656 173.028 400.523 173.417 398.213 173.417ZM398.213 170.451C400.055 170.451 401.75 170.136 403.299 169.507C404.878 168.848 406.237 167.934 407.377 166.765C408.546 165.567 409.453 164.189 410.096 162.631C410.739 161.043 411.06 159.305 411.06 157.417C411.06 155.529 410.739 153.807 410.096 152.249C409.453 150.661 408.546 149.282 407.377 148.114C406.237 146.915 404.878 146.001 403.299 145.372C401.75 144.713 400.055 144.383 398.213 144.383C396.372 144.383 394.662 144.713 393.083 145.372C391.505 146.001 390.131 146.915 388.962 148.114C387.822 149.282 386.916 150.661 386.244 152.249C385.6 153.807 385.279 155.529 385.279 157.417C385.279 159.275 385.6 160.998 386.244 162.586C386.916 164.174 387.822 165.567 388.962 166.765C390.131 167.934 391.505 168.848 393.083 169.507C394.662 170.136 396.372 170.451 398.213 170.451Z" fill="#E7DBC0"/>
<path d="M434.906 173.417C432.597 173.417 430.463 173.028 428.505 172.249C426.546 171.44 424.851 170.316 423.419 168.878C421.987 167.44 420.861 165.747 420.043 163.799C419.253 161.852 418.859 159.724 418.859 157.417C418.859 155.11 419.253 152.983 420.043 151.035C420.861 149.088 421.987 147.395 423.419 145.956C424.88 144.518 426.59 143.41 428.549 142.631C430.507 141.822 432.641 141.417 434.95 141.417C437.172 141.417 439.262 141.807 441.22 142.586C443.179 143.335 444.83 144.473 446.175 146.001L444.114 148.114C442.857 146.795 441.469 145.852 439.949 145.282C438.429 144.683 436.792 144.383 435.038 144.383C433.196 144.383 431.486 144.713 429.908 145.372C428.33 146.001 426.956 146.915 425.786 148.114C424.617 149.282 423.697 150.661 423.024 152.249C422.381 153.807 422.06 155.529 422.06 157.417C422.06 159.305 422.381 161.043 423.024 162.631C423.697 164.189 424.617 165.567 425.786 166.765C426.956 167.934 428.33 168.848 429.908 169.507C431.486 170.136 433.196 170.451 435.038 170.451C436.792 170.451 438.429 170.151 439.949 169.552C441.469 168.953 442.857 167.994 444.114 166.676L446.175 168.788C444.83 170.316 443.179 171.47 441.22 172.249C439.262 173.028 437.157 173.417 434.906 173.417Z" fill="#E7DBC0"/>
<path d="M447.41 173.147L461.441 141.687H464.641L478.672 173.147H475.252L462.361 143.619H463.677L450.786 173.147H447.41ZM452.934 164.743L453.899 162.046H471.744L472.709 164.743H452.934Z" fill="#E7DBC0"/>
<path d="M496.65 173.417C494.341 173.417 492.207 173.028 490.248 172.249C488.29 171.44 486.595 170.316 485.162 168.878C483.73 167.44 482.605 165.747 481.786 163.799C480.997 161.852 480.602 159.724 480.602 157.417C480.602 155.11 480.997 152.983 481.786 151.035C482.605 149.088 483.73 147.395 485.162 145.956C486.624 144.518 488.334 143.41 490.292 142.631C492.251 141.822 494.385 141.417 496.694 141.417C498.915 141.417 501.005 141.807 502.964 142.586C504.922 143.335 506.574 144.473 507.918 146.001L505.858 148.114C504.601 146.795 503.212 145.852 501.692 145.282C500.172 144.683 498.535 144.383 496.781 144.383C494.94 144.383 493.23 144.713 491.652 145.372C490.073 146.001 488.699 146.915 487.53 148.114C486.361 149.282 485.44 150.661 484.768 152.249C484.125 153.807 483.803 155.529 483.803 157.417C483.803 159.305 484.125 161.043 484.768 162.631C485.44 164.189 486.361 165.567 487.53 166.765C488.699 167.934 490.073 168.848 491.652 169.507C493.23 170.136 494.94 170.451 496.781 170.451C498.535 170.451 500.172 170.151 501.692 169.552C503.212 168.953 504.601 167.994 505.858 166.676L507.918 168.788C506.574 170.316 504.922 171.47 502.964 172.249C501.005 173.028 498.901 173.417 496.65 173.417Z" fill="#E7DBC0"/>
<path d="M514.835 173.147V141.687H518.08V173.147H514.835Z" fill="#E7DBC0"/>
<path d="M523.155 173.147L537.186 141.687H540.386L554.417 173.147H550.997L538.106 143.619H539.422L526.531 173.147H523.155ZM528.68 164.743L529.644 162.046H547.489L548.454 164.743H528.68Z" fill="#E7DBC0"/>
<path d="M65.7987 99.9127C66.3652 102.502 67.3959 104.422 68.9263 105.617C70.4347 106.796 72.4775 107.304 75.0915 107.093C74.2139 104.747 73.0135 102.95 71.4658 101.746C69.9491 100.567 68.0687 99.9413 65.7987 99.9127ZM67.7663 107.104C65.6392 105.441 64.3175 102.762 63.7363 99.1484L63.5719 98.1295L64.6051 98.0625C67.8468 97.8528 70.5054 98.611 72.6256 100.26C74.7166 101.886 76.2462 104.361 77.261 107.613L77.5886 108.663L76.4971 108.826C72.7953 109.378 69.9048 108.775 67.7663 107.104Z" fill="#E7DBC0"/>
<path d="M66.2262 85.1863C66.7927 87.7758 67.8234 89.6954 69.3538 90.8911C70.8622 92.07 72.905 92.5776 75.519 92.3667C74.6414 90.0211 73.441 88.2239 71.8932 87.0202C70.3764 85.8402 68.4962 85.2151 66.2262 85.1863ZM68.1937 92.3772C66.0667 90.7151 64.7453 88.0354 64.1637 84.4226L63.9994 83.4031L65.0326 83.3363C68.2743 83.1265 70.9328 83.8847 73.0531 85.534C75.144 87.16 76.6739 89.6357 77.6884 92.8865L78.016 93.9371L76.9246 94.0996C73.2228 94.6518 70.3323 94.0489 68.1937 92.3772Z" fill="#E7DBC0"/>
<path d="M66.654 70.4603C67.2202 73.0496 68.2512 74.9692 69.7812 76.1655C71.2896 77.3439 73.3324 77.8515 75.9467 77.6407C75.0691 75.2951 73.8684 73.4979 72.3207 72.2942C70.8039 71.1142 68.924 70.489 66.654 70.4603ZM68.6212 77.6516C66.4942 75.989 65.1728 73.3094 64.5912 69.6964L64.4271 68.6771L65.46 68.6102C68.7017 68.4004 71.3603 69.1587 73.4806 70.808C75.5715 72.434 77.1014 74.9095 78.1159 78.1603L78.4435 79.2111L77.352 79.3735C73.6503 79.9257 70.7598 79.323 68.6212 77.6516Z" fill="#E7DBC0"/>
<path d="M101.248 99.5152C100.448 103.084 98.964 105.677 96.7379 107.208C94.5012 108.746 91.5786 109.171 87.917 108.394L86.4996 108.093L87.3458 106.918C87.8931 106.157 88.3762 105.38 88.8486 104.619C91.2187 100.8 93.3832 97.3138 100.465 98.3754L101.469 98.5262L101.248 99.5152ZM95.6732 105.651C97.277 104.548 98.4247 102.687 99.1478 100.123C94.101 99.7338 92.353 102.548 90.4511 105.612C90.2096 106.001 89.9661 106.394 89.7148 106.784C92.1779 107.088 94.1543 106.695 95.6732 105.651Z" fill="#E7DBC0"/>
<path d="M101.675 84.7891C100.875 88.3578 99.3912 90.9516 97.1654 92.482C94.9291 94.0199 92.006 94.4451 88.3444 93.6676L87.266 93.439L87.6576 92.411C88.8701 89.2259 90.5482 86.8475 92.7354 85.3511C94.951 83.8348 97.6499 83.2414 100.87 83.6478L101.901 83.7784L101.675 84.7891ZM96.1007 90.9244C97.6987 89.8258 98.8435 87.9734 99.5673 85.4238C97.3003 85.3144 95.3852 85.8237 93.8001 86.9087C92.1824 88.0158 90.8755 89.735 89.8565 92.0198C92.4527 92.3908 94.5235 92.0091 96.1007 90.9244Z" fill="#E7DBC0"/>
<path d="M102.103 70.0631C101.303 73.6317 99.8187 76.2256 97.5928 77.7559C95.3565 79.2941 92.4335 79.719 88.7719 78.9415L87.6935 78.7132L88.0851 77.6848C89.2976 74.4999 90.9756 72.1214 93.1628 70.6251C95.3784 69.1091 98.0773 68.5153 101.297 68.922L102.329 69.0524L102.103 70.0631ZM96.5282 76.1984C98.1262 75.0996 99.2709 73.2477 99.9947 70.6976C97.7277 70.5884 95.8127 71.0979 94.2276 72.1827C92.6099 73.2896 91.303 75.0089 90.284 77.294C92.8802 77.6648 94.951 77.2833 96.5282 76.1984Z" fill="#E7DBC0"/>
<path d="M3.31709 54.0752C18.6526 35.6407 42.8382 31.5482 64.5016 27.8828C73.9103 26.2908 82.8247 24.7824 90.1781 22.2108C92.2883 15.8692 94.8852 10.7532 98.1424 7.20452C100.915 4.18438 104.469 2.03763 107.065 1.54029C108.277 1.30816 109.382 1.39816 110.281 1.86109C111.367 2.42043 112.054 3.39786 112.189 4.8484C112.357 6.64706 111.481 9.41524 109.007 13.321C105.468 18.9072 99.9403 22.5373 93.1508 25.1441C87.5635 43.3267 85.6632 71.7869 83.6384 102.114C83.0644 110.715 82.48 119.466 81.7975 128.18C106.098 112.832 138.346 100.3 176.935 84.2208C137.238 100.762 105.877 117.195 81.4203 132.868C80.3991 145.193 79.1484 157.38 77.4181 168.904C70.6221 214.162 56.4059 249.351 19.8102 243.856C14.3507 243.036 9.7347 240.527 6.47643 236.567C2.38777 231.6 0.497619 224.407 1.84989 215.492C3.15869 206.867 7.52828 196.556 15.9373 185.041C27.6743 168.968 47.3875 150.432 77.809 130.731C78.5902 121.094 79.2383 111.387 79.874 101.863C81.8148 72.7877 83.645 45.4012 88.8414 26.6205C61.2671 35.0612 23.6687 29.6104 3.31709 54.0752ZM94.8123 20.3373C99.5178 18.1335 103.315 15.2637 105.818 11.3133C107.805 8.17479 108.535 6.22458 108.439 5.18792C108.438 5.18525 108.441 5.18385 108.445 5.18385C108.304 5.16598 108.074 5.18791 107.774 5.24578C105.882 5.60831 103.161 7.31549 100.918 9.75896C98.5335 12.3566 96.5244 15.9405 94.8123 20.3373ZM108.462 5.18604C108.51 5.19804 108.611 5.24268 108.553 5.21282C108.53 5.20082 108.499 5.19164 108.462 5.18604ZM77.4132 135.469C48.826 154.273 30.1781 171.918 18.9783 187.256C10.9627 198.233 6.81083 207.972 5.58483 216.053C3.58123 254.599 69.6323 225.738 77.4132 135.469Z" fill="#E7DBC0"/>
<path d="M65.7987 99.9127L65.8166 98.4955L64.0328 98.4729L64.4141 100.216L65.7987 99.9127ZM68.9263 105.617L69.799 104.501L69.799 104.501L68.9263 105.617ZM75.0915 107.093L75.2055 108.506L77.0768 108.355L76.419 106.596L75.0915 107.093ZM71.4658 101.746L70.5955 102.865L70.5956 102.865L71.4658 101.746ZM67.7663 107.104L68.6391 105.987L68.639 105.987L67.7663 107.104ZM63.7363 99.1484L65.1356 98.9233L65.1355 98.9226L63.7363 99.1484ZM63.5719 98.1295L63.4802 96.7151L61.9242 96.8159L62.1726 98.3553L63.5719 98.1295ZM64.6051 98.0625L64.5136 96.6482L64.5134 96.6482L64.6051 98.0625ZM72.6256 100.26L71.7553 101.379L71.7556 101.379L72.6256 100.26ZM77.261 107.613L78.614 107.191L78.6139 107.19L77.261 107.613ZM77.5886 108.663L77.7979 110.065L79.4343 109.82L78.9416 108.241L77.5886 108.663ZM76.4971 108.826L76.7062 110.228L76.7064 110.228L76.4971 108.826ZM66.2262 85.1863L66.2441 83.7691L64.4603 83.7464L64.8416 85.4892L66.2262 85.1863ZM69.3538 90.8911L70.2266 89.7744L70.2264 89.7742L69.3538 90.8911ZM75.519 92.3667L75.633 93.7795L77.5043 93.6284L76.8464 91.87L75.519 92.3667ZM71.8932 87.0202L71.023 88.1388L71.0231 88.139L71.8932 87.0202ZM68.1937 92.3772L69.0666 91.2606L69.0664 91.2604L68.1937 92.3772ZM64.1637 84.4226L65.5631 84.1973L65.563 84.197L64.1637 84.4226ZM63.9994 83.4031L63.9079 81.9887L62.3519 82.0893L62.6001 83.6287L63.9994 83.4031ZM65.0326 83.3363L65.124 84.7507L65.1241 84.7507L65.0326 83.3363ZM73.0531 85.534L72.1828 86.6527L72.183 86.6529L73.0531 85.534ZM77.6884 92.8865L79.0415 92.4646L79.0414 92.4642L77.6884 92.8865ZM78.016 93.9371L78.2247 95.339L79.8617 95.0952L79.3691 93.5152L78.016 93.9371ZM76.9246 94.0996L76.7158 92.6977L76.7155 92.6978L76.9246 94.0996ZM66.654 70.4603L66.6719 69.0431L64.8884 69.0206L65.2694 70.763L66.654 70.4603ZM69.7812 76.1655L68.9082 77.2821L68.9087 77.2824L69.7812 76.1655ZM75.9467 77.6407L76.0606 79.0534L77.9321 78.9025L77.2742 77.144L75.9467 77.6407ZM72.3207 72.2942L71.4504 73.4128L71.4506 73.413L72.3207 72.2942ZM68.6212 77.6516L67.7484 78.7683L67.7485 78.7684L68.6212 77.6516ZM64.5912 69.6964L65.9906 69.4712L65.9905 69.4711L64.5912 69.6964ZM64.4271 68.6771L64.3354 67.2627L62.78 67.3635L63.0278 68.9024L64.4271 68.6771ZM65.46 68.6102L65.3685 67.1958L65.3684 67.1958L65.46 68.6102ZM73.4806 70.808L72.6103 71.9268L72.6105 71.9269L73.4806 70.808ZM78.1159 78.1603L79.469 77.7384L79.4689 77.738L78.1159 78.1603ZM78.4435 79.2111L78.6521 80.613L80.2892 80.3694L79.7966 78.7892L78.4435 79.2111ZM77.352 79.3735L77.1434 77.9716L77.1429 77.9716L77.352 79.3735ZM101.248 99.5152L102.631 99.8253L102.631 99.8244L101.248 99.5152ZM96.7379 107.208L97.5409 108.376L97.541 108.376L96.7379 107.208ZM87.917 108.394L88.2112 107.007L88.2108 107.007L87.917 108.394ZM86.4996 108.093L85.3494 107.265L84.0792 109.029L86.2057 109.48L86.4996 108.093ZM87.3458 106.918L88.4959 107.747L88.4964 107.746L87.3458 106.918ZM88.8486 104.619L87.6443 103.871L87.6443 103.871L88.8486 104.619ZM100.465 98.3754L100.675 96.9738L100.675 96.9737L100.465 98.3754ZM101.469 98.5262L102.852 98.8354L103.184 97.3505L101.68 97.1246L101.469 98.5262ZM95.6732 105.651L96.4762 106.819L96.4763 106.818L95.6732 105.651ZM99.1478 100.123L100.512 100.508L100.981 98.843L99.2568 98.71L99.1478 100.123ZM90.4511 105.612L89.2469 104.864L89.2466 104.865L90.4511 105.612ZM89.7148 106.784L88.5231 106.017L87.3013 107.915L89.5414 108.191L89.7148 106.784ZM101.675 84.7891L103.058 85.099L103.058 85.0989L101.675 84.7891ZM97.1654 92.482L96.3624 91.3141L96.3623 91.3142L97.1654 92.482ZM88.3444 93.6676L88.6388 92.2812L88.6384 92.2811L88.3444 93.6676ZM87.266 93.439L85.9415 92.9345L85.352 94.482L86.972 94.8255L87.266 93.439ZM87.6576 92.411L88.9821 92.9155L88.9822 92.9152L87.6576 92.411ZM92.7354 85.3511L93.5357 86.5209L93.5358 86.5208L92.7354 85.3511ZM100.87 83.6478L101.048 82.2417L101.047 82.2416L100.87 83.6478ZM101.901 83.7784L103.285 84.0883L103.625 82.568L102.08 82.3723L101.901 83.7784ZM96.1007 90.9244L95.2977 89.7565L95.2975 89.7566L96.1007 90.9244ZM99.5673 85.4238L100.931 85.8109L101.418 84.0941L99.6356 84.0081L99.5673 85.4238ZM93.8001 86.9087L94.6006 88.0784L94.6008 88.0783L93.8001 86.9087ZM89.8565 92.0198L88.5621 91.4425L87.7974 93.1572L89.656 93.4228L89.8565 92.0198ZM102.103 70.0631L103.486 70.373L103.486 70.3729L102.103 70.0631ZM97.5928 77.7559L96.7899 76.5879L96.7896 76.5881L97.5928 77.7559ZM88.7719 78.9415L89.0663 77.5551L89.0654 77.5549L88.7719 78.9415ZM87.6935 78.7132L86.3689 78.2088L85.7795 79.7568L87.4 80.0998L87.6935 78.7132ZM88.0851 77.6848L89.4096 78.1892L89.4097 78.1891L88.0851 77.6848ZM93.1628 70.6251L93.9631 71.7949L93.9632 71.7948L93.1628 70.6251ZM101.297 68.922L101.475 67.5159L101.475 67.5158L101.297 68.922ZM102.329 69.0524L103.712 69.3622L104.053 67.8417L102.507 67.6463L102.329 69.0524ZM96.5282 76.1984L95.7251 75.0305L95.7249 75.0307L96.5282 76.1984ZM99.9947 70.6976L101.358 71.0846L101.845 69.3678L100.063 69.2819L99.9947 70.6976ZM94.2276 72.1827L95.028 73.3524L95.0281 73.3523L94.2276 72.1827ZM90.284 77.294L88.9895 76.7168L88.2249 78.4316L90.0836 78.6971L90.284 77.294ZM3.31709 54.0752L2.22748 53.1688C1.72688 53.7706 1.8089 54.6642 2.41067 55.1648C3.01244 55.6654 3.90609 55.5834 4.40669 54.9816L3.31709 54.0752ZM64.5016 27.8828L64.7381 29.2803L64.7381 29.2803L64.5016 27.8828ZM90.1781 22.2108L90.646 23.5487C91.0605 23.4037 91.3844 23.0749 91.523 22.6583L90.1781 22.2108ZM98.1424 7.20452L97.0983 6.24607L97.0983 6.24611L98.1424 7.20452ZM107.065 1.54029L107.332 2.93233L107.332 2.9323L107.065 1.54029ZM110.281 1.86109L109.631 3.121L109.632 3.12119L110.281 1.86109ZM112.189 4.8484L110.777 4.97968L110.778 4.98031L112.189 4.8484ZM109.007 13.321L110.204 14.0794L110.204 14.0793L109.007 13.321ZM93.1508 25.1441L92.6428 23.821C92.2362 23.9771 91.9239 24.3115 91.796 24.7278L93.1508 25.1441ZM83.6384 102.114L82.2243 102.019V102.019L83.6384 102.114ZM81.7975 128.18L80.3845 128.07C80.3426 128.604 80.6061 129.117 81.0654 129.394C81.5246 129.671 82.1009 129.665 82.5544 129.379L81.7975 128.18ZM177.48 85.5291C178.203 85.228 178.544 84.3982 178.243 83.6756C177.942 82.9531 177.112 82.6114 176.39 82.9125L176.935 84.2208L177.48 85.5291ZM81.4203 132.868L80.6556 131.675C80.2838 131.913 80.0443 132.311 80.0078 132.751L81.4203 132.868ZM77.4181 168.904L78.8198 169.115V169.115L77.4181 168.904ZM19.8102 243.856L20.0206 242.454H20.0206L19.8102 243.856ZM6.47643 236.567L7.5708 235.667L7.57077 235.667L6.47643 236.567ZM1.84989 215.492L0.448593 215.279L0.448581 215.28L1.84989 215.492ZM15.9373 185.041L17.082 185.877L17.082 185.877L15.9373 185.041ZM77.809 130.731L78.5794 131.92C78.9488 131.681 79.1861 131.284 79.2217 130.845L77.809 130.731ZM79.874 101.863L78.4598 101.768V101.768L79.874 101.863ZM88.8414 26.6205L90.2074 26.9984C90.3453 26.4998 90.2006 25.9656 89.8299 25.6047C89.4591 25.2439 88.9212 25.1138 88.4265 25.2652L88.8414 26.6205ZM94.8123 20.3373L93.4916 19.823C93.2813 20.363 93.4209 20.9765 93.8441 21.3724C94.2672 21.7682 94.8887 21.8666 95.4135 21.6209L94.8123 20.3373ZM105.818 11.3133L107.015 12.0718L107.015 12.0716L105.818 11.3133ZM108.439 5.18792L109.85 5.05614C109.847 5.0299 109.844 5.00373 109.84 4.97767L108.439 5.18792ZM108.445 5.18385V6.60118C109.194 6.60118 109.813 6.01947 109.86 5.27265C109.907 4.52583 109.365 3.87123 108.622 3.77764L108.445 5.18385ZM107.774 5.24578L108.041 6.6378L108.043 6.63741L107.774 5.24578ZM100.918 9.75896L99.8735 8.80049L99.8734 8.80058L100.918 9.75896ZM108.462 5.18604L108.671 3.78428C107.923 3.67242 107.218 4.16818 107.071 4.91044C106.924 5.65269 107.386 6.37963 108.121 6.56173L108.462 5.18604ZM108.553 5.21282L109.204 3.95335C109.199 3.95105 109.195 3.94878 109.19 3.94653L108.553 5.21282ZM77.4132 135.469L78.8253 135.59C78.8719 135.049 78.6053 134.529 78.1388 134.251C77.6724 133.973 77.088 133.986 76.6343 134.284L77.4132 135.469ZM18.9783 187.256L20.1229 188.091L20.1229 188.091L18.9783 187.256ZM5.58483 216.053L4.18353 215.84C4.17654 215.886 4.17183 215.933 4.16941 215.979L5.58483 216.053ZM65.7987 99.9127L64.4141 100.216C65.0223 102.995 66.1731 105.265 68.0536 106.734L68.9263 105.617L69.799 104.501C68.6186 103.578 67.7082 102.009 67.1833 99.6097L65.7987 99.9127ZM68.9263 105.617L68.0535 106.734C69.9229 108.195 72.3546 108.736 75.2055 108.506L75.0915 107.093L74.9775 105.68C72.6004 105.872 70.9465 105.397 69.799 104.501L68.9263 105.617ZM75.0915 107.093L76.419 106.596C75.4787 104.083 74.1479 102.037 72.3359 100.628L71.4658 101.746L70.5956 102.865C71.879 103.863 72.9491 105.411 73.764 107.59L75.0915 107.093ZM71.4658 101.746L72.336 100.628C70.542 99.2321 68.3505 98.5275 65.8166 98.4955L65.7987 99.9127L65.7808 101.33C67.7868 101.355 69.3562 101.901 70.5955 102.865L71.4658 101.746ZM67.7663 107.104L68.639 105.987C66.892 104.622 65.6836 102.33 65.1356 98.9233L63.7363 99.1484L62.337 99.3735C62.9514 103.193 64.3865 106.261 66.8936 108.22L67.7663 107.104ZM63.7363 99.1484L65.1355 98.9226L64.9711 97.9037L63.5719 98.1295L62.1726 98.3553L62.3371 99.3742L63.7363 99.1484ZM63.5719 98.1295L63.6635 99.5438L64.6967 99.4769L64.6051 98.0625L64.5134 96.6482L63.4802 96.7151L63.5719 98.1295ZM64.6051 98.0625L64.6966 99.4769C67.6514 99.2858 69.9521 99.9762 71.7553 101.379L72.6256 100.26L73.4959 99.1417C71.0586 97.2457 68.0422 96.4199 64.5136 96.6482L64.6051 98.0625ZM72.6256 100.26L71.7556 101.379C73.5517 102.776 74.9503 104.967 75.908 108.035L77.261 107.613L78.6139 107.19C77.542 103.756 75.8814 100.997 73.4956 99.1415L72.6256 100.26ZM77.261 107.613L75.9079 108.035L76.2355 109.085L77.5886 108.663L78.9416 108.241L78.614 107.191L77.261 107.613ZM77.5886 108.663L77.3793 107.261L76.2878 107.424L76.4971 108.826L76.7064 110.228L77.7979 110.065L77.5886 108.663ZM76.4971 108.826L76.2879 107.424C72.8397 107.939 70.3807 107.348 68.6391 105.987L67.7663 107.104L66.8934 108.22C69.4289 110.202 72.7509 110.818 76.7062 110.228L76.4971 108.826ZM66.2262 85.1863L64.8416 85.4892C65.4497 88.2689 66.6006 90.5386 68.4811 92.0079L69.3538 90.8911L70.2264 89.7742C69.0461 88.8521 68.1357 87.2826 67.6107 84.8834L66.2262 85.1863ZM69.3538 90.8911L68.481 92.0078C70.3503 93.4688 72.7821 94.0095 75.633 93.7795L75.519 92.3667L75.405 90.954C73.0279 91.1458 71.374 90.6712 70.2266 89.7744L69.3538 90.8911ZM75.519 92.3667L76.8464 91.87C75.9062 89.357 74.5755 87.3107 72.7634 85.9014L71.8932 87.0202L71.0231 88.139C72.3065 89.1371 73.3766 90.6852 74.1915 92.8634L75.519 92.3667ZM71.8932 87.0202L72.7635 85.9015C70.9693 84.5057 68.778 83.8012 66.2441 83.7691L66.2262 85.1863L66.2082 86.6035C68.2143 86.629 69.7835 87.1746 71.023 88.1388L71.8932 87.0202ZM68.1937 92.3772L69.0664 91.2604C67.3195 89.8953 66.1114 87.6036 65.5631 84.1973L64.1637 84.4226L62.7644 84.6479C63.3793 88.4672 64.8139 91.5349 67.321 93.494L68.1937 92.3772ZM64.1637 84.4226L65.563 84.197L65.3986 83.1775L63.9994 83.4031L62.6001 83.6287L62.7645 84.6482L64.1637 84.4226ZM63.9994 83.4031L64.0908 84.8175L65.124 84.7507L65.0326 83.3363L64.9411 81.9219L63.9079 81.9887L63.9994 83.4031ZM65.0326 83.3363L65.1241 84.7507C68.0789 84.5595 70.3795 85.25 72.1828 86.6527L73.0531 85.534L73.9233 84.4153C71.4861 82.5194 68.4697 81.6936 64.9411 81.9219L65.0326 83.3363ZM73.0531 85.534L72.183 86.6529C73.9792 88.0497 75.378 90.2408 76.3354 93.3087L77.6884 92.8865L79.0414 92.4642C77.9698 89.0305 76.3088 86.2704 73.9231 84.4152L73.0531 85.534ZM77.6884 92.8865L76.3353 93.3083L76.6629 94.359L78.016 93.9371L79.3691 93.5152L79.0415 92.4646L77.6884 92.8865ZM78.016 93.9371L77.8073 92.5352L76.7158 92.6977L76.9246 94.0996L77.1333 95.5015L78.2247 95.339L78.016 93.9371ZM76.9246 94.0996L76.7155 92.6978C73.2672 93.2121 70.8082 92.622 69.0666 91.2606L68.1937 92.3772L67.3208 93.4939C69.8564 95.4759 73.1785 96.0914 77.1337 95.5014L76.9246 94.0996ZM66.654 70.4603L65.2694 70.763C65.8772 73.543 67.0285 75.8124 68.9082 77.2821L69.7812 76.1655L70.6542 75.0489C69.4739 74.1261 68.5631 72.5563 68.0387 70.1576L66.654 70.4603ZM69.7812 76.1655L68.9087 77.2824C70.7779 78.7427 73.2096 79.2833 76.0606 79.0534L75.9467 77.6407L75.8328 76.2279C73.4553 76.4196 71.8013 75.9451 70.6538 75.0486L69.7812 76.1655ZM75.9467 77.6407L77.2742 77.144C76.3339 74.6308 75.0028 72.5846 73.1908 71.1754L72.3207 72.2942L71.4506 73.413C72.734 74.4111 73.8043 75.9593 74.6192 78.1373L75.9467 77.6407ZM72.3207 72.2942L73.191 71.1755C71.3969 69.7798 69.2059 69.0751 66.6719 69.0431L66.654 70.4603L66.6361 71.8775C68.6421 71.9028 70.2109 72.4486 71.4504 73.4128L72.3207 72.2942ZM68.6212 77.6516L69.4941 76.535C67.7469 75.1693 66.5389 72.8775 65.9906 69.4712L64.5912 69.6964L63.1919 69.9217C63.8068 73.7412 65.2414 76.8087 67.7484 78.7683L68.6212 77.6516ZM64.5912 69.6964L65.9905 69.4711L65.8264 68.4518L64.4271 68.6771L63.0278 68.9024L63.1919 69.9218L64.5912 69.6964ZM64.4271 68.6771L64.5187 70.0915L65.5517 70.0245L65.46 68.6102L65.3684 67.1958L64.3354 67.2627L64.4271 68.6771ZM65.46 68.6102L65.5515 70.0245C68.5063 69.8334 70.807 70.524 72.6103 71.9268L73.4806 70.808L74.3508 69.6893C71.9136 67.7934 68.8972 66.9675 65.3685 67.1958L65.46 68.6102ZM73.4806 70.808L72.6105 71.9269C74.4067 73.3237 75.8055 75.5147 76.7629 78.5825L78.1159 78.1603L79.4689 77.738C78.3972 74.3043 76.7363 71.5444 74.3506 69.6892L73.4806 70.808ZM78.1159 78.1603L76.7628 78.5821L77.0904 79.6329L78.4435 79.2111L79.7966 78.7892L79.469 77.7384L78.1159 78.1603ZM78.4435 79.2111L78.2349 77.8092L77.1434 77.9716L77.352 79.3735L77.5606 80.7754L78.6521 80.613L78.4435 79.2111ZM77.352 79.3735L77.1429 77.9716C73.6946 78.4861 71.2356 77.896 69.494 76.5349L68.6212 77.6516L67.7485 78.7684C70.284 80.7499 73.606 81.3654 77.5612 80.7753L77.352 79.3735ZM101.248 99.5152L99.865 99.2052C99.1109 102.569 97.7642 104.782 95.9348 106.04L96.7379 107.208L97.541 108.376C100.164 106.572 101.785 103.6 102.631 99.8253L101.248 99.5152ZM96.7379 107.208L95.9349 106.04C94.1135 107.293 91.6224 107.731 88.2112 107.007L87.917 108.394L87.6227 109.78C91.5348 110.61 94.8889 110.199 97.5409 108.376L96.7379 107.208ZM87.917 108.394L88.2108 107.007L86.7935 106.707L86.4996 108.093L86.2057 109.48L87.6231 109.78L87.917 108.394ZM86.4996 108.093L87.6498 108.922L88.4959 107.747L87.3458 106.918L86.1956 106.09L85.3494 107.265L86.4996 108.093ZM87.3458 106.918L88.4964 107.746C89.0762 106.94 89.5836 106.122 90.0528 105.366L88.8486 104.619L87.6443 103.871C87.1687 104.638 86.71 105.375 86.1952 106.091L87.3458 106.918ZM88.8486 104.619L90.0528 105.366C91.2699 103.405 92.2612 101.846 93.7074 100.825C95.0635 99.8674 96.9832 99.2866 100.255 99.7771L100.465 98.3754L100.675 96.9737C96.865 96.4026 94.1615 97.0342 92.0724 98.5092C90.0734 99.9207 88.7974 102.014 87.6443 103.871L88.8486 104.619ZM100.465 98.3754L100.254 99.777L101.259 99.9278L101.469 98.5262L101.68 97.1246L100.675 96.9738L100.465 98.3754ZM101.469 98.5262L100.086 98.217L99.8648 99.2061L101.248 99.5152L102.631 99.8244L102.852 98.8354L101.469 98.5262ZM95.6732 105.651L96.4763 106.818C98.4473 105.463 99.736 103.259 100.512 100.508L99.1478 100.123L97.7836 99.7384C97.1133 102.115 96.1066 103.632 94.8701 104.483L95.6732 105.651ZM99.1478 100.123L99.2568 98.71C96.4185 98.491 94.3551 99.1775 92.7381 100.463C91.2054 101.681 90.1696 103.378 89.2469 104.864L90.4511 105.612L91.6553 106.359C92.6344 104.782 93.4236 103.539 94.502 102.682C95.4962 101.892 96.8302 101.366 99.0387 101.536L99.1478 100.123ZM90.4511 105.612L89.2466 104.865C89.0041 105.256 88.7669 105.638 88.5231 106.017L89.7148 106.784L90.9065 107.551C91.1654 107.149 91.4152 106.746 91.6556 106.359L90.4511 105.612ZM89.7148 106.784L89.5414 108.191C92.2418 108.524 94.5944 108.112 96.4762 106.819L95.6732 105.651L94.8703 104.483C93.7141 105.277 92.114 105.652 89.8882 105.377L89.7148 106.784ZM101.675 84.7891L100.292 84.4792C99.5383 87.8426 98.1913 90.0566 96.3624 91.3141L97.1654 92.482L97.9684 93.65C100.591 91.8467 102.212 88.8729 103.058 85.099L101.675 84.7891ZM97.1654 92.482L96.3623 91.3142C94.5413 92.5665 92.0498 93.0055 88.6388 92.2812L88.3444 93.6676L88.05 95.0541C91.9622 95.8847 95.3169 95.4734 97.9685 93.6499L97.1654 92.482ZM88.3444 93.6676L88.6384 92.2811L87.56 92.0525L87.266 93.439L86.972 94.8255L88.0504 95.0542L88.3444 93.6676ZM87.266 93.439L88.5905 93.9435L88.9821 92.9155L87.6576 92.411L86.3331 91.9064L85.9415 92.9345L87.266 93.439ZM87.6576 92.411L88.9822 92.9152C90.1267 89.9089 91.6566 87.8064 93.5357 86.5209L92.7354 85.3511L91.935 84.1814C89.4397 85.8886 87.6136 88.5429 86.333 91.9067L87.6576 92.411ZM92.7354 85.3511L93.5358 86.5208C95.4198 85.2315 97.7573 84.6835 100.692 85.054L100.87 83.6478L101.047 82.2416C97.5425 81.7992 94.4821 82.4382 91.9349 84.1815L92.7354 85.3511ZM100.87 83.6478L100.692 85.0539L101.723 85.1845L101.901 83.7784L102.08 82.3723L101.048 82.2417L100.87 83.6478ZM101.901 83.7784L100.518 83.4686L100.292 84.4793L101.675 84.7891L103.058 85.0989L103.285 84.0883L101.901 83.7784ZM96.1007 90.9244L96.9036 92.0924C98.868 90.7418 100.154 88.5471 100.931 85.8109L99.5673 85.4238L98.2039 85.0367C97.533 87.3996 96.5293 88.9097 95.2977 89.7565L96.1007 90.9244ZM99.5673 85.4238L99.6356 84.0081C97.1052 83.8861 94.8747 84.4555 92.9995 85.7392L93.8001 86.9087L94.6008 88.0783C95.8957 87.1918 97.4953 86.7428 99.4991 86.8395L99.5673 85.4238ZM93.8001 86.9087L92.9997 85.7391C91.1059 87.0351 89.6538 88.9945 88.5621 91.4425L89.8565 92.0198L91.151 92.597C92.0971 90.4754 93.2589 88.9965 94.6006 88.0784L93.8001 86.9087ZM89.8565 92.0198L89.656 93.4228C92.4875 93.8275 94.9488 93.4367 96.9038 92.0923L96.1007 90.9244L95.2975 89.7566C94.0981 90.5815 92.4178 90.9541 90.0571 90.6167L89.8565 92.0198ZM102.103 70.0631L100.72 69.7531C99.9658 73.1166 98.6188 75.3306 96.7899 76.5879L97.5928 77.7559L98.3958 78.9238C101.019 77.1206 102.64 74.1469 103.486 70.373L102.103 70.0631ZM97.5928 77.7559L96.7896 76.5881C94.9688 77.8406 92.4774 78.2794 89.0663 77.5551L88.7719 78.9415L88.4775 80.3279C92.3896 81.1586 95.7443 80.7477 98.3961 78.9236L97.5928 77.7559ZM88.7719 78.9415L89.0654 77.5549L87.987 77.3266L87.6935 78.7132L87.4 80.0998L88.4784 80.3281L88.7719 78.9415ZM87.6935 78.7132L89.018 79.2176L89.4096 78.1892L88.0851 77.6848L86.7605 77.1804L86.3689 78.2088L87.6935 78.7132ZM88.0851 77.6848L89.4097 78.1891C90.5542 75.1828 92.0841 73.0803 93.9631 71.7949L93.1628 70.6251L92.3625 69.4553C89.8671 71.1624 88.041 73.817 86.7605 77.1805L88.0851 77.6848ZM93.1628 70.6251L93.9632 71.7948C95.8472 70.5057 98.1848 69.9575 101.12 70.3282L101.297 68.922L101.475 67.5158C97.9698 67.0732 94.9096 67.7125 92.3624 69.4554L93.1628 70.6251ZM101.297 68.922L101.119 70.3281L102.151 70.4585L102.329 69.0524L102.507 67.6463L101.475 67.5159L101.297 68.922ZM102.329 69.0524L100.946 68.7426L100.719 69.7533L102.103 70.0631L103.486 70.3729L103.712 69.3622L102.329 69.0524ZM96.5282 76.1984L97.3312 77.3663C99.2955 76.0156 100.581 73.8215 101.358 71.0846L99.9947 70.6976L98.6312 70.3106C97.9605 72.6739 96.9568 74.1836 95.7251 75.0305L96.5282 76.1984ZM99.9947 70.6976L100.063 69.2819C97.5325 69.16 95.3022 69.7297 93.4271 71.013L94.2276 72.1827L95.0281 73.3523C96.3232 72.466 97.923 72.0168 99.9265 72.1133L99.9947 70.6976ZM94.2276 72.1827L93.4272 71.0129C91.5333 72.3089 90.0812 74.2686 88.9895 76.7168L90.284 77.294L91.5785 77.8712C92.5247 75.7493 93.6864 74.2703 95.028 73.3524L94.2276 72.1827ZM90.284 77.294L90.0836 78.6971C92.9149 79.1015 95.3763 78.711 97.3314 77.3661L96.5282 76.1984L95.7249 75.0307C94.5256 75.8557 92.8454 76.2281 90.4844 75.8909L90.284 77.294ZM3.31709 54.0752L4.40669 54.9816C19.3502 37.0183 42.9621 32.9647 64.7381 29.2803L64.5016 27.8828L64.2652 26.4853C42.7142 30.1317 17.9549 34.2631 2.22749 53.1688L3.31709 54.0752ZM64.5016 27.8828L64.7381 29.2803C74.1122 27.6941 83.1562 26.1679 90.646 23.5487L90.1781 22.2108L89.7103 20.8729C82.4931 23.3968 73.7084 24.8875 64.2652 26.4854L64.5016 27.8828ZM90.1781 22.2108L91.523 22.6583C93.603 16.4071 96.1208 11.5031 99.1866 8.16292L98.1424 7.20452L97.0983 6.24611C93.6497 10.0033 90.9735 15.3313 88.8333 21.7633L90.1781 22.2108ZM98.1424 7.20452L99.1866 8.16296C101.826 5.28719 105.126 3.35489 107.332 2.93233L107.065 1.54029L106.799 0.148256C103.812 0.72036 100.003 3.08158 97.0983 6.24607L98.1424 7.20452ZM107.065 1.54029L107.332 2.9323C108.334 2.74036 109.095 2.84458 109.631 3.121L110.281 1.86109L110.93 0.601189C109.67 -0.0482572 108.22 -0.124042 106.799 0.148288L107.065 1.54029ZM110.281 1.86109L109.632 3.12119C110.261 3.44491 110.684 3.97933 110.777 4.97968L112.189 4.8484L113.6 4.71712C113.423 2.8164 112.473 1.39594 110.93 0.600998L110.281 1.86109ZM112.189 4.8484L110.778 4.98031C110.899 6.2827 110.253 8.7051 107.81 12.5626L109.007 13.321L110.204 14.0793C112.709 10.1254 113.814 7.01143 113.6 4.71649L112.189 4.8484ZM109.007 13.321L107.81 12.5625C104.493 17.7988 99.2706 21.2762 92.6428 23.821L93.1508 25.1441L93.6588 26.4673C100.61 23.7984 106.444 20.0157 110.204 14.0794L109.007 13.321ZM93.1508 25.1441L91.796 24.7278C86.1482 43.107 84.2439 71.7701 82.2243 102.019L83.6384 102.114L85.0526 102.208C87.0826 71.8038 88.9787 43.5463 94.5056 25.5605L93.1508 25.1441ZM83.6384 102.114L82.2243 102.019C81.6502 110.622 81.0663 119.364 80.3845 128.07L81.7975 128.18L83.2105 128.291C83.8938 119.567 84.4787 110.808 85.0526 102.208L83.6384 102.114ZM81.7975 128.18L82.5544 129.379C106.724 114.113 138.817 101.639 177.48 85.5291L176.935 84.2208L176.39 82.9125C137.875 98.9613 105.471 111.552 81.0406 126.982L81.7975 128.18ZM176.935 84.2208L176.39 82.9125C136.632 99.479 105.195 115.949 80.6556 131.675L81.4203 132.868L82.185 134.062C106.559 118.441 137.844 102.045 177.48 85.5291L176.935 84.2208ZM81.4203 132.868L80.0078 132.751C78.9879 145.06 77.7403 157.213 76.0165 168.694L77.4181 168.904L78.8198 169.115C80.5565 157.548 81.8103 145.326 82.8328 132.985L81.4203 132.868ZM77.4181 168.904L76.0165 168.694C72.6242 191.285 67.4045 211.139 58.6018 224.638C54.2152 231.365 48.9724 236.46 42.6699 239.555C36.3779 242.644 28.9251 243.791 20.0206 242.454L19.8102 243.856L19.5997 245.257C28.9931 246.668 37.0407 245.477 43.9192 242.099C50.7872 238.727 56.3848 233.227 60.9762 226.186C70.1297 212.15 75.4161 191.781 78.8198 169.115L77.4181 168.904ZM19.8102 243.856L20.0206 242.454C14.875 241.682 10.5864 239.331 7.5708 235.667L6.47643 236.567L5.38206 237.468C8.88303 241.722 13.8264 244.391 19.5997 245.257L19.8102 243.856ZM6.47643 236.567L7.57077 235.667C3.79099 231.074 1.94546 224.313 3.25119 215.705L1.84989 215.492L0.448581 215.28C-0.950225 224.501 0.984537 232.125 5.38209 237.468L6.47643 236.567ZM1.84989 215.492L3.25118 215.705C4.51642 207.366 8.76494 197.266 17.082 185.877L15.9373 185.041L14.7927 184.205C6.29162 195.846 1.80095 206.367 0.448593 215.279L1.84989 215.492ZM15.9373 185.041L17.082 185.877C28.687 169.984 48.2537 151.56 78.5794 131.92L77.809 130.731L77.0385 129.541C46.5213 149.305 26.6615 167.952 14.7927 184.205L15.9373 185.041ZM77.809 130.731L79.2217 130.845C80.0038 121.197 80.6526 111.48 81.2882 101.957L79.874 101.863L78.4598 101.768C77.824 111.294 77.1765 120.991 76.3963 130.616L77.809 130.731ZM79.874 101.863L81.2882 101.957C83.2331 72.8204 85.0587 45.6066 90.2074 26.9984L88.8414 26.6205L87.4753 26.2425C82.2312 45.1959 80.3965 72.7551 78.4598 101.768L79.874 101.863ZM88.8414 26.6205L88.4265 25.2652C81.6479 27.3402 74.2224 28.5702 66.5148 29.6267C58.8448 30.678 50.8539 31.5617 43.1214 32.9436C27.6391 35.7105 12.7323 40.5409 2.22748 53.1688L3.31709 54.0752L4.4067 54.9816C14.2535 43.1447 28.3216 38.4681 43.6201 35.7341C51.2779 34.3655 59.1287 33.5002 66.8997 32.4351C74.6331 31.3751 82.2477 30.1211 89.2562 27.9757L88.8414 26.6205ZM94.8123 20.3373L95.4135 21.6209C100.277 19.3431 104.324 16.3198 107.015 12.0718L105.818 11.3133L104.621 10.5549C102.307 14.2076 98.7588 16.9239 94.2111 19.0538L94.8123 20.3373ZM105.818 11.3133L107.015 12.0716C108.033 10.4638 108.758 9.11658 109.219 8.00557C109.663 6.93443 109.931 5.92566 109.85 5.05614L108.439 5.18792L107.027 5.31969C107.043 5.48684 106.994 5.9715 106.601 6.91926C106.224 7.82716 105.59 9.02428 104.62 10.555L105.818 11.3133ZM108.439 5.18792L109.84 4.97767C109.885 5.27919 109.834 5.60655 109.664 5.8988C109.505 6.17142 109.292 6.33228 109.134 6.42096C108.841 6.58497 108.571 6.60118 108.445 6.60118V5.18385V3.76651C108.315 3.76651 108.042 3.78343 107.747 3.9488C107.587 4.03816 107.373 4.19988 107.214 4.47351C107.043 4.76677 106.991 5.09531 107.037 5.39816L108.439 5.18792ZM108.445 5.18385L108.622 3.77764C108.24 3.72939 107.818 3.79383 107.505 3.85414L107.774 5.24578L108.043 6.63741C108.162 6.61433 108.247 6.60262 108.3 6.59765C108.326 6.59523 108.338 6.59511 108.336 6.59512C108.336 6.59512 108.329 6.59517 108.319 6.59465C108.309 6.59415 108.291 6.59297 108.268 6.59005L108.445 5.18385ZM107.774 5.24578L107.507 3.85376C105.198 4.29619 102.223 6.24143 99.8735 8.80049L100.918 9.75896L101.962 10.7174C104.099 8.38956 106.565 6.92043 108.041 6.6378L107.774 5.24578ZM100.918 9.75896L99.8734 8.80058C97.3273 11.5746 95.2395 15.3344 93.4916 19.823L94.8123 20.3373L96.133 20.8516C97.8094 16.5466 99.7396 13.1385 101.962 10.7173L100.918 9.75896ZM108.462 5.18604L108.121 6.56173C108.047 6.54355 107.987 6.51921 108.056 6.5445C108.061 6.54634 108.079 6.55327 108.1 6.56029C108.109 6.56351 108.133 6.57158 108.162 6.58043C108.177 6.58481 108.204 6.59274 108.239 6.60104C108.26 6.60615 108.345 6.62657 108.455 6.63557C108.504 6.63955 108.634 6.6485 108.798 6.62193C108.896 6.60599 109.404 6.52099 109.745 6.01704C110.159 5.40506 109.942 4.80138 109.845 4.60284C109.744 4.39531 109.617 4.26478 109.578 4.22552C109.482 4.12857 109.393 4.06793 109.376 4.05598C109.343 4.03299 109.315 4.01608 109.301 4.00742C109.253 3.97852 109.21 3.95649 109.204 3.95335L108.553 5.21282L107.903 6.47229C107.902 6.4717 107.897 6.46883 107.889 6.46442C107.883 6.46142 107.862 6.45022 107.836 6.43405C107.823 6.42619 107.796 6.40998 107.764 6.38756C107.747 6.37618 107.659 6.316 107.563 6.21942C107.525 6.18033 107.397 6.04995 107.296 5.84255C107.2 5.64413 106.983 5.04055 107.397 4.42865C107.738 3.92477 108.246 3.83982 108.343 3.82391C108.507 3.79737 108.637 3.80632 108.686 3.81028C108.795 3.81923 108.879 3.83951 108.9 3.84441C108.933 3.85247 108.959 3.8601 108.973 3.86409C109 3.87216 109.02 3.87913 109.025 3.88098C109.038 3.88527 109.046 3.88839 109.039 3.88577C109.035 3.88435 109.004 3.87262 108.974 3.86217C108.951 3.85425 108.883 3.83037 108.803 3.81036L108.462 5.18604ZM108.553 5.21282L109.19 3.94653C108.998 3.8499 108.814 3.80567 108.671 3.78428L108.462 5.18604L108.252 6.58781C108.184 6.57762 108.061 6.55174 107.917 6.4791L108.553 5.21282ZM77.4132 135.469L76.6343 134.284C47.9532 153.15 29.1626 170.905 17.8336 186.42L18.9783 187.256L20.1229 188.091C31.1937 172.93 49.6988 155.395 78.1921 136.653L77.4132 135.469ZM18.9783 187.256L17.8336 186.42C9.72874 197.519 5.4536 207.468 4.18353 215.84L5.58483 216.053L6.98613 216.266C8.16806 208.475 12.1966 198.946 20.1229 188.091L18.9783 187.256ZM5.58483 216.053L4.16941 215.979C3.90952 220.979 4.74276 225.049 6.56056 228.087C8.39897 231.16 11.184 233.071 14.569 233.803C21.2204 235.241 29.9697 232.115 38.711 225.177C56.3085 211.208 74.9082 181.034 78.8253 135.59L77.4132 135.469L76.0011 135.347C72.1373 180.172 53.821 209.563 36.9486 222.956C28.4551 229.698 20.581 232.203 15.1681 231.032C12.521 230.46 10.4137 229.006 8.99307 226.632C7.55181 224.223 6.75924 220.763 7.00025 216.126L5.58483 216.053Z" fill="#E7DBC0"/>
</svg>
